G04 start of page 2 for group 0 idx 0 *
G04 Title: (unknown), signal (front) *
G04 Creator: pcb 20110918 *
G04 CreationDate: Sun Aug 11 05:18:20 2013 UTC *
G04 For: mokus *
G04 Format: Gerber/RS-274X *
G04 PCB-Dimensions: 60000 100000 *
G04 PCB-Coordinate-Origin: lower left *
%MOIN*%
%FSLAX25Y25*%
%LNTOP*%
%ADD25C,0.0500*%
%ADD24C,0.0380*%
%ADD23C,0.0350*%
%ADD22C,0.0200*%
%ADD21C,0.0360*%
%ADD20R,0.0216X0.0216*%
%ADD19R,0.0340X0.0340*%
%ADD18R,0.0750X0.0750*%
%ADD17R,0.0610X0.0610*%
%ADD16R,0.0370X0.0370*%
%ADD15C,0.0800*%
%ADD14C,0.0600*%
%ADD13C,0.0001*%
%ADD12C,0.0250*%
%ADD11C,0.0400*%
G54D11*X55000Y77500D02*Y95000D01*
X45000D02*Y70000D01*
X42500Y67500D01*
Y15000D02*X55000D01*
X35000Y86000D02*Y95000D01*
X15000D02*X25000D01*
X20200Y94800D02*X20000Y95000D01*
X17700Y92700D02*X20000Y95000D01*
X17700Y77500D02*Y92700D01*
Y77700D02*X20200Y75200D01*
Y61100D01*
X5000Y5000D02*Y15000D01*
G54D12*X11000Y21000D01*
X15000D01*
X18500Y24500D01*
G54D11*X20200Y48900D02*Y34200D01*
X18500Y32500D01*
G54D12*Y24500D02*Y32500D01*
X34665Y67835D02*X35000Y67500D01*
G54D11*Y70000D01*
X38900Y73900D01*
G54D12*X35000Y67500D02*Y71830D01*
X34330Y72500D01*
G54D11*X38900Y73900D02*Y77800D01*
X5000Y95000D02*X7500Y92500D01*
Y32500D01*
X8000Y55000D02*X20200D01*
X45000Y34330D02*X50330D01*
X46400Y59300D02*X53200D01*
X55000Y57500D01*
X50330Y34330D02*X55000Y39000D01*
Y57500D01*
X41830Y52500D02*X50500D01*
X55250Y57250D01*
X25000Y15000D02*X32500D01*
X25000D02*Y5000D01*
X32500Y15000D02*X38600Y21100D01*
Y23200D01*
G54D12*Y25400D01*
G54D11*X15000Y5000D02*Y15000D01*
G54D12*X40000Y30000D02*X45000D01*
X46400Y28600D01*
Y23200D01*
X40000Y36500D02*Y34330D01*
X45000Y42500D02*Y41500D01*
X40000Y36500D01*
Y42500D02*Y43500D01*
X41830Y45330D01*
Y47500D01*
X37500D02*Y58200D01*
X38600Y59300D01*
X33000Y62165D02*X29500Y65665D01*
Y76200D01*
X31100Y77800D01*
X35000Y42500D02*X33000Y44500D01*
Y57835D01*
G54D13*G36*
X22000Y98000D02*Y92000D01*
X28000D01*
Y98000D01*
X22000D01*
G37*
G54D14*X35000Y95000D03*
X45000D03*
X55000D03*
G54D15*Y77500D03*
G54D13*G36*
X2000Y18000D02*Y12000D01*
X8000D01*
Y18000D01*
X2000D01*
G37*
G54D14*X15000Y15000D03*
X25000D03*
G54D15*X55000D03*
G54D13*G36*
X2000Y98000D02*Y92000D01*
X8000D01*
Y98000D01*
X2000D01*
G37*
G54D14*X15000Y95000D03*
G54D13*G36*
X2000Y8000D02*Y2000D01*
X8000D01*
Y8000D01*
X2000D01*
G37*
G54D14*X15000Y5000D03*
X25000D03*
X35000D03*
X45000D03*
X55000D03*
G54D16*X19000Y48900D02*X21400D01*
X19000Y55000D02*X21400D01*
G54D17*X8000Y58000D02*Y52000D01*
G54D18*X8100Y37700D02*Y27300D01*
X18500Y37700D02*Y27300D01*
G54D19*X46400Y59600D02*Y59000D01*
G54D20*X41830Y47893D02*Y47107D01*
X37500Y47893D02*Y47107D01*
X41830Y52893D02*Y52107D01*
X37500Y52893D02*Y52107D01*
G54D19*X46400Y23500D02*Y22900D01*
X38600Y23500D02*Y22900D01*
X42500Y15300D02*Y14700D01*
G54D20*X39607Y34330D02*X40393D01*
X39607Y30000D02*X40393D01*
X44607Y34330D02*X45393D01*
X44607Y30000D02*X45393D01*
X32607Y57835D02*X33393D01*
G54D19*X38600Y59600D02*Y59000D01*
G54D20*X32607Y62165D02*X33393D01*
G54D19*X42500Y67800D02*Y67200D01*
G54D20*X34330Y72893D02*Y72107D01*
G54D19*X35000Y86300D02*Y85700D01*
G54D20*X30000Y72893D02*Y72107D01*
G54D19*X31100Y78100D02*Y77500D01*
X38900Y78100D02*Y77500D01*
G54D16*X19000Y61100D02*X21400D01*
G54D18*X8100Y82700D02*Y72300D01*
X18500Y82700D02*Y72300D01*
G54D21*X40000Y42500D03*
X35000D03*
G54D14*X55000Y57500D03*
X35000Y67500D03*
G54D21*X45000Y42500D03*
G54D22*G54D23*G54D22*G54D24*G54D25*G54D24*G54D25*G54D24*M02*
