G04 start of page 10 for group -4015 idx -4015 *
G04 Title: (unknown), toppaste *
G04 Creator: pcb 20110918 *
G04 CreationDate: Sun Aug 11 05:18:20 2013 UTC *
G04 For: mokus *
G04 Format: Gerber/RS-274X *
G04 PCB-Dimensions: 60000 100000 *
G04 PCB-Coordinate-Origin: lower left *
%MOIN*%
%FSLAX25Y25*%
%LNTOPPASTE*%
%ADD60R,0.0340X0.0340*%
%ADD59R,0.0216X0.0216*%
%ADD58R,0.0750X0.0750*%
%ADD57R,0.0610X0.0610*%
%ADD56R,0.0370X0.0370*%
G54D56*X19000Y48900D02*X21400D01*
X19000Y55000D02*X21400D01*
X19000Y61100D02*X21400D01*
G54D57*X8000Y58000D02*Y52000D01*
G54D58*X8100Y82700D02*Y72300D01*
X18500Y82700D02*Y72300D01*
X8100Y37700D02*Y27300D01*
X18500Y37700D02*Y27300D01*
G54D59*X32607Y57835D02*X33393D01*
X32607Y62165D02*X33393D01*
X34330Y72893D02*Y72107D01*
X30000Y72893D02*Y72107D01*
G54D60*X31100Y78100D02*Y77500D01*
X38900Y78100D02*Y77500D01*
X35000Y86300D02*Y85700D01*
X38600Y59600D02*Y59000D01*
X46400Y59600D02*Y59000D01*
X42500Y67800D02*Y67200D01*
G54D59*X41830Y47893D02*Y47107D01*
X37500Y47893D02*Y47107D01*
X41830Y52893D02*Y52107D01*
X37500Y52893D02*Y52107D01*
G54D60*X46400Y23500D02*Y22900D01*
X38600Y23500D02*Y22900D01*
X42500Y15300D02*Y14700D01*
G54D59*X39607Y34330D02*X40393D01*
X39607Y30000D02*X40393D01*
X44607Y34330D02*X45393D01*
X44607Y30000D02*X45393D01*
M02*
