G04 start of page 6 for group -4063 idx -4063 *
G04 Title: (unknown), componentmask *
G04 Creator: pcb 20110918 *
G04 CreationDate: Wed Sep 11 23:18:10 2013 UTC *
G04 For: mokus *
G04 Format: Gerber/RS-274X *
G04 PCB-Dimensions: 60000 100000 *
G04 PCB-Coordinate-Origin: lower left *
%MOIN*%
%FSLAX25Y25*%
%LNTOPMASK*%
%ADD47R,0.0810X0.0810*%
%ADD46R,0.0670X0.0670*%
%ADD45R,0.0430X0.0430*%
%ADD44R,0.0400X0.0400*%
%ADD43R,0.0276X0.0276*%
%ADD42C,0.0860*%
%ADD41C,0.0660*%
%ADD40C,0.0001*%
G54D40*G36*
X21700Y98300D02*Y91700D01*
X28300D01*
Y98300D01*
X21700D01*
G37*
G54D41*X35000Y95000D03*
X45000D03*
X55000D03*
G54D42*Y77500D03*
G54D40*G36*
X1700Y18300D02*Y11700D01*
X8300D01*
Y18300D01*
X1700D01*
G37*
G54D41*X15000Y15000D03*
X25000D03*
G54D42*X55000D03*
G54D40*G36*
X1700Y98300D02*Y91700D01*
X8300D01*
Y98300D01*
X1700D01*
G37*
G54D41*X15000Y95000D03*
G54D40*G36*
X1700Y8300D02*Y1700D01*
X8300D01*
Y8300D01*
X1700D01*
G37*
G54D41*X15000Y5000D03*
X25000D03*
X35000D03*
X45000D03*
X55000D03*
G54D43*X32607Y57835D02*X33393D01*
G54D44*X38600Y59600D02*Y59000D01*
G54D43*X32607Y62165D02*X33393D01*
G54D44*X42500Y67800D02*Y67200D01*
G54D43*X34330Y72893D02*Y72107D01*
X30000Y72893D02*Y72107D01*
G54D44*X31100Y78100D02*Y77500D01*
X38900Y78100D02*Y77500D01*
X35000Y86300D02*Y85700D01*
X46400Y59600D02*Y59000D01*
G54D43*X41830Y47893D02*Y47107D01*
X37500Y47893D02*Y47107D01*
X41830Y52893D02*Y52107D01*
X37500Y52893D02*Y52107D01*
G54D44*X46400Y23500D02*Y22900D01*
X42500Y15300D02*Y14700D01*
X38600Y23500D02*Y22900D01*
G54D43*X39607Y34330D02*X40393D01*
X39607Y30000D02*X40393D01*
X44607Y34330D02*X45393D01*
X44607Y30000D02*X45393D01*
G54D45*X19000Y48900D02*X21400D01*
X19000Y55000D02*X21400D01*
G54D46*X8000Y58000D02*Y52000D01*
G54D47*X17200Y38200D02*Y27800D01*
G54D45*X19000Y61100D02*X21400D01*
G54D47*X17200Y83200D02*Y72800D01*
X6800Y83200D02*Y72800D01*
Y38200D02*Y27800D01*
M02*
