G04 start of page 8 for group -4079 idx -4079 *
G04 Title: (unknown), topsilk *
G04 Creator: pcb 20110918 *
G04 CreationDate: Sun Aug 11 05:18:20 2013 UTC *
G04 For: mokus *
G04 Format: Gerber/RS-274X *
G04 PCB-Dimensions: 60000 100000 *
G04 PCB-Coordinate-Origin: lower left *
%MOIN*%
%FSLAX25Y25*%
%LNTOPSILK*%
%ADD53C,0.0080*%
%ADD52C,0.0200*%
%ADD51C,0.0100*%
G54D51*X28600Y88800D02*Y74900D01*
X41400D01*
Y88800D01*
X28600D01*
G54D52*X900Y86400D02*Y68600D01*
G54D51*X4600Y66100D01*
X24700D01*
Y88900D01*
X4600D01*
X900Y86400D01*
X48900Y26100D02*Y12200D01*
X36100Y26100D02*X48900D01*
X36100D02*Y12200D01*
X48900D01*
X55000Y30600D02*Y15000D01*
Y77500D02*Y61900D01*
X49800D02*Y30600D01*
Y61900D02*X60200D01*
Y30600D01*
X49800D02*X60200D01*
X36100Y70300D02*Y56400D01*
X48900D01*
Y70300D01*
X36100D01*
X3800Y45900D02*X24500D01*
Y64200D02*Y45900D01*
X3800Y64200D02*X24500D01*
X3800D02*Y45900D01*
G54D52*X900Y41400D02*Y23600D01*
G54D51*X4600Y21100D01*
X24700D01*
Y43900D02*Y21100D01*
X4600Y43900D02*X24700D01*
X4600D02*X900Y41400D01*
G54D53*X51900Y48800D02*X53900D01*
X54400Y48300D01*
Y47300D01*
X53900Y46800D02*X54400Y47300D01*
X52400Y46800D02*X53900D01*
X52400Y48800D02*Y44800D01*
X53200Y46800D02*X54400Y44800D01*
X55600Y46300D02*X57600Y48800D01*
X55600Y46300D02*X58100D01*
X57600Y48800D02*Y44800D01*
X28680Y48650D02*X30680D01*
X31180Y48150D01*
Y47150D01*
X30680Y46650D02*X31180Y47150D01*
X29180Y46650D02*X30680D01*
X29180Y48650D02*Y44650D01*
X29980Y46650D02*X31180Y44650D01*
X32380Y48150D02*X32880Y48650D01*
X34380D01*
X34880Y48150D01*
Y47150D01*
X32380Y44650D02*X34880Y47150D01*
X32380Y44650D02*X34880D01*
X25185Y62150D02*X27185D01*
X27685Y61650D01*
Y60650D01*
X27185Y60150D02*X27685Y60650D01*
X25685Y60150D02*X27185D01*
X25685Y62150D02*Y58150D01*
X26485Y60150D02*X27685Y58150D01*
X28885Y61350D02*X29685Y62150D01*
Y58150D01*
X28885D02*X30385D01*
X39700Y64900D02*Y61900D01*
Y64900D02*X40200Y65400D01*
X41200D01*
X41700Y64900D01*
Y62400D01*
X40700Y61400D02*X41700Y62400D01*
X40200Y61400D02*X40700D01*
X39700Y61900D02*X40200Y61400D01*
X40700Y62900D02*X41700Y61400D01*
X42900Y64900D02*X43400Y65400D01*
X44900D01*
X45400Y64900D01*
Y63900D01*
X42900Y61400D02*X45400Y63900D01*
X42900Y61400D02*X45400D01*
X28845Y54650D02*X30845D01*
X31345Y54150D01*
Y53150D01*
X30845Y52650D02*X31345Y53150D01*
X29345Y52650D02*X30845D01*
X29345Y54650D02*Y50650D01*
X30145Y52650D02*X31345Y50650D01*
X34045Y54650D02*X34545Y54150D01*
X33045Y54650D02*X34045D01*
X32545Y54150D02*X33045Y54650D01*
X32545Y54150D02*Y51150D01*
X33045Y50650D01*
X34045Y52850D02*X34545Y52350D01*
X32545Y52850D02*X34045D01*
X33045Y50650D02*X34045D01*
X34545Y51150D01*
Y52350D02*Y51150D01*
X11800Y62700D02*Y59200D01*
X12300Y58700D01*
X13300D01*
X13800Y59200D01*
Y62700D02*Y59200D01*
X15000Y61900D02*X15800Y62700D01*
Y58700D01*
X15000D02*X16500D01*
X26185Y70650D02*X28185D01*
X28685Y70150D01*
Y69150D01*
X28185Y68650D02*X28685Y69150D01*
X26685Y68650D02*X28185D01*
X26685Y70650D02*Y66650D01*
X27485Y68650D02*X28685Y66650D01*
X30385D02*X32385Y70650D01*
X29885D02*X32385D01*
X32200Y83400D02*Y80400D01*
Y83400D02*X32700Y83900D01*
X33700D01*
X34200Y83400D01*
Y80900D01*
X33200Y79900D02*X34200Y80900D01*
X32700Y79900D02*X33200D01*
X32200Y80400D02*X32700Y79900D01*
X33200Y81400D02*X34200Y79900D01*
X35400Y83400D02*X35900Y83900D01*
X36900D01*
X37400Y83400D01*
X36900Y79900D02*X37400Y80400D01*
X35900Y79900D02*X36900D01*
X35400Y80400D02*X35900Y79900D01*
Y82100D02*X36900D01*
X37400Y83400D02*Y82600D01*
Y81600D02*Y80400D01*
Y81600D02*X36900Y82100D01*
X37400Y82600D02*X36900Y82100D01*
X10000Y89400D02*X11300D01*
X9300Y90100D02*X10000Y89400D01*
X9300Y92700D02*Y90100D01*
Y92700D02*X10000Y93400D01*
X11300D01*
X12500Y92600D02*X13300Y93400D01*
Y89400D01*
X12500D02*X14000D01*
X40200Y20900D02*Y17900D01*
Y20900D02*X40700Y21400D01*
X41700D01*
X42200Y20900D01*
Y18400D01*
X41200Y17400D02*X42200Y18400D01*
X40700Y17400D02*X41200D01*
X40200Y17900D02*X40700Y17400D01*
X41200Y18900D02*X42200Y17400D01*
X43400Y20600D02*X44200Y21400D01*
Y17400D01*
X43400D02*X44900D01*
X35350Y40320D02*X37350D01*
X37850Y39820D01*
Y38820D01*
X37350Y38320D02*X37850Y38820D01*
X35850Y38320D02*X37350D01*
X35850Y40320D02*Y36320D01*
X36650Y38320D02*X37850Y36320D01*
X39050Y39820D02*X39550Y40320D01*
X40550D01*
X41050Y39820D01*
X40550Y36320D02*X41050Y36820D01*
X39550Y36320D02*X40550D01*
X39050Y36820D02*X39550Y36320D01*
Y38520D02*X40550D01*
X41050Y39820D02*Y39020D01*
Y38020D02*Y36820D01*
Y38020D02*X40550Y38520D01*
X41050Y39020D02*X40550Y38520D01*
X42685Y40150D02*X44685D01*
X45185Y39650D01*
Y38650D01*
X44685Y38150D02*X45185Y38650D01*
X43185Y38150D02*X44685D01*
X43185Y40150D02*Y36150D01*
X43985Y38150D02*X45185Y36150D01*
X46385Y40150D02*X48385D01*
X46385D02*Y38150D01*
X46885Y38650D01*
X47885D01*
X48385Y38150D01*
Y36650D01*
X47885Y36150D02*X48385Y36650D01*
X46885Y36150D02*X47885D01*
X46385Y36650D02*X46885Y36150D01*
X27000Y29900D02*X28300D01*
X26300Y30600D02*X27000Y29900D01*
X26300Y33200D02*Y30600D01*
Y33200D02*X27000Y33900D01*
X28300D01*
X29500Y33400D02*X30000Y33900D01*
X31500D01*
X32000Y33400D01*
Y32400D01*
X29500Y29900D02*X32000Y32400D01*
X29500Y29900D02*X32000D01*
M02*
