G04 start of page 3 for group 1 idx 1 *
G04 Title: (unknown), signal (back) *
G04 Creator: pcb 20110918 *
G04 CreationDate: Wed Sep 11 23:18:10 2013 UTC *
G04 For: mokus *
G04 Format: Gerber/RS-274X *
G04 PCB-Dimensions: 60000 100000 *
G04 PCB-Coordinate-Origin: lower left *
%MOIN*%
%FSLAX25Y25*%
%LNBOTTOM*%
%ADD34C,0.0500*%
%ADD33C,0.0380*%
%ADD32C,0.0350*%
%ADD31C,0.0200*%
%ADD30C,0.0360*%
%ADD29C,0.0800*%
%ADD28C,0.0600*%
%ADD27C,0.0250*%
%ADD26C,0.0001*%
G54D26*G36*
X34993Y487D02*X35000Y486D01*
X35706Y542D01*
X36395Y707D01*
X37049Y978D01*
X37653Y1348D01*
X38192Y1808D01*
X38652Y2347D01*
X39022Y2951D01*
X39293Y3605D01*
X39458Y4294D01*
X39500Y5000D01*
X39458Y5706D01*
X39293Y6395D01*
X39022Y7049D01*
X38750Y7493D01*
Y8068D01*
X40652Y6166D01*
X40542Y5706D01*
X40486Y5000D01*
X40542Y4294D01*
X40707Y3605D01*
X40978Y2951D01*
X41348Y2347D01*
X41808Y1808D01*
X42347Y1348D01*
X42951Y978D01*
X43605Y707D01*
X44294Y542D01*
X45000Y486D01*
X45706Y542D01*
X46395Y707D01*
X47049Y978D01*
X47653Y1348D01*
X48192Y1808D01*
X48652Y2347D01*
X49022Y2951D01*
X49293Y3605D01*
X49458Y4294D01*
X49500Y5000D01*
X49458Y5706D01*
X49293Y6395D01*
X49022Y7049D01*
X48652Y7653D01*
X48192Y8192D01*
X47653Y8652D01*
X47049Y9022D01*
X46395Y9293D01*
X45706Y9458D01*
X45000Y9514D01*
X44294Y9458D01*
X43834Y9348D01*
X42250Y10932D01*
Y14568D01*
X50652Y6166D01*
X50542Y5706D01*
X50486Y5000D01*
X50542Y4294D01*
X50707Y3605D01*
X50978Y2951D01*
X51348Y2347D01*
X51808Y1808D01*
X52347Y1348D01*
X52951Y978D01*
X53605Y707D01*
X54294Y542D01*
X55000Y486D01*
X55706Y542D01*
X56395Y707D01*
X57049Y978D01*
X57653Y1348D01*
X58192Y1808D01*
X58652Y2347D01*
X59022Y2951D01*
X59293Y3605D01*
X59458Y4294D01*
X59500Y5000D01*
X59458Y5706D01*
X59293Y6395D01*
X59022Y7049D01*
X58652Y7653D01*
X58192Y8192D01*
X57653Y8652D01*
X57049Y9022D01*
X56395Y9293D01*
X55706Y9458D01*
X55196Y9498D01*
X55863Y9551D01*
X56705Y9753D01*
X57505Y10084D01*
X58243Y10537D01*
X58901Y11099D01*
X59463Y11757D01*
X59916Y12495D01*
X60000Y12699D01*
Y0D01*
X34993D01*
Y487D01*
G37*
G36*
X54993Y71984D02*X55000Y71983D01*
X55863Y72051D01*
X56705Y72253D01*
X57505Y72584D01*
X58243Y73037D01*
X58901Y73599D01*
X59463Y74257D01*
X59916Y74995D01*
X60000Y75199D01*
Y17301D01*
X59916Y17505D01*
X59463Y18243D01*
X58901Y18901D01*
X58243Y19463D01*
X57505Y19916D01*
X56705Y20247D01*
X55863Y20449D01*
X55000Y20517D01*
X54993Y20516D01*
Y71984D01*
G37*
G36*
Y100000D02*X60000D01*
Y79801D01*
X59916Y80005D01*
X59463Y80743D01*
X58901Y81401D01*
X58243Y81963D01*
X57505Y82416D01*
X56705Y82747D01*
X55863Y82949D01*
X55000Y83017D01*
X54993Y83016D01*
Y90487D01*
X55000Y90486D01*
X55706Y90542D01*
X56395Y90707D01*
X57049Y90978D01*
X57653Y91348D01*
X58192Y91808D01*
X58652Y92347D01*
X59022Y92951D01*
X59293Y93605D01*
X59458Y94294D01*
X59500Y95000D01*
X59458Y95706D01*
X59293Y96395D01*
X59022Y97049D01*
X58652Y97653D01*
X58192Y98192D01*
X57653Y98652D01*
X57049Y99022D01*
X56395Y99293D01*
X55706Y99458D01*
X55000Y99514D01*
X54993Y99513D01*
Y100000D01*
G37*
G36*
X49711Y13471D02*X45750Y17432D01*
Y39801D01*
X45868Y39829D01*
X46275Y39997D01*
X46651Y40228D01*
X46986Y40514D01*
X47272Y40849D01*
X47503Y41225D01*
X47671Y41632D01*
X47774Y42061D01*
X47800Y42500D01*
X47774Y42939D01*
X47671Y43368D01*
X47503Y43775D01*
X47272Y44151D01*
X46986Y44486D01*
X46651Y44772D01*
X46275Y45003D01*
X45868Y45171D01*
X45439Y45274D01*
X45000Y45309D01*
X44993Y45308D01*
Y90487D01*
X45000Y90486D01*
X45706Y90542D01*
X46395Y90707D01*
X47049Y90978D01*
X47653Y91348D01*
X48192Y91808D01*
X48652Y92347D01*
X49022Y92951D01*
X49293Y93605D01*
X49458Y94294D01*
X49500Y95000D01*
X49458Y95706D01*
X49293Y96395D01*
X49022Y97049D01*
X48652Y97653D01*
X48192Y98192D01*
X47653Y98652D01*
X47049Y99022D01*
X46395Y99293D01*
X45706Y99458D01*
X45000Y99514D01*
X44993Y99513D01*
Y100000D01*
X54993D01*
Y99513D01*
X54294Y99458D01*
X53605Y99293D01*
X52951Y99022D01*
X52347Y98652D01*
X51808Y98192D01*
X51348Y97653D01*
X50978Y97049D01*
X50707Y96395D01*
X50542Y95706D01*
X50486Y95000D01*
X50542Y94294D01*
X50707Y93605D01*
X50978Y92951D01*
X51348Y92347D01*
X51808Y91808D01*
X52347Y91348D01*
X52951Y90978D01*
X53605Y90707D01*
X54294Y90542D01*
X54993Y90487D01*
Y83016D01*
X54137Y82949D01*
X53295Y82747D01*
X52495Y82416D01*
X51757Y81963D01*
X51099Y81401D01*
X50537Y80743D01*
X50084Y80005D01*
X49753Y79205D01*
X49551Y78363D01*
X49483Y77500D01*
X49551Y76637D01*
X49753Y75795D01*
X50084Y74995D01*
X50537Y74257D01*
X51099Y73599D01*
X51757Y73037D01*
X52495Y72584D01*
X53295Y72253D01*
X54137Y72051D01*
X54993Y71984D01*
Y20516D01*
X54137Y20449D01*
X53295Y20247D01*
X52495Y19916D01*
X51757Y19463D01*
X51099Y18901D01*
X50537Y18243D01*
X50084Y17505D01*
X49753Y16705D01*
X49551Y15863D01*
X49483Y15000D01*
X49551Y14137D01*
X49711Y13471D01*
G37*
G36*
X44993Y45308D02*X44561Y45274D01*
X44132Y45171D01*
X43725Y45003D01*
X43349Y44772D01*
X43014Y44486D01*
X42728Y44151D01*
X42500Y43779D01*
X42272Y44151D01*
X41986Y44486D01*
X41651Y44772D01*
X41275Y45003D01*
X40868Y45171D01*
X40439Y45274D01*
X40000Y45309D01*
X39561Y45274D01*
X39132Y45171D01*
X38725Y45003D01*
X38349Y44772D01*
X38014Y44486D01*
X37728Y44151D01*
X37500Y43779D01*
X37272Y44151D01*
X36986Y44486D01*
X36651Y44772D01*
X36275Y45003D01*
X35868Y45171D01*
X35439Y45274D01*
X35000Y45309D01*
X34993Y45308D01*
Y90487D01*
X35000Y90486D01*
X35706Y90542D01*
X36395Y90707D01*
X37049Y90978D01*
X37653Y91348D01*
X38192Y91808D01*
X38652Y92347D01*
X39022Y92951D01*
X39293Y93605D01*
X39458Y94294D01*
X39500Y95000D01*
X39458Y95706D01*
X39293Y96395D01*
X39022Y97049D01*
X38652Y97653D01*
X38192Y98192D01*
X37653Y98652D01*
X37049Y99022D01*
X36395Y99293D01*
X35706Y99458D01*
X35000Y99514D01*
X34993Y99513D01*
Y100000D01*
X44993D01*
Y99513D01*
X44294Y99458D01*
X43605Y99293D01*
X42951Y99022D01*
X42347Y98652D01*
X41808Y98192D01*
X41348Y97653D01*
X40978Y97049D01*
X40707Y96395D01*
X40542Y95706D01*
X40486Y95000D01*
X40542Y94294D01*
X40707Y93605D01*
X40978Y92951D01*
X41348Y92347D01*
X41808Y91808D01*
X42347Y91348D01*
X42951Y90978D01*
X43605Y90707D01*
X44294Y90542D01*
X44993Y90487D01*
Y45308D01*
G37*
G36*
X34993D02*X34561Y45274D01*
X34132Y45171D01*
X33725Y45003D01*
X33349Y44772D01*
X33014Y44486D01*
X32728Y44151D01*
X32497Y43775D01*
X32329Y43368D01*
X32226Y42939D01*
X32191Y42500D01*
X32226Y42061D01*
X32329Y41632D01*
X32497Y41225D01*
X32728Y40849D01*
X33014Y40514D01*
X33349Y40228D01*
X33725Y39997D01*
X34132Y39829D01*
X34250Y39801D01*
Y9448D01*
X33605Y9293D01*
X32951Y9022D01*
X32347Y8652D01*
X31808Y8192D01*
X31348Y7653D01*
X30978Y7049D01*
X30707Y6395D01*
X30542Y5706D01*
X30486Y5000D01*
X30542Y4294D01*
X30707Y3605D01*
X30978Y2951D01*
X31348Y2347D01*
X31808Y1808D01*
X32347Y1348D01*
X32951Y978D01*
X33605Y707D01*
X34294Y542D01*
X34993Y487D01*
Y0D01*
X28613D01*
Y2853D01*
X28656Y2860D01*
X28768Y2897D01*
X28873Y2952D01*
X28968Y3022D01*
X29051Y3106D01*
X29119Y3202D01*
X29170Y3308D01*
X29318Y3716D01*
X29422Y4137D01*
X29484Y4567D01*
X29505Y5000D01*
X29484Y5433D01*
X29422Y5863D01*
X29318Y6284D01*
X29175Y6694D01*
X29122Y6800D01*
X29053Y6896D01*
X28970Y6981D01*
X28875Y7051D01*
X28769Y7106D01*
X28657Y7143D01*
X28613Y7151D01*
Y12853D01*
X28656Y12860D01*
X28768Y12897D01*
X28873Y12952D01*
X28968Y13022D01*
X29051Y13106D01*
X29119Y13202D01*
X29170Y13308D01*
X29318Y13716D01*
X29422Y14137D01*
X29484Y14567D01*
X29505Y15000D01*
X29484Y15433D01*
X29422Y15863D01*
X29318Y16284D01*
X29175Y16694D01*
X29122Y16800D01*
X29053Y16896D01*
X28970Y16981D01*
X28875Y17051D01*
X28769Y17106D01*
X28657Y17143D01*
X28613Y17151D01*
Y90630D01*
X28683Y90659D01*
X28884Y90783D01*
X29064Y90936D01*
X29217Y91116D01*
X29341Y91317D01*
X29431Y91535D01*
X29486Y91765D01*
X29500Y92000D01*
X29486Y98235D01*
X29431Y98465D01*
X29341Y98683D01*
X29217Y98884D01*
X29064Y99064D01*
X28884Y99217D01*
X28683Y99341D01*
X28613Y99370D01*
Y100000D01*
X34993D01*
Y99513D01*
X34294Y99458D01*
X33605Y99293D01*
X32951Y99022D01*
X32347Y98652D01*
X31808Y98192D01*
X31348Y97653D01*
X30978Y97049D01*
X30707Y96395D01*
X30542Y95706D01*
X30486Y95000D01*
X30542Y94294D01*
X30707Y93605D01*
X30978Y92951D01*
X31348Y92347D01*
X31808Y91808D01*
X32347Y91348D01*
X32951Y90978D01*
X33605Y90707D01*
X34294Y90542D01*
X34993Y90487D01*
Y45308D01*
G37*
G36*
X28613Y99370D02*X28465Y99431D01*
X28235Y99486D01*
X28000Y99500D01*
X25000Y99493D01*
Y100000D01*
X28613D01*
Y99370D01*
G37*
G36*
Y0D02*X25000D01*
Y495D01*
X25433Y516D01*
X25863Y578D01*
X26284Y682D01*
X26694Y825D01*
X26800Y878D01*
X26896Y947D01*
X26981Y1030D01*
X27051Y1125D01*
X27106Y1231D01*
X27143Y1343D01*
X27163Y1460D01*
X27164Y1579D01*
X27146Y1696D01*
X27110Y1809D01*
X27057Y1915D01*
X26988Y2012D01*
X26905Y2096D01*
X26809Y2167D01*
X26704Y2221D01*
X26592Y2259D01*
X26475Y2278D01*
X26356Y2279D01*
X26239Y2261D01*
X26126Y2223D01*
X25855Y2124D01*
X25575Y2056D01*
X25289Y2014D01*
X25000Y2000D01*
Y8000D01*
X25289Y7986D01*
X25575Y7944D01*
X25855Y7876D01*
X26128Y7780D01*
X26239Y7742D01*
X26356Y7725D01*
X26474Y7725D01*
X26591Y7745D01*
X26703Y7782D01*
X26807Y7836D01*
X26902Y7906D01*
X26985Y7991D01*
X27054Y8087D01*
X27107Y8192D01*
X27143Y8305D01*
X27160Y8421D01*
X27159Y8539D01*
X27140Y8656D01*
X27103Y8768D01*
X27048Y8873D01*
X26978Y8968D01*
X26894Y9051D01*
X26798Y9119D01*
X26692Y9170D01*
X26284Y9318D01*
X25863Y9422D01*
X25433Y9484D01*
X25000Y9505D01*
Y10495D01*
X25433Y10516D01*
X25863Y10578D01*
X26284Y10682D01*
X26694Y10825D01*
X26800Y10878D01*
X26896Y10947D01*
X26981Y11030D01*
X27051Y11125D01*
X27106Y11231D01*
X27143Y11343D01*
X27163Y11460D01*
X27164Y11579D01*
X27146Y11696D01*
X27110Y11809D01*
X27057Y11915D01*
X26988Y12012D01*
X26905Y12096D01*
X26809Y12167D01*
X26704Y12221D01*
X26592Y12259D01*
X26475Y12278D01*
X26356Y12279D01*
X26239Y12261D01*
X26126Y12223D01*
X25855Y12124D01*
X25575Y12056D01*
X25289Y12014D01*
X25000Y12000D01*
Y18000D01*
X25289Y17986D01*
X25575Y17944D01*
X25855Y17876D01*
X26128Y17780D01*
X26239Y17742D01*
X26356Y17725D01*
X26474Y17725D01*
X26591Y17745D01*
X26703Y17782D01*
X26807Y17836D01*
X26902Y17906D01*
X26985Y17991D01*
X27054Y18087D01*
X27107Y18192D01*
X27143Y18305D01*
X27160Y18421D01*
X27159Y18539D01*
X27140Y18656D01*
X27103Y18768D01*
X27048Y18873D01*
X26978Y18968D01*
X26894Y19051D01*
X26798Y19119D01*
X26692Y19170D01*
X26284Y19318D01*
X25863Y19422D01*
X25433Y19484D01*
X25000Y19505D01*
Y90507D01*
X28235Y90514D01*
X28465Y90569D01*
X28613Y90630D01*
Y17151D01*
X28540Y17163D01*
X28421Y17164D01*
X28304Y17146D01*
X28191Y17110D01*
X28085Y17057D01*
X27988Y16988D01*
X27904Y16905D01*
X27833Y16809D01*
X27779Y16704D01*
X27741Y16592D01*
X27722Y16475D01*
X27721Y16356D01*
X27739Y16239D01*
X27777Y16126D01*
X27876Y15855D01*
X27944Y15575D01*
X27986Y15289D01*
X28000Y15000D01*
X27986Y14711D01*
X27944Y14425D01*
X27876Y14145D01*
X27780Y13872D01*
X27742Y13761D01*
X27725Y13644D01*
X27725Y13526D01*
X27745Y13409D01*
X27782Y13297D01*
X27836Y13193D01*
X27906Y13098D01*
X27991Y13015D01*
X28087Y12946D01*
X28192Y12893D01*
X28305Y12857D01*
X28421Y12840D01*
X28539Y12841D01*
X28613Y12853D01*
Y7151D01*
X28540Y7163D01*
X28421Y7164D01*
X28304Y7146D01*
X28191Y7110D01*
X28085Y7057D01*
X27988Y6988D01*
X27904Y6905D01*
X27833Y6809D01*
X27779Y6704D01*
X27741Y6592D01*
X27722Y6475D01*
X27721Y6356D01*
X27739Y6239D01*
X27777Y6126D01*
X27876Y5855D01*
X27944Y5575D01*
X27986Y5289D01*
X28000Y5000D01*
X27986Y4711D01*
X27944Y4425D01*
X27876Y4145D01*
X27780Y3872D01*
X27742Y3761D01*
X27725Y3644D01*
X27725Y3526D01*
X27745Y3409D01*
X27782Y3297D01*
X27836Y3193D01*
X27906Y3098D01*
X27991Y3015D01*
X28087Y2946D01*
X28192Y2893D01*
X28305Y2857D01*
X28421Y2840D01*
X28539Y2841D01*
X28613Y2853D01*
Y0D01*
G37*
G36*
X21387Y100000D02*X25000D01*
Y99493D01*
X21765Y99486D01*
X21535Y99431D01*
X21387Y99370D01*
Y100000D01*
G37*
G36*
X25000Y0D02*X21387D01*
Y2849D01*
X21460Y2837D01*
X21579Y2836D01*
X21696Y2854D01*
X21809Y2890D01*
X21915Y2943D01*
X22012Y3012D01*
X22096Y3095D01*
X22167Y3191D01*
X22221Y3296D01*
X22259Y3408D01*
X22278Y3525D01*
X22279Y3644D01*
X22261Y3761D01*
X22223Y3874D01*
X22124Y4145D01*
X22056Y4425D01*
X22014Y4711D01*
X22000Y5000D01*
X22014Y5289D01*
X22056Y5575D01*
X22124Y5855D01*
X22220Y6128D01*
X22258Y6239D01*
X22275Y6356D01*
X22275Y6474D01*
X22255Y6591D01*
X22218Y6703D01*
X22164Y6807D01*
X22094Y6902D01*
X22009Y6985D01*
X21913Y7054D01*
X21808Y7107D01*
X21695Y7143D01*
X21579Y7160D01*
X21461Y7159D01*
X21387Y7147D01*
Y12849D01*
X21460Y12837D01*
X21579Y12836D01*
X21696Y12854D01*
X21809Y12890D01*
X21915Y12943D01*
X22012Y13012D01*
X22096Y13095D01*
X22167Y13191D01*
X22221Y13296D01*
X22259Y13408D01*
X22278Y13525D01*
X22279Y13644D01*
X22261Y13761D01*
X22223Y13874D01*
X22124Y14145D01*
X22056Y14425D01*
X22014Y14711D01*
X22000Y15000D01*
X22014Y15289D01*
X22056Y15575D01*
X22124Y15855D01*
X22220Y16128D01*
X22258Y16239D01*
X22275Y16356D01*
X22275Y16474D01*
X22255Y16591D01*
X22218Y16703D01*
X22164Y16807D01*
X22094Y16902D01*
X22009Y16985D01*
X21913Y17054D01*
X21808Y17107D01*
X21695Y17143D01*
X21579Y17160D01*
X21461Y17159D01*
X21387Y17147D01*
Y90630D01*
X21535Y90569D01*
X21765Y90514D01*
X22000Y90500D01*
X25000Y90507D01*
Y19505D01*
X24567Y19484D01*
X24137Y19422D01*
X23716Y19318D01*
X23306Y19175D01*
X23200Y19122D01*
X23104Y19053D01*
X23019Y18970D01*
X22949Y18875D01*
X22894Y18769D01*
X22857Y18657D01*
X22837Y18540D01*
X22836Y18421D01*
X22854Y18304D01*
X22890Y18191D01*
X22943Y18085D01*
X23012Y17988D01*
X23095Y17904D01*
X23191Y17833D01*
X23296Y17779D01*
X23408Y17741D01*
X23525Y17722D01*
X23644Y17721D01*
X23761Y17739D01*
X23874Y17777D01*
X24145Y17876D01*
X24425Y17944D01*
X24711Y17986D01*
X25000Y18000D01*
Y12000D01*
X24711Y12014D01*
X24425Y12056D01*
X24145Y12124D01*
X23872Y12220D01*
X23761Y12258D01*
X23644Y12275D01*
X23526Y12275D01*
X23409Y12255D01*
X23297Y12218D01*
X23193Y12164D01*
X23098Y12094D01*
X23015Y12009D01*
X22946Y11913D01*
X22893Y11808D01*
X22857Y11695D01*
X22840Y11579D01*
X22841Y11461D01*
X22860Y11344D01*
X22897Y11232D01*
X22952Y11127D01*
X23022Y11032D01*
X23106Y10949D01*
X23202Y10881D01*
X23308Y10830D01*
X23716Y10682D01*
X24137Y10578D01*
X24567Y10516D01*
X25000Y10495D01*
Y9505D01*
X24567Y9484D01*
X24137Y9422D01*
X23716Y9318D01*
X23306Y9175D01*
X23200Y9122D01*
X23104Y9053D01*
X23019Y8970D01*
X22949Y8875D01*
X22894Y8769D01*
X22857Y8657D01*
X22837Y8540D01*
X22836Y8421D01*
X22854Y8304D01*
X22890Y8191D01*
X22943Y8085D01*
X23012Y7988D01*
X23095Y7904D01*
X23191Y7833D01*
X23296Y7779D01*
X23408Y7741D01*
X23525Y7722D01*
X23644Y7721D01*
X23761Y7739D01*
X23874Y7777D01*
X24145Y7876D01*
X24425Y7944D01*
X24711Y7986D01*
X25000Y8000D01*
Y2000D01*
X24711Y2014D01*
X24425Y2056D01*
X24145Y2124D01*
X23872Y2220D01*
X23761Y2258D01*
X23644Y2275D01*
X23526Y2275D01*
X23409Y2255D01*
X23297Y2218D01*
X23193Y2164D01*
X23098Y2094D01*
X23015Y2009D01*
X22946Y1913D01*
X22893Y1808D01*
X22857Y1695D01*
X22840Y1579D01*
X22841Y1461D01*
X22860Y1344D01*
X22897Y1232D01*
X22952Y1127D01*
X23022Y1032D01*
X23106Y949D01*
X23202Y881D01*
X23308Y830D01*
X23716Y682D01*
X24137Y578D01*
X24567Y516D01*
X25000Y495D01*
Y0D01*
G37*
G36*
X21387D02*X14993D01*
Y487D01*
X15000Y486D01*
X15706Y542D01*
X16395Y707D01*
X17049Y978D01*
X17653Y1348D01*
X18192Y1808D01*
X18652Y2347D01*
X19022Y2951D01*
X19293Y3605D01*
X19458Y4294D01*
X19500Y5000D01*
X19458Y5706D01*
X19293Y6395D01*
X19022Y7049D01*
X18652Y7653D01*
X18192Y8192D01*
X17653Y8652D01*
X17049Y9022D01*
X16395Y9293D01*
X15706Y9458D01*
X15000Y9514D01*
X14993Y9513D01*
Y10487D01*
X15000Y10486D01*
X15706Y10542D01*
X16395Y10707D01*
X17049Y10978D01*
X17653Y11348D01*
X18192Y11808D01*
X18652Y12347D01*
X19022Y12951D01*
X19293Y13605D01*
X19458Y14294D01*
X19500Y15000D01*
X19458Y15706D01*
X19293Y16395D01*
X19022Y17049D01*
X18652Y17653D01*
X18192Y18192D01*
X17653Y18652D01*
X17049Y19022D01*
X16395Y19293D01*
X15706Y19458D01*
X15000Y19514D01*
X14993Y19513D01*
Y90487D01*
X15000Y90486D01*
X15706Y90542D01*
X16395Y90707D01*
X17049Y90978D01*
X17653Y91348D01*
X18192Y91808D01*
X18652Y92347D01*
X19022Y92951D01*
X19293Y93605D01*
X19458Y94294D01*
X19500Y95000D01*
X19458Y95706D01*
X19293Y96395D01*
X19022Y97049D01*
X18652Y97653D01*
X18192Y98192D01*
X17653Y98652D01*
X17049Y99022D01*
X16395Y99293D01*
X15706Y99458D01*
X15000Y99514D01*
X14993Y99513D01*
Y100000D01*
X21387D01*
Y99370D01*
X21317Y99341D01*
X21116Y99217D01*
X20936Y99064D01*
X20783Y98884D01*
X20659Y98683D01*
X20569Y98465D01*
X20514Y98235D01*
X20500Y98000D01*
X20514Y91765D01*
X20569Y91535D01*
X20659Y91317D01*
X20783Y91116D01*
X20936Y90936D01*
X21116Y90783D01*
X21317Y90659D01*
X21387Y90630D01*
Y17147D01*
X21344Y17140D01*
X21232Y17103D01*
X21127Y17048D01*
X21032Y16978D01*
X20949Y16894D01*
X20881Y16798D01*
X20830Y16692D01*
X20682Y16284D01*
X20578Y15863D01*
X20516Y15433D01*
X20495Y15000D01*
X20516Y14567D01*
X20578Y14137D01*
X20682Y13716D01*
X20825Y13306D01*
X20878Y13200D01*
X20947Y13104D01*
X21030Y13019D01*
X21125Y12949D01*
X21231Y12894D01*
X21343Y12857D01*
X21387Y12849D01*
Y7147D01*
X21344Y7140D01*
X21232Y7103D01*
X21127Y7048D01*
X21032Y6978D01*
X20949Y6894D01*
X20881Y6798D01*
X20830Y6692D01*
X20682Y6284D01*
X20578Y5863D01*
X20516Y5433D01*
X20495Y5000D01*
X20516Y4567D01*
X20578Y4137D01*
X20682Y3716D01*
X20825Y3306D01*
X20878Y3200D01*
X20947Y3104D01*
X21030Y3019D01*
X21125Y2949D01*
X21231Y2894D01*
X21343Y2857D01*
X21387Y2849D01*
Y0D01*
G37*
G36*
X14993D02*X8750D01*
Y700D01*
X8884Y783D01*
X9064Y936D01*
X9217Y1116D01*
X9341Y1317D01*
X9431Y1535D01*
X9486Y1765D01*
X9500Y2000D01*
X9486Y8235D01*
X9431Y8465D01*
X9341Y8683D01*
X9217Y8884D01*
X9064Y9064D01*
X8884Y9217D01*
X8750Y9300D01*
Y10700D01*
X8884Y10783D01*
X9064Y10936D01*
X9217Y11116D01*
X9341Y11317D01*
X9431Y11535D01*
X9486Y11765D01*
X9500Y12000D01*
X9486Y18235D01*
X9431Y18465D01*
X9341Y18683D01*
X9217Y18884D01*
X9064Y19064D01*
X8884Y19217D01*
X8750Y19300D01*
Y92748D01*
X8868Y92757D01*
X8982Y92785D01*
X9092Y92830D01*
X9192Y92891D01*
X9282Y92968D01*
X9359Y93058D01*
X9420Y93158D01*
X9465Y93268D01*
X9493Y93382D01*
X9500Y93500D01*
Y96500D01*
X9493Y96618D01*
X9465Y96732D01*
X9420Y96842D01*
X9359Y96942D01*
X9282Y97032D01*
X9192Y97109D01*
X9092Y97170D01*
X8982Y97215D01*
X8868Y97243D01*
X8750Y97252D01*
Y100000D01*
X14993D01*
Y99513D01*
X14294Y99458D01*
X13605Y99293D01*
X12951Y99022D01*
X12347Y98652D01*
X11808Y98192D01*
X11348Y97653D01*
X10978Y97049D01*
X10707Y96395D01*
X10542Y95706D01*
X10486Y95000D01*
X10542Y94294D01*
X10707Y93605D01*
X10978Y92951D01*
X11348Y92347D01*
X11808Y91808D01*
X12347Y91348D01*
X12951Y90978D01*
X13605Y90707D01*
X14294Y90542D01*
X14993Y90487D01*
Y19513D01*
X14294Y19458D01*
X13605Y19293D01*
X12951Y19022D01*
X12347Y18652D01*
X11808Y18192D01*
X11348Y17653D01*
X10978Y17049D01*
X10707Y16395D01*
X10542Y15706D01*
X10486Y15000D01*
X10542Y14294D01*
X10707Y13605D01*
X10978Y12951D01*
X11348Y12347D01*
X11808Y11808D01*
X12347Y11348D01*
X12951Y10978D01*
X13605Y10707D01*
X14294Y10542D01*
X14993Y10487D01*
Y9513D01*
X14294Y9458D01*
X13605Y9293D01*
X12951Y9022D01*
X12347Y8652D01*
X11808Y8192D01*
X11348Y7653D01*
X10978Y7049D01*
X10707Y6395D01*
X10542Y5706D01*
X10486Y5000D01*
X10542Y4294D01*
X10707Y3605D01*
X10978Y2951D01*
X11348Y2347D01*
X11808Y1808D01*
X12347Y1348D01*
X12951Y978D01*
X13605Y707D01*
X14294Y542D01*
X14993Y487D01*
Y0D01*
G37*
G36*
X8750Y19300D02*X8683Y19341D01*
X8465Y19431D01*
X8235Y19486D01*
X8000Y19500D01*
X5000Y19493D01*
Y90500D01*
X6500D01*
X6618Y90507D01*
X6732Y90535D01*
X6842Y90580D01*
X6942Y90641D01*
X7032Y90718D01*
X7109Y90808D01*
X7170Y90908D01*
X7215Y91018D01*
X7243Y91132D01*
X7252Y91250D01*
X7243Y91368D01*
X7215Y91482D01*
X7170Y91592D01*
X7109Y91692D01*
X7032Y91782D01*
X6942Y91859D01*
X6842Y91920D01*
X6732Y91965D01*
X6618Y91993D01*
X6500Y92000D01*
X5000D01*
Y98000D01*
X6500D01*
X6618Y98007D01*
X6732Y98035D01*
X6842Y98080D01*
X6942Y98141D01*
X7032Y98218D01*
X7109Y98308D01*
X7170Y98408D01*
X7215Y98518D01*
X7243Y98632D01*
X7252Y98750D01*
X7243Y98868D01*
X7215Y98982D01*
X7170Y99092D01*
X7109Y99192D01*
X7032Y99282D01*
X6942Y99359D01*
X6842Y99420D01*
X6732Y99465D01*
X6618Y99493D01*
X6500Y99500D01*
X5000D01*
Y100000D01*
X8750D01*
Y97252D01*
X8632Y97243D01*
X8518Y97215D01*
X8408Y97170D01*
X8308Y97109D01*
X8218Y97032D01*
X8141Y96942D01*
X8080Y96842D01*
X8035Y96732D01*
X8007Y96618D01*
X8000Y96500D01*
Y93500D01*
X8007Y93382D01*
X8035Y93268D01*
X8080Y93158D01*
X8141Y93058D01*
X8218Y92968D01*
X8308Y92891D01*
X8408Y92830D01*
X8518Y92785D01*
X8632Y92757D01*
X8750Y92748D01*
Y19300D01*
G37*
G36*
Y9300D02*X8683Y9341D01*
X8465Y9431D01*
X8235Y9486D01*
X8000Y9500D01*
X5000Y9493D01*
Y10507D01*
X8235Y10514D01*
X8465Y10569D01*
X8683Y10659D01*
X8750Y10700D01*
Y9300D01*
G37*
G36*
Y0D02*X5000D01*
Y507D01*
X8235Y514D01*
X8465Y569D01*
X8683Y659D01*
X8750Y700D01*
Y0D01*
G37*
G36*
X1250Y10700D02*X1317Y10659D01*
X1535Y10569D01*
X1765Y10514D01*
X2000Y10500D01*
X5000Y10507D01*
Y9493D01*
X1765Y9486D01*
X1535Y9431D01*
X1317Y9341D01*
X1250Y9300D01*
Y10700D01*
G37*
G36*
Y100000D02*X5000D01*
Y99500D01*
X3500D01*
X3382Y99493D01*
X3268Y99465D01*
X3158Y99420D01*
X3058Y99359D01*
X2968Y99282D01*
X2891Y99192D01*
X2830Y99092D01*
X2785Y98982D01*
X2757Y98868D01*
X2748Y98750D01*
X2757Y98632D01*
X2785Y98518D01*
X2830Y98408D01*
X2891Y98308D01*
X2968Y98218D01*
X3058Y98141D01*
X3158Y98080D01*
X3268Y98035D01*
X3382Y98007D01*
X3500Y98000D01*
X5000D01*
Y92000D01*
X3500D01*
X3382Y91993D01*
X3268Y91965D01*
X3158Y91920D01*
X3058Y91859D01*
X2968Y91782D01*
X2891Y91692D01*
X2830Y91592D01*
X2785Y91482D01*
X2757Y91368D01*
X2748Y91250D01*
X2757Y91132D01*
X2785Y91018D01*
X2830Y90908D01*
X2891Y90808D01*
X2968Y90718D01*
X3058Y90641D01*
X3158Y90580D01*
X3268Y90535D01*
X3382Y90507D01*
X3500Y90500D01*
X5000D01*
Y19493D01*
X1765Y19486D01*
X1535Y19431D01*
X1317Y19341D01*
X1250Y19300D01*
Y92748D01*
X1368Y92757D01*
X1482Y92785D01*
X1592Y92830D01*
X1692Y92891D01*
X1782Y92968D01*
X1859Y93058D01*
X1920Y93158D01*
X1965Y93268D01*
X1993Y93382D01*
X2000Y93500D01*
Y96500D01*
X1993Y96618D01*
X1965Y96732D01*
X1920Y96842D01*
X1859Y96942D01*
X1782Y97032D01*
X1692Y97109D01*
X1592Y97170D01*
X1482Y97215D01*
X1368Y97243D01*
X1250Y97252D01*
Y100000D01*
G37*
G36*
X5000Y0D02*X1250D01*
Y700D01*
X1317Y659D01*
X1535Y569D01*
X1765Y514D01*
X2000Y500D01*
X5000Y507D01*
Y0D01*
G37*
G36*
X1250D02*X0D01*
Y100000D01*
X1250D01*
Y97252D01*
X1132Y97243D01*
X1018Y97215D01*
X908Y97170D01*
X808Y97109D01*
X718Y97032D01*
X641Y96942D01*
X580Y96842D01*
X535Y96732D01*
X507Y96618D01*
X500Y96500D01*
Y93500D01*
X507Y93382D01*
X535Y93268D01*
X580Y93158D01*
X641Y93058D01*
X718Y92968D01*
X808Y92891D01*
X908Y92830D01*
X1018Y92785D01*
X1132Y92757D01*
X1250Y92748D01*
Y19300D01*
X1116Y19217D01*
X936Y19064D01*
X783Y18884D01*
X659Y18683D01*
X569Y18465D01*
X514Y18235D01*
X500Y18000D01*
X514Y11765D01*
X569Y11535D01*
X659Y11317D01*
X783Y11116D01*
X936Y10936D01*
X1116Y10783D01*
X1250Y10700D01*
Y9300D01*
X1116Y9217D01*
X936Y9064D01*
X783Y8884D01*
X659Y8683D01*
X569Y8465D01*
X514Y8235D01*
X500Y8000D01*
X514Y1765D01*
X569Y1535D01*
X659Y1317D01*
X783Y1116D01*
X936Y936D01*
X1116Y783D01*
X1250Y700D01*
Y0D01*
G37*
G54D27*X40000Y10000D02*X45000Y5000D01*
X35000D02*X36500Y6500D01*
X55000Y5000D02*X43500Y16500D01*
X40000Y42500D02*Y10000D01*
X36500Y6500D02*Y41000D01*
X35000Y42500D01*
X43500Y16500D02*Y41000D01*
X45000Y42500D01*
G54D26*G36*
X22000Y98000D02*Y92000D01*
X28000D01*
Y98000D01*
X22000D01*
G37*
G54D28*X35000Y95000D03*
X45000D03*
X55000D03*
G54D29*Y77500D03*
G54D26*G36*
X2000Y18000D02*Y12000D01*
X8000D01*
Y18000D01*
X2000D01*
G37*
G54D28*X15000Y15000D03*
X25000D03*
G54D29*X55000D03*
G54D26*G36*
X2000Y98000D02*Y92000D01*
X8000D01*
Y98000D01*
X2000D01*
G37*
G54D28*X15000Y95000D03*
G54D26*G36*
X2000Y8000D02*Y2000D01*
X8000D01*
Y8000D01*
X2000D01*
G37*
G54D28*X15000Y5000D03*
X25000D03*
X35000D03*
X45000D03*
X55000D03*
G54D30*X40000Y42500D03*
X35000D03*
G54D28*X55000Y57500D03*
X35000Y67500D03*
G54D30*X45000Y42500D03*
G54D31*G54D32*G54D31*G54D33*G54D34*G54D33*G54D34*G54D33*M02*
