G04 start of page 8 for group -4079 idx -4079 *
G04 Title: (unknown), topsilk *
G04 Creator: pcb 20110918 *
G04 CreationDate: Wed Sep 11 23:18:10 2013 UTC *
G04 For: mokus *
G04 Format: Gerber/RS-274X *
G04 PCB-Dimensions: 60000 100000 *
G04 PCB-Coordinate-Origin: lower left *
%MOIN*%
%FSLAX25Y25*%
%LNTOPSILK*%
%ADD53C,0.0080*%
%ADD52C,0.0100*%
%ADD51C,0.0200*%
G54D51*X24400Y86900D02*Y69100D01*
G54D52*Y86900D02*X20700Y89400D01*
X600D02*X20700D01*
X600D02*Y66600D01*
X20700D01*
X24400Y69100D01*
X28600Y88800D02*Y74900D01*
X41400D01*
Y88800D01*
X28600D01*
G54D51*X24400Y41900D02*Y24100D01*
G54D52*Y41900D02*X20700Y44400D01*
X600D02*X20700D01*
X600D02*Y21600D01*
X20700D01*
X24400Y24100D01*
X48900Y26100D02*Y12200D01*
X36100Y26100D02*X48900D01*
X36100D02*Y12200D01*
X48900D01*
X55000Y30600D02*Y15000D01*
Y77500D02*Y61900D01*
X49800D02*Y30600D01*
Y61900D02*X60200D01*
Y30600D01*
X49800D02*X60200D01*
X36100Y70300D02*Y56400D01*
X48900D01*
Y70300D01*
X36100D01*
X3800Y45900D02*X24500D01*
Y64200D02*Y45900D01*
X3800Y64200D02*X24500D01*
X3800D02*Y45900D01*
G54D53*X26700Y31400D02*X28000D01*
X26000Y32100D02*X26700Y31400D01*
X26000Y34700D02*Y32100D01*
Y34700D02*X26700Y35400D01*
X28000D01*
X29200Y34900D02*X29700Y35400D01*
X31200D01*
X31700Y34900D01*
Y33900D01*
X29200Y31400D02*X31700Y33900D01*
X29200Y31400D02*X31700D01*
X30200Y20900D02*Y17900D01*
Y20900D02*X30700Y21400D01*
X31700D01*
X32200Y20900D01*
Y18400D01*
X31200Y17400D02*X32200Y18400D01*
X30700Y17400D02*X31200D01*
X30200Y17900D02*X30700Y17400D01*
X31200Y18900D02*X32200Y17400D01*
X33400Y20600D02*X34200Y21400D01*
Y17400D01*
X33400D02*X34900D01*
X51900Y48800D02*X53900D01*
X54400Y48300D01*
Y47300D01*
X53900Y46800D02*X54400Y47300D01*
X52400Y46800D02*X53900D01*
X52400Y48800D02*Y44800D01*
X53200Y46800D02*X54400Y44800D01*
X55600Y46300D02*X57600Y48800D01*
X55600Y46300D02*X58100D01*
X57600Y48800D02*Y44800D01*
X25185Y62150D02*X27185D01*
X27685Y61650D01*
Y60650D01*
X27185Y60150D02*X27685Y60650D01*
X25685Y60150D02*X27185D01*
X25685Y62150D02*Y58150D01*
X26485Y60150D02*X27685Y58150D01*
X28885Y61350D02*X29685Y62150D01*
Y58150D01*
X28885D02*X30385D01*
X11800Y62700D02*Y59200D01*
X12300Y58700D01*
X13300D01*
X13800Y59200D01*
Y62700D02*Y59200D01*
X15000Y61900D02*X15800Y62700D01*
Y58700D01*
X15000D02*X16500D01*
X8700Y90300D02*X10000D01*
X8000Y91000D02*X8700Y90300D01*
X8000Y93600D02*Y91000D01*
Y93600D02*X8700Y94300D01*
X10000D01*
X11200Y93500D02*X12000Y94300D01*
Y90300D01*
X11200D02*X12700D01*
X26185Y70650D02*X28185D01*
X28685Y70150D01*
Y69150D01*
X28185Y68650D02*X28685Y69150D01*
X26685Y68650D02*X28185D01*
X26685Y70650D02*Y66650D01*
X27485Y68650D02*X28685Y66650D01*
X30385D02*X32385Y70650D01*
X29885D02*X32385D01*
X43200Y87400D02*Y84400D01*
Y87400D02*X43700Y87900D01*
X44700D01*
X45200Y87400D01*
Y84900D01*
X44200Y83900D02*X45200Y84900D01*
X43700Y83900D02*X44200D01*
X43200Y84400D02*X43700Y83900D01*
X44200Y85400D02*X45200Y83900D01*
X46400Y87400D02*X46900Y87900D01*
X47900D01*
X48400Y87400D01*
X47900Y83900D02*X48400Y84400D01*
X46900Y83900D02*X47900D01*
X46400Y84400D02*X46900Y83900D01*
Y86100D02*X47900D01*
X48400Y87400D02*Y86600D01*
Y85600D02*Y84400D01*
Y85600D02*X47900Y86100D01*
X48400Y86600D02*X47900Y86100D01*
X44700Y74900D02*Y71900D01*
Y74900D02*X45200Y75400D01*
X46200D01*
X46700Y74900D01*
Y72400D01*
X45700Y71400D02*X46700Y72400D01*
X45200Y71400D02*X45700D01*
X44700Y71900D02*X45200Y71400D01*
X45700Y72900D02*X46700Y71400D01*
X47900Y74900D02*X48400Y75400D01*
X49900D01*
X50400Y74900D01*
Y73900D01*
X47900Y71400D02*X50400Y73900D01*
X47900Y71400D02*X50400D01*
X28680Y48650D02*X30680D01*
X31180Y48150D01*
Y47150D01*
X30680Y46650D02*X31180Y47150D01*
X29180Y46650D02*X30680D01*
X29180Y48650D02*Y44650D01*
X29980Y46650D02*X31180Y44650D01*
X32380Y48150D02*X32880Y48650D01*
X34380D01*
X34880Y48150D01*
Y47150D01*
X32380Y44650D02*X34880Y47150D01*
X32380Y44650D02*X34880D01*
X28845Y54650D02*X30845D01*
X31345Y54150D01*
Y53150D01*
X30845Y52650D02*X31345Y53150D01*
X29345Y52650D02*X30845D01*
X29345Y54650D02*Y50650D01*
X30145Y52650D02*X31345Y50650D01*
X34045Y54650D02*X34545Y54150D01*
X33045Y54650D02*X34045D01*
X32545Y54150D02*X33045Y54650D01*
X32545Y54150D02*Y51150D01*
X33045Y50650D01*
X34045Y52850D02*X34545Y52350D01*
X32545Y52850D02*X34045D01*
X33045Y50650D02*X34045D01*
X34545Y51150D01*
Y52350D02*Y51150D01*
X35350Y40320D02*X37350D01*
X37850Y39820D01*
Y38820D01*
X37350Y38320D02*X37850Y38820D01*
X35850Y38320D02*X37350D01*
X35850Y40320D02*Y36320D01*
X36650Y38320D02*X37850Y36320D01*
X39050Y39820D02*X39550Y40320D01*
X40550D01*
X41050Y39820D01*
X40550Y36320D02*X41050Y36820D01*
X39550Y36320D02*X40550D01*
X39050Y36820D02*X39550Y36320D01*
Y38520D02*X40550D01*
X41050Y39820D02*Y39020D01*
Y38020D02*Y36820D01*
Y38020D02*X40550Y38520D01*
X41050Y39020D02*X40550Y38520D01*
X42685Y40150D02*X44685D01*
X45185Y39650D01*
Y38650D01*
X44685Y38150D02*X45185Y38650D01*
X43185Y38150D02*X44685D01*
X43185Y40150D02*Y36150D01*
X43985Y38150D02*X45185Y36150D01*
X46385Y40150D02*X48385D01*
X46385D02*Y38150D01*
X46885Y38650D01*
X47885D01*
X48385Y38150D01*
Y36650D01*
X47885Y36150D02*X48385Y36650D01*
X46885Y36150D02*X47885D01*
X46385Y36650D02*X46885Y36150D01*
M02*
