M48
INCH
T39C0.035
T38C0.020
T37C0.050
T36C0.038
%
T38
X004500Y004250
X004000Y004250
X003500Y004250
T39
X003500Y006750
X005500Y005750
T36
X001500Y001500
X002500Y001500
X000500Y009500
X001500Y009500
X002500Y009500
X001500Y000500
X002500Y000500
X003500Y000500
X004500Y000500
X005500Y000500
X000500Y000500
X003500Y009500
X004500Y009500
X005500Y009500
X000500Y001500
T37
X005500Y001500
X005500Y007750
M30
