G04 start of page 12 for group -3984 idx -3984 *
G04 Title: (unknown), fab *
G04 Creator: pcb 20110918 *
G04 CreationDate: Sun Sep 22 23:55:29 2013 UTC *
G04 For: mokus *
G04 Format: Gerber/RS-274X *
G04 PCB-Dimensions: 100000 140000 *
G04 PCB-Coordinate-Origin: lower left *
%MOIN*%
%FSLAX25Y25*%
%LNFAB*%
%ADD78C,0.0100*%
%ADD77C,0.0075*%
%ADD76C,0.0060*%
%ADD75R,0.0080X0.0080*%
G54D75*X27559Y22716D02*X30759D01*
X27559D02*Y19516D01*
X30759D01*
Y22716D02*Y19516D01*
X90059Y22716D02*X93259D01*
X90059D02*Y19516D01*
X93259D01*
Y22716D02*Y19516D01*
X13400Y152850D02*X16600D01*
X13400D02*Y149650D01*
X16600D01*
Y152850D02*Y149650D01*
G54D76*X135000Y153500D02*X136500Y150500D01*
X138000Y153500D01*
X136500Y150500D02*Y147500D01*
X139800Y150800D02*X142050D01*
X139800Y147500D02*X142800D01*
X139800Y153500D02*Y147500D01*
Y153500D02*X142800D01*
X147600D02*X148350Y152750D01*
X145350Y153500D02*X147600D01*
X144600Y152750D02*X145350Y153500D01*
X144600Y152750D02*Y151250D01*
X145350Y150500D01*
X147600D01*
X148350Y149750D01*
Y148250D01*
X147600Y147500D02*X148350Y148250D01*
X145350Y147500D02*X147600D01*
X144600Y148250D02*X145350Y147500D01*
X98000Y152750D02*X98750Y153500D01*
X101000D01*
X101750Y152750D01*
Y151250D01*
X98000Y147500D02*X101750Y151250D01*
X98000Y147500D02*X101750D01*
X45000Y148250D02*X45750Y147500D01*
X45000Y152750D02*Y148250D01*
Y152750D02*X45750Y153500D01*
X47250D01*
X48000Y152750D01*
Y148250D01*
X47250Y147500D02*X48000Y148250D01*
X45750Y147500D02*X47250D01*
X45000Y149000D02*X48000Y152000D01*
X49800Y147500D02*X50550D01*
X52350Y148250D02*X53100Y147500D01*
X52350Y152750D02*Y148250D01*
Y152750D02*X53100Y153500D01*
X54600D01*
X55350Y152750D01*
Y148250D01*
X54600Y147500D02*X55350Y148250D01*
X53100Y147500D02*X54600D01*
X52350Y149000D02*X55350Y152000D01*
X57150Y153500D02*X60150D01*
X57150D02*Y150500D01*
X57900Y151250D01*
X59400D01*
X60150Y150500D01*
Y148250D01*
X59400Y147500D02*X60150Y148250D01*
X57900Y147500D02*X59400D01*
X57150Y148250D02*X57900Y147500D01*
X61950Y148250D02*X62700Y147500D01*
X61950Y152750D02*Y148250D01*
Y152750D02*X62700Y153500D01*
X64200D01*
X64950Y152750D01*
Y148250D01*
X64200Y147500D02*X64950Y148250D01*
X62700Y147500D02*X64200D01*
X61950Y149000D02*X64950Y152000D01*
X73359Y8616D02*G75*G03X74959Y8616I800J0D01*G01*
G75*G03X73359Y8616I-800J0D01*G01*
X83359D02*G75*G03X84959Y8616I800J0D01*G01*
G75*G03X83359Y8616I-800J0D01*G01*
X93359D02*G75*G03X94959Y8616I800J0D01*G01*
G75*G03X93359Y8616I-800J0D01*G01*
X8359D02*G75*G03X9959Y8616I800J0D01*G01*
G75*G03X8359Y8616I-800J0D01*G01*
Y18616D02*G75*G03X9959Y18616I800J0D01*G01*
G75*G03X8359Y18616I-800J0D01*G01*
X18359Y8616D02*G75*G03X19959Y8616I800J0D01*G01*
G75*G03X18359Y8616I-800J0D01*G01*
X28359D02*G75*G03X29959Y8616I800J0D01*G01*
G75*G03X28359Y8616I-800J0D01*G01*
X38359D02*G75*G03X39959Y8616I800J0D01*G01*
G75*G03X38359Y8616I-800J0D01*G01*
X48359D02*G75*G03X49959Y8616I800J0D01*G01*
G75*G03X48359Y8616I-800J0D01*G01*
X93359Y46116D02*G75*G03X94959Y46116I800J0D01*G01*
G75*G03X93359Y46116I-800J0D01*G01*
Y36116D02*G75*G03X94959Y36116I800J0D01*G01*
G75*G03X93359Y36116I-800J0D01*G01*
X83359Y46116D02*G75*G03X84959Y46116I800J0D01*G01*
G75*G03X83359Y46116I-800J0D01*G01*
Y36116D02*G75*G03X84959Y36116I800J0D01*G01*
G75*G03X83359Y36116I-800J0D01*G01*
X73359Y46116D02*G75*G03X74959Y46116I800J0D01*G01*
G75*G03X73359Y46116I-800J0D01*G01*
Y36116D02*G75*G03X74959Y36116I800J0D01*G01*
G75*G03X73359Y36116I-800J0D01*G01*
X70910Y132329D02*G75*G03X72510Y132329I800J0D01*G01*
G75*G03X70910Y132329I-800J0D01*G01*
Y122329D02*G75*G03X72510Y122329I800J0D01*G01*
G75*G03X70910Y122329I-800J0D01*G01*
X80910Y132329D02*G75*G03X82510Y132329I800J0D01*G01*
G75*G03X80910Y132329I-800J0D01*G01*
Y122329D02*G75*G03X82510Y122329I800J0D01*G01*
G75*G03X80910Y122329I-800J0D01*G01*
X51148Y132329D02*G75*G03X52748Y132329I800J0D01*G01*
G75*G03X51148Y132329I-800J0D01*G01*
X61148D02*G75*G03X62748Y132329I800J0D01*G01*
G75*G03X61148Y132329I-800J0D01*G01*
X14200Y166250D02*G75*G03X15800Y166250I800J0D01*G01*
G75*G03X14200Y166250I-800J0D01*G01*
X135000Y168500D02*X136500Y165500D01*
X138000Y168500D01*
X136500Y165500D02*Y162500D01*
X139800Y165800D02*X142050D01*
X139800Y162500D02*X142800D01*
X139800Y168500D02*Y162500D01*
Y168500D02*X142800D01*
X147600D02*X148350Y167750D01*
X145350Y168500D02*X147600D01*
X144600Y167750D02*X145350Y168500D01*
X144600Y167750D02*Y166250D01*
X145350Y165500D01*
X147600D01*
X148350Y164750D01*
Y163250D01*
X147600Y162500D02*X148350Y163250D01*
X145350Y162500D02*X147600D01*
X144600Y163250D02*X145350Y162500D01*
X98000Y167750D02*X98750Y168500D01*
X101000D01*
X101750Y167750D01*
Y166250D01*
X98000Y162500D02*X101750Y166250D01*
X98000Y162500D02*X101750D01*
X103550Y167300D02*X104750Y168500D01*
Y162500D01*
X103550D02*X105800D01*
X45000Y163250D02*X45750Y162500D01*
X45000Y167750D02*Y163250D01*
Y167750D02*X45750Y168500D01*
X47250D01*
X48000Y167750D01*
Y163250D01*
X47250Y162500D02*X48000Y163250D01*
X45750Y162500D02*X47250D01*
X45000Y164000D02*X48000Y167000D01*
X49800Y162500D02*X50550D01*
X52350Y163250D02*X53100Y162500D01*
X52350Y167750D02*Y163250D01*
Y167750D02*X53100Y168500D01*
X54600D01*
X55350Y167750D01*
Y163250D01*
X54600Y162500D02*X55350Y163250D01*
X53100Y162500D02*X54600D01*
X52350Y164000D02*X55350Y167000D01*
X57150Y167750D02*X57900Y168500D01*
X59400D01*
X60150Y167750D01*
X59400Y162500D02*X60150Y163250D01*
X57900Y162500D02*X59400D01*
X57150Y163250D02*X57900Y162500D01*
Y165800D02*X59400D01*
X60150Y167750D02*Y166550D01*
Y165050D02*Y163250D01*
Y165050D02*X59400Y165800D01*
X60150Y166550D02*X59400Y165800D01*
X61950Y163250D02*X62700Y162500D01*
X61950Y164450D02*Y163250D01*
Y164450D02*X63000Y165500D01*
X63900D01*
X64950Y164450D01*
Y163250D01*
X64200Y162500D02*X64950Y163250D01*
X62700Y162500D02*X64200D01*
X61950Y166550D02*X63000Y165500D01*
X61950Y167750D02*Y166550D01*
Y167750D02*X62700Y168500D01*
X64200D01*
X64950Y167750D01*
Y166550D01*
X63900Y165500D02*X64950Y166550D01*
X16786Y79198D02*X19186Y76798D01*
X16786D02*X19186Y79198D01*
X29581D02*X31981Y76798D01*
X29581D02*X31981Y79198D01*
X57140Y61481D02*X59540Y59081D01*
X57140D02*X59540Y61481D01*
X65014Y22111D02*X67414Y19711D01*
X65014D02*X67414Y22111D01*
X13800Y182450D02*X16200Y180050D01*
X13800D02*X16200Y182450D01*
X135000Y183500D02*X136500Y180500D01*
X138000Y183500D01*
X136500Y180500D02*Y177500D01*
X139800Y180800D02*X142050D01*
X139800Y177500D02*X142800D01*
X139800Y183500D02*Y177500D01*
Y183500D02*X142800D01*
X147600D02*X148350Y182750D01*
X145350Y183500D02*X147600D01*
X144600Y182750D02*X145350Y183500D01*
X144600Y182750D02*Y181250D01*
X145350Y180500D01*
X147600D01*
X148350Y179750D01*
Y178250D01*
X147600Y177500D02*X148350Y178250D01*
X145350Y177500D02*X147600D01*
X144600Y178250D02*X145350Y177500D01*
X98000Y179750D02*X101000Y183500D01*
X98000Y179750D02*X101750D01*
X101000Y183500D02*Y177500D01*
X45000Y178250D02*X45750Y177500D01*
X45000Y182750D02*Y178250D01*
Y182750D02*X45750Y183500D01*
X47250D01*
X48000Y182750D01*
Y178250D01*
X47250Y177500D02*X48000Y178250D01*
X45750Y177500D02*X47250D01*
X45000Y179000D02*X48000Y182000D01*
X49800Y177500D02*X50550D01*
X52350Y178250D02*X53100Y177500D01*
X52350Y182750D02*Y178250D01*
Y182750D02*X53100Y183500D01*
X54600D01*
X55350Y182750D01*
Y178250D01*
X54600Y177500D02*X55350Y178250D01*
X53100Y177500D02*X54600D01*
X52350Y179000D02*X55350Y182000D01*
X57150Y182750D02*X57900Y183500D01*
X59400D01*
X60150Y182750D01*
X59400Y177500D02*X60150Y178250D01*
X57900Y177500D02*X59400D01*
X57150Y178250D02*X57900Y177500D01*
Y180800D02*X59400D01*
X60150Y182750D02*Y181550D01*
Y180050D02*Y178250D01*
Y180050D02*X59400Y180800D01*
X60150Y181550D02*X59400Y180800D01*
X61950Y183500D02*X64950D01*
X61950D02*Y180500D01*
X62700Y181250D01*
X64200D01*
X64950Y180500D01*
Y178250D01*
X64200Y177500D02*X64950Y178250D01*
X62700Y177500D02*X64200D01*
X61950Y178250D02*X62700Y177500D01*
X93759Y63616D02*Y60416D01*
X92159Y62016D02*X95359D01*
X7159Y63616D02*Y60416D01*
X5559Y62016D02*X8759D01*
X93759Y71516D02*Y68316D01*
X92159Y69916D02*X95359D01*
X7159Y71516D02*Y68316D01*
X5559Y69916D02*X8759D01*
X93759Y79416D02*Y76216D01*
X92159Y77816D02*X95359D01*
X7159Y79416D02*Y76216D01*
X5559Y77816D02*X8759D01*
X93759Y87316D02*Y84116D01*
X92159Y85716D02*X95359D01*
X7159Y87316D02*Y84116D01*
X5559Y85716D02*X8759D01*
X93759Y95216D02*Y92016D01*
X92159Y93616D02*X95359D01*
X7159Y95216D02*Y92016D01*
X5559Y93616D02*X8759D01*
X93759Y103116D02*Y99916D01*
X92159Y101516D02*X95359D01*
X7159Y103116D02*Y99916D01*
X5559Y101516D02*X8759D01*
X93759Y111016D02*Y107816D01*
X92159Y109416D02*X95359D01*
X7159Y111016D02*Y107816D01*
X5559Y109416D02*X8759D01*
X93759Y118916D02*Y115716D01*
X92159Y117316D02*X95359D01*
X7159Y118916D02*Y115716D01*
X5559Y117316D02*X8759D01*
X93759Y126816D02*Y123616D01*
X92159Y125216D02*X95359D01*
X7159Y126816D02*Y123616D01*
X5559Y125216D02*X8759D01*
X93759Y134716D02*Y131516D01*
X92159Y133116D02*X95359D01*
X7159Y134716D02*Y131516D01*
X5559Y133116D02*X8759D01*
X15000Y197850D02*Y194650D01*
X13400Y196250D02*X16600D01*
X135000Y198500D02*X136500Y195500D01*
X138000Y198500D01*
X136500Y195500D02*Y192500D01*
X139800Y195800D02*X142050D01*
X139800Y192500D02*X142800D01*
X139800Y198500D02*Y192500D01*
Y198500D02*X142800D01*
X147600D02*X148350Y197750D01*
X145350Y198500D02*X147600D01*
X144600Y197750D02*X145350Y198500D01*
X144600Y197750D02*Y196250D01*
X145350Y195500D01*
X147600D01*
X148350Y194750D01*
Y193250D01*
X147600Y192500D02*X148350Y193250D01*
X145350Y192500D02*X147600D01*
X144600Y193250D02*X145350Y192500D01*
X98000Y197750D02*X98750Y198500D01*
X101000D01*
X101750Y197750D01*
Y196250D01*
X98000Y192500D02*X101750Y196250D01*
X98000Y192500D02*X101750D01*
X103550Y193250D02*X104300Y192500D01*
X103550Y197750D02*Y193250D01*
Y197750D02*X104300Y198500D01*
X105800D01*
X106550Y197750D01*
Y193250D01*
X105800Y192500D02*X106550Y193250D01*
X104300Y192500D02*X105800D01*
X103550Y194000D02*X106550Y197000D01*
X45000Y193250D02*X45750Y192500D01*
X45000Y197750D02*Y193250D01*
Y197750D02*X45750Y198500D01*
X47250D01*
X48000Y197750D01*
Y193250D01*
X47250Y192500D02*X48000Y193250D01*
X45750Y192500D02*X47250D01*
X45000Y194000D02*X48000Y197000D01*
X49800Y192500D02*X50550D01*
X52350Y193250D02*X53100Y192500D01*
X52350Y197750D02*Y193250D01*
Y197750D02*X53100Y198500D01*
X54600D01*
X55350Y197750D01*
Y193250D01*
X54600Y192500D02*X55350Y193250D01*
X53100Y192500D02*X54600D01*
X52350Y194000D02*X55350Y197000D01*
X57150Y197750D02*X57900Y198500D01*
X59400D01*
X60150Y197750D01*
X59400Y192500D02*X60150Y193250D01*
X57900Y192500D02*X59400D01*
X57150Y193250D02*X57900Y192500D01*
Y195800D02*X59400D01*
X60150Y197750D02*Y196550D01*
Y195050D02*Y193250D01*
Y195050D02*X59400Y195800D01*
X60150Y196550D02*X59400Y195800D01*
X61950Y193250D02*X62700Y192500D01*
X61950Y197750D02*Y193250D01*
Y197750D02*X62700Y198500D01*
X64200D01*
X64950Y197750D01*
Y193250D01*
X64200Y192500D02*X64950Y193250D01*
X62700Y192500D02*X64200D01*
X61950Y194000D02*X64950Y197000D01*
X67198Y93746D02*Y92146D01*
Y93746D02*X68585Y94546D01*
X67198Y93746D02*X65811Y94546D01*
X50466Y76029D02*Y74429D01*
Y76029D02*X51853Y76829D01*
X50466Y76029D02*X49079Y76829D01*
X66214Y12053D02*Y10453D01*
Y12053D02*X67601Y12853D01*
X66214Y12053D02*X64827Y12853D01*
X17986Y90793D02*Y89193D01*
Y90793D02*X19373Y91593D01*
X17986Y90793D02*X16599Y91593D01*
X17986Y119336D02*Y117736D01*
Y119336D02*X19373Y120136D01*
X17986Y119336D02*X16599Y120136D01*
X83931Y107525D02*Y105925D01*
Y107525D02*X85318Y108325D01*
X83931Y107525D02*X82544Y108325D01*
X50466Y112447D02*Y110847D01*
Y112447D02*X51853Y113247D01*
X50466Y112447D02*X49079Y113247D01*
X34718Y112447D02*Y110847D01*
Y112447D02*X36105Y113247D01*
X34718Y112447D02*X33331Y113247D01*
X42592Y98667D02*Y97067D01*
Y98667D02*X43979Y99467D01*
X42592Y98667D02*X41205Y99467D01*
X28813Y28785D02*Y27185D01*
Y28785D02*X30200Y29585D01*
X28813Y28785D02*X27426Y29585D01*
X94159Y28616D02*Y27016D01*
Y28616D02*X95546Y29416D01*
X94159Y28616D02*X92772Y29416D01*
X87853Y127210D02*Y125610D01*
Y127210D02*X89240Y128010D01*
X87853Y127210D02*X86466Y128010D01*
X31751Y104573D02*Y102973D01*
Y104573D02*X33138Y105373D01*
X31751Y104573D02*X30364Y105373D01*
X35688Y101620D02*Y100020D01*
Y101620D02*X37075Y102420D01*
X35688Y101620D02*X34301Y102420D01*
X40609Y93746D02*Y92146D01*
Y93746D02*X41996Y94546D01*
X40609Y93746D02*X39222Y94546D01*
X35688Y93746D02*Y92146D01*
Y93746D02*X37075Y94546D01*
X35688Y93746D02*X34301Y94546D01*
X41948Y112329D02*Y110729D01*
Y112329D02*X43335Y113129D01*
X41948Y112329D02*X40561Y113129D01*
X57948Y120829D02*Y119229D01*
Y120829D02*X59335Y121629D01*
X57948Y120829D02*X56561Y121629D01*
X81948Y94829D02*Y93229D01*
Y94829D02*X83335Y95629D01*
X81948Y94829D02*X80561Y95629D01*
X57448Y89829D02*Y88229D01*
Y89829D02*X58835Y90629D01*
X57448Y89829D02*X56061Y90629D01*
X42448Y76829D02*Y75229D01*
Y76829D02*X43835Y77629D01*
X42448Y76829D02*X41061Y77629D01*
X55448Y72329D02*Y70729D01*
Y72329D02*X56835Y73129D01*
X55448Y72329D02*X54061Y73129D01*
X15000Y211250D02*Y209650D01*
Y211250D02*X16387Y212050D01*
X15000Y211250D02*X13613Y212050D01*
X135000Y213500D02*X136500Y210500D01*
X138000Y213500D01*
X136500Y210500D02*Y207500D01*
X139800Y210800D02*X142050D01*
X139800Y207500D02*X142800D01*
X139800Y213500D02*Y207500D01*
Y213500D02*X142800D01*
X147600D02*X148350Y212750D01*
X145350Y213500D02*X147600D01*
X144600Y212750D02*X145350Y213500D01*
X144600Y212750D02*Y211250D01*
X145350Y210500D01*
X147600D01*
X148350Y209750D01*
Y208250D01*
X147600Y207500D02*X148350Y208250D01*
X145350Y207500D02*X147600D01*
X144600Y208250D02*X145350Y207500D01*
X98000Y212750D02*X98750Y213500D01*
X101000D01*
X101750Y212750D01*
Y211250D01*
X98000Y207500D02*X101750Y211250D01*
X98000Y207500D02*X101750D01*
X103550Y212750D02*X104300Y213500D01*
X106550D01*
X107300Y212750D01*
Y211250D01*
X103550Y207500D02*X107300Y211250D01*
X103550Y207500D02*X107300D01*
X45000Y208250D02*X45750Y207500D01*
X45000Y212750D02*Y208250D01*
Y212750D02*X45750Y213500D01*
X47250D01*
X48000Y212750D01*
Y208250D01*
X47250Y207500D02*X48000Y208250D01*
X45750Y207500D02*X47250D01*
X45000Y209000D02*X48000Y212000D01*
X49800Y207500D02*X50550D01*
X52350Y208250D02*X53100Y207500D01*
X52350Y212750D02*Y208250D01*
Y212750D02*X53100Y213500D01*
X54600D01*
X55350Y212750D01*
Y208250D01*
X54600Y207500D02*X55350Y208250D01*
X53100Y207500D02*X54600D01*
X52350Y209000D02*X55350Y212000D01*
X57150Y212750D02*X57900Y213500D01*
X60150D01*
X60900Y212750D01*
Y211250D01*
X57150Y207500D02*X60900Y211250D01*
X57150Y207500D02*X60900D01*
X62700Y208250D02*X63450Y207500D01*
X62700Y212750D02*Y208250D01*
Y212750D02*X63450Y213500D01*
X64950D01*
X65700Y212750D01*
Y208250D01*
X64950Y207500D02*X65700Y208250D01*
X63450Y207500D02*X64950D01*
X62700Y209000D02*X65700Y212000D01*
X3000Y228500D02*X3750Y227750D01*
X750Y228500D02*X3000D01*
X0Y227750D02*X750Y228500D01*
X0Y227750D02*Y226250D01*
X750Y225500D01*
X3000D01*
X3750Y224750D01*
Y223250D01*
X3000Y222500D02*X3750Y223250D01*
X750Y222500D02*X3000D01*
X0Y223250D02*X750Y222500D01*
X5550Y225500D02*Y223250D01*
X6300Y222500D01*
X8550Y225500D02*Y221000D01*
X7800Y220250D02*X8550Y221000D01*
X6300Y220250D02*X7800D01*
X5550Y221000D02*X6300Y220250D01*
Y222500D02*X7800D01*
X8550Y223250D01*
X11100Y224750D02*Y222500D01*
Y224750D02*X11850Y225500D01*
X12600D01*
X13350Y224750D01*
Y222500D01*
Y224750D02*X14100Y225500D01*
X14850D01*
X15600Y224750D01*
Y222500D01*
X10350Y225500D02*X11100Y224750D01*
X17400Y228500D02*Y222500D01*
Y223250D02*X18150Y222500D01*
X19650D01*
X20400Y223250D01*
Y224750D02*Y223250D01*
X19650Y225500D02*X20400Y224750D01*
X18150Y225500D02*X19650D01*
X17400Y224750D02*X18150Y225500D01*
X22200Y224750D02*Y223250D01*
Y224750D02*X22950Y225500D01*
X24450D01*
X25200Y224750D01*
Y223250D01*
X24450Y222500D02*X25200Y223250D01*
X22950Y222500D02*X24450D01*
X22200Y223250D02*X22950Y222500D01*
X27000Y228500D02*Y223250D01*
X27750Y222500D01*
X0Y219250D02*X29250D01*
X41750Y228500D02*Y222500D01*
X43700Y228500D02*X44750Y227450D01*
Y223550D01*
X43700Y222500D02*X44750Y223550D01*
X41000Y222500D02*X43700D01*
X41000Y228500D02*X43700D01*
G54D77*X46550Y227000D02*Y226850D01*
G54D76*Y224750D02*Y222500D01*
X50300Y225500D02*X51050Y224750D01*
X48800Y225500D02*X50300D01*
X48050Y224750D02*X48800Y225500D01*
X48050Y224750D02*Y223250D01*
X48800Y222500D01*
X51050Y225500D02*Y223250D01*
X51800Y222500D01*
X48800D02*X50300D01*
X51050Y223250D01*
X54350Y224750D02*Y222500D01*
Y224750D02*X55100Y225500D01*
X55850D01*
X56600Y224750D01*
Y222500D01*
Y224750D02*X57350Y225500D01*
X58100D01*
X58850Y224750D01*
Y222500D01*
X53600Y225500D02*X54350Y224750D01*
X60650Y222500D02*X61400D01*
X65900Y223250D02*X66650Y222500D01*
X65900Y227750D02*X66650Y228500D01*
X65900Y227750D02*Y223250D01*
X68450Y228500D02*X69950D01*
X69200D02*Y222500D01*
X68450D02*X69950D01*
X72500Y224750D02*Y222500D01*
Y224750D02*X73250Y225500D01*
X74000D01*
X74750Y224750D01*
Y222500D01*
X71750Y225500D02*X72500Y224750D01*
X77300Y225500D02*X79550D01*
X76550Y224750D02*X77300Y225500D01*
X76550Y224750D02*Y223250D01*
X77300Y222500D01*
X79550D01*
X81350Y228500D02*Y222500D01*
Y224750D02*X82100Y225500D01*
X83600D01*
X84350Y224750D01*
Y222500D01*
X86150Y228500D02*X86900Y227750D01*
Y223250D01*
X86150Y222500D02*X86900Y223250D01*
X41000Y219250D02*X88700D01*
X96050Y222500D02*X98000D01*
X95000Y223550D02*X96050Y222500D01*
X95000Y227450D02*Y223550D01*
Y227450D02*X96050Y228500D01*
X98000D01*
X99800Y224750D02*Y223250D01*
Y224750D02*X100550Y225500D01*
X102050D01*
X102800Y224750D01*
Y223250D01*
X102050Y222500D02*X102800Y223250D01*
X100550Y222500D02*X102050D01*
X99800Y223250D02*X100550Y222500D01*
X104600Y225500D02*Y223250D01*
X105350Y222500D01*
X106850D01*
X107600Y223250D01*
Y225500D02*Y223250D01*
X110150Y224750D02*Y222500D01*
Y224750D02*X110900Y225500D01*
X111650D01*
X112400Y224750D01*
Y222500D01*
X109400Y225500D02*X110150Y224750D01*
X114950Y228500D02*Y223250D01*
X115700Y222500D01*
X114200Y226250D02*X115700D01*
X95000Y219250D02*X117200D01*
X130750Y228500D02*Y222500D01*
X130000Y228500D02*X133000D01*
X133750Y227750D01*
Y226250D01*
X133000Y225500D02*X133750Y226250D01*
X130750Y225500D02*X133000D01*
X135550Y228500D02*Y223250D01*
X136300Y222500D01*
X140050Y225500D02*X140800Y224750D01*
X138550Y225500D02*X140050D01*
X137800Y224750D02*X138550Y225500D01*
X137800Y224750D02*Y223250D01*
X138550Y222500D01*
X140800Y225500D02*Y223250D01*
X141550Y222500D01*
X138550D02*X140050D01*
X140800Y223250D01*
X144100Y228500D02*Y223250D01*
X144850Y222500D01*
X143350Y226250D02*X144850D01*
X147100Y222500D02*X149350D01*
X146350Y223250D02*X147100Y222500D01*
X146350Y224750D02*Y223250D01*
Y224750D02*X147100Y225500D01*
X148600D01*
X149350Y224750D01*
X146350Y224000D02*X149350D01*
Y224750D02*Y224000D01*
X154150Y228500D02*Y222500D01*
X153400D02*X154150Y223250D01*
X151900Y222500D02*X153400D01*
X151150Y223250D02*X151900Y222500D01*
X151150Y224750D02*Y223250D01*
Y224750D02*X151900Y225500D01*
X153400D01*
X154150Y224750D01*
X157450Y225500D02*Y224750D01*
Y223250D02*Y222500D01*
X155950Y227750D02*Y227000D01*
Y227750D02*X156700Y228500D01*
X158200D01*
X158950Y227750D01*
Y227000D01*
X157450Y225500D02*X158950Y227000D01*
X130000Y219250D02*X160750D01*
X0Y243500D02*X3000D01*
X1500D02*Y237500D01*
X4800Y243500D02*Y237500D01*
Y239750D02*X5550Y240500D01*
X7050D01*
X7800Y239750D01*
Y237500D01*
X10350D02*X12600D01*
X9600Y238250D02*X10350Y237500D01*
X9600Y239750D02*Y238250D01*
Y239750D02*X10350Y240500D01*
X11850D01*
X12600Y239750D01*
X9600Y239000D02*X12600D01*
Y239750D02*Y239000D01*
X15150Y239750D02*Y237500D01*
Y239750D02*X15900Y240500D01*
X17400D01*
X14400D02*X15150Y239750D01*
X19950Y237500D02*X22200D01*
X19200Y238250D02*X19950Y237500D01*
X19200Y239750D02*Y238250D01*
Y239750D02*X19950Y240500D01*
X21450D01*
X22200Y239750D01*
X19200Y239000D02*X22200D01*
Y239750D02*Y239000D01*
X28950Y240500D02*X29700Y239750D01*
X27450Y240500D02*X28950D01*
X26700Y239750D02*X27450Y240500D01*
X26700Y239750D02*Y238250D01*
X27450Y237500D01*
X29700Y240500D02*Y238250D01*
X30450Y237500D01*
X27450D02*X28950D01*
X29700Y238250D01*
X33000Y239750D02*Y237500D01*
Y239750D02*X33750Y240500D01*
X35250D01*
X32250D02*X33000Y239750D01*
X37800Y237500D02*X40050D01*
X37050Y238250D02*X37800Y237500D01*
X37050Y239750D02*Y238250D01*
Y239750D02*X37800Y240500D01*
X39300D01*
X40050Y239750D01*
X37050Y239000D02*X40050D01*
Y239750D02*Y239000D01*
X44550Y243500D02*X47550D01*
X44550D02*Y240500D01*
X45300Y241250D01*
X46800D01*
X47550Y240500D01*
Y238250D01*
X46800Y237500D02*X47550Y238250D01*
X45300Y237500D02*X46800D01*
X44550Y238250D02*X45300Y237500D01*
X55050Y243500D02*Y237500D01*
X54300D02*X55050Y238250D01*
X52800Y237500D02*X54300D01*
X52050Y238250D02*X52800Y237500D01*
X52050Y239750D02*Y238250D01*
Y239750D02*X52800Y240500D01*
X54300D01*
X55050Y239750D01*
G54D77*X56850Y242000D02*Y241850D01*
G54D76*Y239750D02*Y237500D01*
X59100Y242750D02*Y237500D01*
Y242750D02*X59850Y243500D01*
X60600D01*
X58350Y240500D02*X59850D01*
X62850Y242750D02*Y237500D01*
Y242750D02*X63600Y243500D01*
X64350D01*
X62100Y240500D02*X63600D01*
X66600Y237500D02*X68850D01*
X65850Y238250D02*X66600Y237500D01*
X65850Y239750D02*Y238250D01*
Y239750D02*X66600Y240500D01*
X68100D01*
X68850Y239750D01*
X65850Y239000D02*X68850D01*
Y239750D02*Y239000D01*
X71400Y239750D02*Y237500D01*
Y239750D02*X72150Y240500D01*
X73650D01*
X70650D02*X71400Y239750D01*
X76200Y237500D02*X78450D01*
X75450Y238250D02*X76200Y237500D01*
X75450Y239750D02*Y238250D01*
Y239750D02*X76200Y240500D01*
X77700D01*
X78450Y239750D01*
X75450Y239000D02*X78450D01*
Y239750D02*Y239000D01*
X81000Y239750D02*Y237500D01*
Y239750D02*X81750Y240500D01*
X82500D01*
X83250Y239750D01*
Y237500D01*
X80250Y240500D02*X81000Y239750D01*
X85800Y243500D02*Y238250D01*
X86550Y237500D01*
X85050Y241250D02*X86550D01*
X93750Y243500D02*Y237500D01*
X93000D02*X93750Y238250D01*
X91500Y237500D02*X93000D01*
X90750Y238250D02*X91500Y237500D01*
X90750Y239750D02*Y238250D01*
Y239750D02*X91500Y240500D01*
X93000D01*
X93750Y239750D01*
X96300D02*Y237500D01*
Y239750D02*X97050Y240500D01*
X98550D01*
X95550D02*X96300Y239750D01*
G54D77*X100350Y242000D02*Y241850D01*
G54D76*Y239750D02*Y237500D01*
X101850Y243500D02*Y238250D01*
X102600Y237500D01*
X104100Y243500D02*Y238250D01*
X104850Y237500D01*
X109800D02*X112050D01*
X112800Y238250D01*
X112050Y239000D02*X112800Y238250D01*
X109800Y239000D02*X112050D01*
X109050Y239750D02*X109800Y239000D01*
X109050Y239750D02*X109800Y240500D01*
X112050D01*
X112800Y239750D01*
X109050Y238250D02*X109800Y237500D01*
G54D77*X114600Y242000D02*Y241850D01*
G54D76*Y239750D02*Y237500D01*
X116100Y240500D02*X119100D01*
X116100Y237500D02*X119100Y240500D01*
X116100Y237500D02*X119100D01*
X121650D02*X123900D01*
X120900Y238250D02*X121650Y237500D01*
X120900Y239750D02*Y238250D01*
Y239750D02*X121650Y240500D01*
X123150D01*
X123900Y239750D01*
X120900Y239000D02*X123900D01*
Y239750D02*Y239000D01*
X126450Y237500D02*X128700D01*
X129450Y238250D01*
X128700Y239000D02*X129450Y238250D01*
X126450Y239000D02*X128700D01*
X125700Y239750D02*X126450Y239000D01*
X125700Y239750D02*X126450Y240500D01*
X128700D01*
X129450Y239750D01*
X125700Y238250D02*X126450Y237500D01*
X133950Y240500D02*Y238250D01*
X134700Y237500D01*
X136200D01*
X136950Y238250D01*
Y240500D02*Y238250D01*
X139500Y237500D02*X141750D01*
X142500Y238250D01*
X141750Y239000D02*X142500Y238250D01*
X139500Y239000D02*X141750D01*
X138750Y239750D02*X139500Y239000D01*
X138750Y239750D02*X139500Y240500D01*
X141750D01*
X142500Y239750D01*
X138750Y238250D02*X139500Y237500D01*
X145050D02*X147300D01*
X144300Y238250D02*X145050Y237500D01*
X144300Y239750D02*Y238250D01*
Y239750D02*X145050Y240500D01*
X146550D01*
X147300Y239750D01*
X144300Y239000D02*X147300D01*
Y239750D02*Y239000D01*
X152100Y243500D02*Y237500D01*
X151350D02*X152100Y238250D01*
X149850Y237500D02*X151350D01*
X149100Y238250D02*X149850Y237500D01*
X149100Y239750D02*Y238250D01*
Y239750D02*X149850Y240500D01*
X151350D01*
X152100Y239750D01*
G54D77*X156600Y242000D02*Y241850D01*
G54D76*Y239750D02*Y237500D01*
X158850Y239750D02*Y237500D01*
Y239750D02*X159600Y240500D01*
X160350D01*
X161100Y239750D01*
Y237500D01*
X158100Y240500D02*X158850Y239750D01*
X166350Y243500D02*Y238250D01*
X167100Y237500D01*
X165600Y241250D02*X167100D01*
X168600Y243500D02*Y237500D01*
Y239750D02*X169350Y240500D01*
X170850D01*
X171600Y239750D01*
Y237500D01*
G54D77*X173400Y242000D02*Y241850D01*
G54D76*Y239750D02*Y237500D01*
X175650D02*X177900D01*
X178650Y238250D01*
X177900Y239000D02*X178650Y238250D01*
X175650Y239000D02*X177900D01*
X174900Y239750D02*X175650Y239000D01*
X174900Y239750D02*X175650Y240500D01*
X177900D01*
X178650Y239750D01*
X174900Y238250D02*X175650Y237500D01*
X183150Y243500D02*Y238250D01*
X183900Y237500D01*
X187650Y240500D02*X188400Y239750D01*
X186150Y240500D02*X187650D01*
X185400Y239750D02*X186150Y240500D01*
X185400Y239750D02*Y238250D01*
X186150Y237500D01*
X188400Y240500D02*Y238250D01*
X189150Y237500D01*
X186150D02*X187650D01*
X188400Y238250D01*
X190950Y240500D02*Y238250D01*
X191700Y237500D01*
X193950Y240500D02*Y236000D01*
X193200Y235250D02*X193950Y236000D01*
X191700Y235250D02*X193200D01*
X190950Y236000D02*X191700Y235250D01*
Y237500D02*X193200D01*
X193950Y238250D01*
X195750Y239750D02*Y238250D01*
Y239750D02*X196500Y240500D01*
X198000D01*
X198750Y239750D01*
Y238250D01*
X198000Y237500D02*X198750Y238250D01*
X196500Y237500D02*X198000D01*
X195750Y238250D02*X196500Y237500D01*
X200550Y240500D02*Y238250D01*
X201300Y237500D01*
X202800D01*
X203550Y238250D01*
Y240500D02*Y238250D01*
X206100Y243500D02*Y238250D01*
X206850Y237500D01*
X205350Y241250D02*X206850D01*
X208350Y236000D02*X209850Y237500D01*
X216600Y243500D02*X217350Y242750D01*
X215100Y243500D02*X216600D01*
X214350Y242750D02*X215100Y243500D01*
X214350Y242750D02*Y238250D01*
X215100Y237500D01*
X216600Y240800D02*X217350Y240050D01*
X214350Y240800D02*X216600D01*
X215100Y237500D02*X216600D01*
X217350Y238250D01*
Y240050D02*Y238250D01*
X219900Y237500D02*X222150Y240500D01*
Y242750D02*Y240500D01*
X221400Y243500D02*X222150Y242750D01*
X219900Y243500D02*X221400D01*
X219150Y242750D02*X219900Y243500D01*
X219150Y242750D02*Y241250D01*
X219900Y240500D01*
X222150D01*
X226650Y243500D02*Y237500D01*
Y239750D02*X227400Y240500D01*
X228900D01*
X229650Y239750D01*
Y237500D01*
X231450Y239750D02*Y238250D01*
Y239750D02*X232200Y240500D01*
X233700D01*
X234450Y239750D01*
Y238250D01*
X233700Y237500D02*X234450Y238250D01*
X232200Y237500D02*X233700D01*
X231450Y238250D02*X232200Y237500D01*
X236250Y243500D02*Y238250D01*
X237000Y237500D01*
X239250D02*X241500D01*
X238500Y238250D02*X239250Y237500D01*
X238500Y239750D02*Y238250D01*
Y239750D02*X239250Y240500D01*
X240750D01*
X241500Y239750D01*
X238500Y239000D02*X241500D01*
Y239750D02*Y239000D01*
X244050Y237500D02*X246300D01*
X247050Y238250D01*
X246300Y239000D02*X247050Y238250D01*
X244050Y239000D02*X246300D01*
X243300Y239750D02*X244050Y239000D01*
X243300Y239750D02*X244050Y240500D01*
X246300D01*
X247050Y239750D01*
X243300Y238250D02*X244050Y237500D01*
X252300Y243500D02*Y238250D01*
X253050Y237500D01*
X251550Y241250D02*X253050D01*
X254550Y239750D02*Y238250D01*
Y239750D02*X255300Y240500D01*
X256800D01*
X257550Y239750D01*
Y238250D01*
X256800Y237500D02*X257550Y238250D01*
X255300Y237500D02*X256800D01*
X254550Y238250D02*X255300Y237500D01*
X260100Y243500D02*Y238250D01*
X260850Y237500D01*
X259350Y241250D02*X260850D01*
X264600Y240500D02*X265350Y239750D01*
X263100Y240500D02*X264600D01*
X262350Y239750D02*X263100Y240500D01*
X262350Y239750D02*Y238250D01*
X263100Y237500D01*
X265350Y240500D02*Y238250D01*
X266100Y237500D01*
X263100D02*X264600D01*
X265350Y238250D01*
X267900Y243500D02*Y238250D01*
X268650Y237500D01*
G54D78*X1659Y6116D02*Y136116D01*
X4159Y138616D02*X96659D01*
X99159Y136116D02*Y6116D01*
X96659Y3616D02*X4159D01*
X1659Y136116D02*G75*G02X4159Y138616I2500J0D01*G01*
X96659D02*G75*G02X99159Y136116I0J-2500D01*G01*
X96659Y3616D02*G75*G03X99159Y6116I0J2500D01*G01*
X4159Y3616D02*G75*G02X1659Y6116I0J2500D01*G01*
G54D76*X0Y-9500D02*X3000D01*
X3750Y-8750D01*
Y-6950D02*Y-8750D01*
X3000Y-6200D02*X3750Y-6950D01*
X750Y-6200D02*X3000D01*
X750Y-3500D02*Y-9500D01*
X0Y-3500D02*X3000D01*
X3750Y-4250D01*
Y-5450D01*
X3000Y-6200D02*X3750Y-5450D01*
X5550Y-7250D02*Y-8750D01*
Y-7250D02*X6300Y-6500D01*
X7800D01*
X8550Y-7250D01*
Y-8750D01*
X7800Y-9500D02*X8550Y-8750D01*
X6300Y-9500D02*X7800D01*
X5550Y-8750D02*X6300Y-9500D01*
X12600Y-6500D02*X13350Y-7250D01*
X11100Y-6500D02*X12600D01*
X10350Y-7250D02*X11100Y-6500D01*
X10350Y-7250D02*Y-8750D01*
X11100Y-9500D01*
X13350Y-6500D02*Y-8750D01*
X14100Y-9500D01*
X11100D02*X12600D01*
X13350Y-8750D01*
X16650Y-7250D02*Y-9500D01*
Y-7250D02*X17400Y-6500D01*
X18900D01*
X15900D02*X16650Y-7250D01*
X23700Y-3500D02*Y-9500D01*
X22950D02*X23700Y-8750D01*
X21450Y-9500D02*X22950D01*
X20700Y-8750D02*X21450Y-9500D01*
X20700Y-7250D02*Y-8750D01*
Y-7250D02*X21450Y-6500D01*
X22950D01*
X23700Y-7250D01*
X28200D02*Y-8750D01*
Y-7250D02*X28950Y-6500D01*
X30450D01*
X31200Y-7250D01*
Y-8750D01*
X30450Y-9500D02*X31200Y-8750D01*
X28950Y-9500D02*X30450D01*
X28200Y-8750D02*X28950Y-9500D01*
X33000Y-6500D02*Y-8750D01*
X33750Y-9500D01*
X35250D01*
X36000Y-8750D01*
Y-6500D02*Y-8750D01*
X38550Y-3500D02*Y-8750D01*
X39300Y-9500D01*
X37800Y-5750D02*X39300D01*
X40800Y-3500D02*Y-8750D01*
X41550Y-9500D01*
G54D77*X43050Y-5000D02*Y-5150D01*
G54D76*Y-7250D02*Y-9500D01*
X45300Y-7250D02*Y-9500D01*
Y-7250D02*X46050Y-6500D01*
X46800D01*
X47550Y-7250D01*
Y-9500D01*
X44550Y-6500D02*X45300Y-7250D01*
X50100Y-9500D02*X52350D01*
X49350Y-8750D02*X50100Y-9500D01*
X49350Y-7250D02*Y-8750D01*
Y-7250D02*X50100Y-6500D01*
X51600D01*
X52350Y-7250D01*
X49350Y-8000D02*X52350D01*
Y-7250D02*Y-8000D01*
G54D77*X56850Y-5000D02*Y-5150D01*
G54D76*Y-7250D02*Y-9500D01*
X59100D02*X61350D01*
X62100Y-8750D01*
X61350Y-8000D02*X62100Y-8750D01*
X59100Y-8000D02*X61350D01*
X58350Y-7250D02*X59100Y-8000D01*
X58350Y-7250D02*X59100Y-6500D01*
X61350D01*
X62100Y-7250D01*
X58350Y-8750D02*X59100Y-9500D01*
X67350Y-3500D02*Y-8750D01*
X68100Y-9500D01*
X66600Y-5750D02*X68100D01*
X69600Y-3500D02*Y-9500D01*
Y-7250D02*X70350Y-6500D01*
X71850D01*
X72600Y-7250D01*
Y-9500D01*
X75150D02*X77400D01*
X74400Y-8750D02*X75150Y-9500D01*
X74400Y-7250D02*Y-8750D01*
Y-7250D02*X75150Y-6500D01*
X76650D01*
X77400Y-7250D01*
X74400Y-8000D02*X77400D01*
Y-7250D02*Y-8000D01*
X82650Y-6500D02*X84900D01*
X81900Y-7250D02*X82650Y-6500D01*
X81900Y-7250D02*Y-8750D01*
X82650Y-9500D01*
X84900D01*
X87450D02*X89700D01*
X86700Y-8750D02*X87450Y-9500D01*
X86700Y-7250D02*Y-8750D01*
Y-7250D02*X87450Y-6500D01*
X88950D01*
X89700Y-7250D01*
X86700Y-8000D02*X89700D01*
Y-7250D02*Y-8000D01*
X92250Y-7250D02*Y-9500D01*
Y-7250D02*X93000Y-6500D01*
X93750D01*
X94500Y-7250D01*
Y-9500D01*
X91500Y-6500D02*X92250Y-7250D01*
X97050Y-3500D02*Y-8750D01*
X97800Y-9500D01*
X96300Y-5750D02*X97800D01*
X100050Y-9500D02*X102300D01*
X99300Y-8750D02*X100050Y-9500D01*
X99300Y-7250D02*Y-8750D01*
Y-7250D02*X100050Y-6500D01*
X101550D01*
X102300Y-7250D01*
X99300Y-8000D02*X102300D01*
Y-7250D02*Y-8000D01*
X104850Y-7250D02*Y-9500D01*
Y-7250D02*X105600Y-6500D01*
X107100D01*
X104100D02*X104850Y-7250D01*
X108900Y-3500D02*Y-8750D01*
X109650Y-9500D01*
G54D77*X111150Y-5000D02*Y-5150D01*
G54D76*Y-7250D02*Y-9500D01*
X113400Y-7250D02*Y-9500D01*
Y-7250D02*X114150Y-6500D01*
X114900D01*
X115650Y-7250D01*
Y-9500D01*
X112650Y-6500D02*X113400Y-7250D01*
X118200Y-9500D02*X120450D01*
X117450Y-8750D02*X118200Y-9500D01*
X117450Y-7250D02*Y-8750D01*
Y-7250D02*X118200Y-6500D01*
X119700D01*
X120450Y-7250D01*
X117450Y-8000D02*X120450D01*
Y-7250D02*Y-8000D01*
X124950Y-7250D02*Y-8750D01*
Y-7250D02*X125700Y-6500D01*
X127200D01*
X127950Y-7250D01*
Y-8750D01*
X127200Y-9500D02*X127950Y-8750D01*
X125700Y-9500D02*X127200D01*
X124950Y-8750D02*X125700Y-9500D01*
X130500Y-4250D02*Y-9500D01*
Y-4250D02*X131250Y-3500D01*
X132000D01*
X129750Y-6500D02*X131250D01*
X136950Y-3500D02*Y-8750D01*
X137700Y-9500D01*
X136200Y-5750D02*X137700D01*
X139200Y-3500D02*Y-9500D01*
Y-7250D02*X139950Y-6500D01*
X141450D01*
X142200Y-7250D01*
Y-9500D01*
G54D77*X144000Y-5000D02*Y-5150D01*
G54D76*Y-7250D02*Y-9500D01*
X146250D02*X148500D01*
X149250Y-8750D01*
X148500Y-8000D02*X149250Y-8750D01*
X146250Y-8000D02*X148500D01*
X145500Y-7250D02*X146250Y-8000D01*
X145500Y-7250D02*X146250Y-6500D01*
X148500D01*
X149250Y-7250D01*
X145500Y-8750D02*X146250Y-9500D01*
X154500Y-7250D02*Y-11750D01*
X153750Y-6500D02*X154500Y-7250D01*
X155250Y-6500D01*
X156750D01*
X157500Y-7250D01*
Y-8750D01*
X156750Y-9500D02*X157500Y-8750D01*
X155250Y-9500D02*X156750D01*
X154500Y-8750D02*X155250Y-9500D01*
X161550Y-6500D02*X162300Y-7250D01*
X160050Y-6500D02*X161550D01*
X159300Y-7250D02*X160050Y-6500D01*
X159300Y-7250D02*Y-8750D01*
X160050Y-9500D01*
X162300Y-6500D02*Y-8750D01*
X163050Y-9500D01*
X160050D02*X161550D01*
X162300Y-8750D01*
X165600Y-3500D02*Y-8750D01*
X166350Y-9500D01*
X164850Y-5750D02*X166350D01*
X167850Y-3500D02*Y-9500D01*
Y-7250D02*X168600Y-6500D01*
X170100D01*
X170850Y-7250D01*
Y-9500D01*
X200750Y168500D02*Y162500D01*
X202700Y168500D02*X203750Y167450D01*
Y163550D01*
X202700Y162500D02*X203750Y163550D01*
X200000Y162500D02*X202700D01*
X200000Y168500D02*X202700D01*
X207800Y165500D02*X208550Y164750D01*
X206300Y165500D02*X207800D01*
X205550Y164750D02*X206300Y165500D01*
X205550Y164750D02*Y163250D01*
X206300Y162500D01*
X208550Y165500D02*Y163250D01*
X209300Y162500D01*
X206300D02*X207800D01*
X208550Y163250D01*
X211850Y168500D02*Y163250D01*
X212600Y162500D01*
X211100Y166250D02*X212600D01*
X214850Y162500D02*X217100D01*
X214100Y163250D02*X214850Y162500D01*
X214100Y164750D02*Y163250D01*
Y164750D02*X214850Y165500D01*
X216350D01*
X217100Y164750D01*
X214100Y164000D02*X217100D01*
Y164750D02*Y164000D01*
X218900Y166250D02*X219650D01*
X218900Y164750D02*X219650D01*
X227150Y168500D02*X227900Y167750D01*
X224900Y168500D02*X227150D01*
X224150Y167750D02*X224900Y168500D01*
X224150Y167750D02*Y166250D01*
X224900Y165500D01*
X227150D01*
X227900Y164750D01*
Y163250D01*
X227150Y162500D02*X227900Y163250D01*
X224900Y162500D02*X227150D01*
X224150Y163250D02*X224900Y162500D01*
X229700Y165500D02*Y163250D01*
X230450Y162500D01*
X231950D01*
X232700Y163250D01*
Y165500D02*Y163250D01*
X235250Y164750D02*Y162500D01*
Y164750D02*X236000Y165500D01*
X236750D01*
X237500Y164750D01*
Y162500D01*
X234500Y165500D02*X235250Y164750D01*
X245000Y168500D02*X245750Y167750D01*
X242750Y168500D02*X245000D01*
X242000Y167750D02*X242750Y168500D01*
X242000Y167750D02*Y166250D01*
X242750Y165500D01*
X245000D01*
X245750Y164750D01*
Y163250D01*
X245000Y162500D02*X245750Y163250D01*
X242750Y162500D02*X245000D01*
X242000Y163250D02*X242750Y162500D01*
X248300D02*X250550D01*
X247550Y163250D02*X248300Y162500D01*
X247550Y164750D02*Y163250D01*
Y164750D02*X248300Y165500D01*
X249800D01*
X250550Y164750D01*
X247550Y164000D02*X250550D01*
Y164750D02*Y164000D01*
X253100Y164750D02*Y160250D01*
X252350Y165500D02*X253100Y164750D01*
X253850Y165500D01*
X255350D01*
X256100Y164750D01*
Y163250D01*
X255350Y162500D02*X256100Y163250D01*
X253850Y162500D02*X255350D01*
X253100Y163250D02*X253850Y162500D01*
X260600Y167750D02*X261350Y168500D01*
X263600D01*
X264350Y167750D01*
Y166250D01*
X260600Y162500D02*X264350Y166250D01*
X260600Y162500D02*X264350D01*
X266150Y167750D02*X266900Y168500D01*
X269150D01*
X269900Y167750D01*
Y166250D01*
X266150Y162500D02*X269900Y166250D01*
X266150Y162500D02*X269900D01*
X274400Y167750D02*X275150Y168500D01*
X277400D01*
X278150Y167750D01*
Y166250D01*
X274400Y162500D02*X278150Y166250D01*
X274400Y162500D02*X278150D01*
X279950Y167750D02*X280700Y168500D01*
X282200D01*
X282950Y167750D01*
X282200Y162500D02*X282950Y163250D01*
X280700Y162500D02*X282200D01*
X279950Y163250D02*X280700Y162500D01*
Y165800D02*X282200D01*
X282950Y167750D02*Y166550D01*
Y165050D02*Y163250D01*
Y165050D02*X282200Y165800D01*
X282950Y166550D02*X282200Y165800D01*
X284750Y166250D02*X285500D01*
X284750Y164750D02*X285500D01*
X287300Y168500D02*X290300D01*
X287300D02*Y165500D01*
X288050Y166250D01*
X289550D01*
X290300Y165500D01*
Y163250D01*
X289550Y162500D02*X290300Y163250D01*
X288050Y162500D02*X289550D01*
X287300Y163250D02*X288050Y162500D01*
X292100Y168500D02*X295100D01*
X292100D02*Y165500D01*
X292850Y166250D01*
X294350D01*
X295100Y165500D01*
Y163250D01*
X294350Y162500D02*X295100Y163250D01*
X292850Y162500D02*X294350D01*
X292100Y163250D02*X292850Y162500D01*
X296900Y166250D02*X297650D01*
X296900Y164750D02*X297650D01*
X299450Y167750D02*X300200Y168500D01*
X302450D01*
X303200Y167750D01*
Y166250D01*
X299450Y162500D02*X303200Y166250D01*
X299450Y162500D02*X303200D01*
X305750D02*X308000Y165500D01*
Y167750D02*Y165500D01*
X307250Y168500D02*X308000Y167750D01*
X305750Y168500D02*X307250D01*
X305000Y167750D02*X305750Y168500D01*
X305000Y167750D02*Y166250D01*
X305750Y165500D01*
X308000D01*
X312500Y167750D02*X313250Y168500D01*
X315500D01*
X316250Y167750D01*
Y166250D01*
X312500Y162500D02*X316250Y166250D01*
X312500Y162500D02*X316250D01*
X318050Y163250D02*X318800Y162500D01*
X318050Y167750D02*Y163250D01*
Y167750D02*X318800Y168500D01*
X320300D01*
X321050Y167750D01*
Y163250D01*
X320300Y162500D02*X321050Y163250D01*
X318800Y162500D02*X320300D01*
X318050Y164000D02*X321050Y167000D01*
X322850Y167300D02*X324050Y168500D01*
Y162500D01*
X322850D02*X325100D01*
X326900Y167750D02*X327650Y168500D01*
X329150D01*
X329900Y167750D01*
X329150Y162500D02*X329900Y163250D01*
X327650Y162500D02*X329150D01*
X326900Y163250D02*X327650Y162500D01*
Y165800D02*X329150D01*
X329900Y167750D02*Y166550D01*
Y165050D02*Y163250D01*
Y165050D02*X329150Y165800D01*
X329900Y166550D02*X329150Y165800D01*
X334400Y168500D02*Y163250D01*
X335150Y162500D01*
X336650D01*
X337400Y163250D01*
Y168500D02*Y163250D01*
X339200Y168500D02*X342200D01*
X340700D02*Y162500D01*
X345050D02*X347000D01*
X344000Y163550D02*X345050Y162500D01*
X344000Y167450D02*Y163550D01*
Y167450D02*X345050Y168500D01*
X347000D01*
X200000Y182000D02*Y177500D01*
Y182000D02*X201050Y183500D01*
X202700D01*
X203750Y182000D01*
Y177500D01*
X200000Y180500D02*X203750D01*
X205550D02*Y178250D01*
X206300Y177500D01*
X207800D01*
X208550Y178250D01*
Y180500D02*Y178250D01*
X211100Y183500D02*Y178250D01*
X211850Y177500D01*
X210350Y181250D02*X211850D01*
X213350Y183500D02*Y177500D01*
Y179750D02*X214100Y180500D01*
X215600D01*
X216350Y179750D01*
Y177500D01*
X218150Y179750D02*Y178250D01*
Y179750D02*X218900Y180500D01*
X220400D01*
X221150Y179750D01*
Y178250D01*
X220400Y177500D02*X221150Y178250D01*
X218900Y177500D02*X220400D01*
X218150Y178250D02*X218900Y177500D01*
X223700Y179750D02*Y177500D01*
Y179750D02*X224450Y180500D01*
X225950D01*
X222950D02*X223700Y179750D01*
X227750Y181250D02*X228500D01*
X227750Y179750D02*X228500D01*
X234050Y183500D02*X235250D01*
Y178250D01*
X234500Y177500D02*X235250Y178250D01*
X233750Y177500D02*X234500D01*
X233000Y178250D02*X233750Y177500D01*
X233000Y179000D02*Y178250D01*
X239300Y180500D02*X240050Y179750D01*
X237800Y180500D02*X239300D01*
X237050Y179750D02*X237800Y180500D01*
X237050Y179750D02*Y178250D01*
X237800Y177500D01*
X240050Y180500D02*Y178250D01*
X240800Y177500D01*
X237800D02*X239300D01*
X240050Y178250D01*
X243350Y179750D02*Y177500D01*
Y179750D02*X244100Y180500D01*
X244850D01*
X245600Y179750D01*
Y177500D01*
Y179750D02*X246350Y180500D01*
X247100D01*
X247850Y179750D01*
Y177500D01*
X242600Y180500D02*X243350Y179750D01*
X250400Y177500D02*X252650D01*
X249650Y178250D02*X250400Y177500D01*
X249650Y179750D02*Y178250D01*
Y179750D02*X250400Y180500D01*
X251900D01*
X252650Y179750D01*
X249650Y179000D02*X252650D01*
Y179750D02*Y179000D01*
X255200Y177500D02*X257450D01*
X258200Y178250D01*
X257450Y179000D02*X258200Y178250D01*
X255200Y179000D02*X257450D01*
X254450Y179750D02*X255200Y179000D01*
X254450Y179750D02*X255200Y180500D01*
X257450D01*
X258200Y179750D01*
X254450Y178250D02*X255200Y177500D01*
X263750D02*X265700D01*
X262700Y178550D02*X263750Y177500D01*
X262700Y182450D02*Y178550D01*
Y182450D02*X263750Y183500D01*
X265700D01*
X267500Y179750D02*Y178250D01*
Y179750D02*X268250Y180500D01*
X269750D01*
X270500Y179750D01*
Y178250D01*
X269750Y177500D02*X270500Y178250D01*
X268250Y177500D02*X269750D01*
X267500Y178250D02*X268250Y177500D01*
X272300Y179750D02*Y178250D01*
Y179750D02*X273050Y180500D01*
X274550D01*
X275300Y179750D01*
Y178250D01*
X274550Y177500D02*X275300Y178250D01*
X273050Y177500D02*X274550D01*
X272300Y178250D02*X273050Y177500D01*
X277100Y183500D02*Y177500D01*
Y179750D02*X279350Y177500D01*
X277100Y179750D02*X278600Y181250D01*
X200000Y198500D02*X203000D01*
X201500D02*Y192500D01*
G54D77*X204800Y197000D02*Y196850D01*
G54D76*Y194750D02*Y192500D01*
X207050Y198500D02*Y193250D01*
X207800Y192500D01*
X206300Y196250D02*X207800D01*
X209300Y198500D02*Y193250D01*
X210050Y192500D01*
X212300D02*X214550D01*
X211550Y193250D02*X212300Y192500D01*
X211550Y194750D02*Y193250D01*
Y194750D02*X212300Y195500D01*
X213800D01*
X214550Y194750D01*
X211550Y194000D02*X214550D01*
Y194750D02*Y194000D01*
X216350Y196250D02*X217100D01*
X216350Y194750D02*X217100D01*
X221600Y193250D02*X222350Y192500D01*
X221600Y197750D02*X222350Y198500D01*
X221600Y197750D02*Y193250D01*
X224150Y195500D02*Y193250D01*
X224900Y192500D01*
X226400D01*
X227150Y193250D01*
Y195500D02*Y193250D01*
X229700Y194750D02*Y192500D01*
Y194750D02*X230450Y195500D01*
X231200D01*
X231950Y194750D01*
Y192500D01*
X228950Y195500D02*X229700Y194750D01*
X233750Y198500D02*Y192500D01*
Y194750D02*X236000Y192500D01*
X233750Y194750D02*X235250Y196250D01*
X238550Y194750D02*Y192500D01*
Y194750D02*X239300Y195500D01*
X240050D01*
X240800Y194750D01*
Y192500D01*
X237800Y195500D02*X238550Y194750D01*
X242600D02*Y193250D01*
Y194750D02*X243350Y195500D01*
X244850D01*
X245600Y194750D01*
Y193250D01*
X244850Y192500D02*X245600Y193250D01*
X243350Y192500D02*X244850D01*
X242600Y193250D02*X243350Y192500D01*
X247400Y195500D02*Y193250D01*
X248150Y192500D01*
X248900D01*
X249650Y193250D01*
Y195500D02*Y193250D01*
X250400Y192500D01*
X251150D01*
X251900Y193250D01*
Y195500D02*Y193250D01*
X254450Y194750D02*Y192500D01*
Y194750D02*X255200Y195500D01*
X255950D01*
X256700Y194750D01*
Y192500D01*
X253700Y195500D02*X254450Y194750D01*
X258500Y198500D02*X259250Y197750D01*
Y193250D01*
X258500Y192500D02*X259250Y193250D01*
X263750Y195500D02*X266750D01*
X271250Y198500D02*Y192500D01*
Y198500D02*X274250D01*
X271250Y195800D02*X273500D01*
X278300Y195500D02*X279050Y194750D01*
X276800Y195500D02*X278300D01*
X276050Y194750D02*X276800Y195500D01*
X276050Y194750D02*Y193250D01*
X276800Y192500D01*
X279050Y195500D02*Y193250D01*
X279800Y192500D01*
X276800D02*X278300D01*
X279050Y193250D01*
X281600Y198500D02*Y192500D01*
Y193250D02*X282350Y192500D01*
X283850D01*
X284600Y193250D01*
Y194750D02*Y193250D01*
X283850Y195500D02*X284600Y194750D01*
X282350Y195500D02*X283850D01*
X281600Y194750D02*X282350Y195500D01*
X287150Y194750D02*Y192500D01*
Y194750D02*X287900Y195500D01*
X289400D01*
X286400D02*X287150Y194750D01*
G54D77*X291200Y197000D02*Y196850D01*
G54D76*Y194750D02*Y192500D01*
X293450Y195500D02*X295700D01*
X292700Y194750D02*X293450Y195500D01*
X292700Y194750D02*Y193250D01*
X293450Y192500D01*
X295700D01*
X299750Y195500D02*X300500Y194750D01*
X298250Y195500D02*X299750D01*
X297500Y194750D02*X298250Y195500D01*
X297500Y194750D02*Y193250D01*
X298250Y192500D01*
X300500Y195500D02*Y193250D01*
X301250Y192500D01*
X298250D02*X299750D01*
X300500Y193250D01*
X303800Y198500D02*Y193250D01*
X304550Y192500D01*
X303050Y196250D02*X304550D01*
G54D77*X306050Y197000D02*Y196850D01*
G54D76*Y194750D02*Y192500D01*
X307550Y194750D02*Y193250D01*
Y194750D02*X308300Y195500D01*
X309800D01*
X310550Y194750D01*
Y193250D01*
X309800Y192500D02*X310550Y193250D01*
X308300Y192500D02*X309800D01*
X307550Y193250D02*X308300Y192500D01*
X313100Y194750D02*Y192500D01*
Y194750D02*X313850Y195500D01*
X314600D01*
X315350Y194750D01*
Y192500D01*
X312350Y195500D02*X313100Y194750D01*
X320600Y198500D02*Y192500D01*
X322550Y198500D02*X323600Y197450D01*
Y193550D01*
X322550Y192500D02*X323600Y193550D01*
X319850Y192500D02*X322550D01*
X319850Y198500D02*X322550D01*
X326150Y194750D02*Y192500D01*
Y194750D02*X326900Y195500D01*
X328400D01*
X325400D02*X326150Y194750D01*
X332450Y195500D02*X333200Y194750D01*
X330950Y195500D02*X332450D01*
X330200Y194750D02*X330950Y195500D01*
X330200Y194750D02*Y193250D01*
X330950Y192500D01*
X333200Y195500D02*Y193250D01*
X333950Y192500D01*
X330950D02*X332450D01*
X333200Y193250D01*
X335750Y195500D02*Y193250D01*
X336500Y192500D01*
X337250D01*
X338000Y193250D01*
Y195500D02*Y193250D01*
X338750Y192500D01*
X339500D01*
X340250Y193250D01*
Y195500D02*Y193250D01*
G54D77*X342050Y197000D02*Y196850D01*
G54D76*Y194750D02*Y192500D01*
X344300Y194750D02*Y192500D01*
Y194750D02*X345050Y195500D01*
X345800D01*
X346550Y194750D01*
Y192500D01*
X343550Y195500D02*X344300Y194750D01*
X350600Y195500D02*X351350Y194750D01*
X349100Y195500D02*X350600D01*
X348350Y194750D02*X349100Y195500D01*
X348350Y194750D02*Y193250D01*
X349100Y192500D01*
X350600D01*
X351350Y193250D01*
X348350Y191000D02*X349100Y190250D01*
X350600D01*
X351350Y191000D01*
Y195500D02*Y191000D01*
M02*
