G04 start of page 3 for group 1 idx 1 *
G04 Title: (unknown), Signal (back) *
G04 Creator: pcb 20110918 *
G04 CreationDate: Fri Sep 13 22:17:45 2013 UTC *
G04 For: mokus *
G04 Format: Gerber/RS-274X *
G04 PCB-Dimensions: 100000 140000 *
G04 PCB-Coordinate-Origin: lower left *
%MOIN*%
%FSLAX25Y25*%
%LNBOTTOM*%
%ADD40C,0.0300*%
%ADD39C,0.0380*%
%ADD38C,0.0350*%
%ADD37C,0.0200*%
%ADD36C,0.0360*%
%ADD35C,0.0500*%
%ADD34C,0.0800*%
%ADD33C,0.0600*%
%ADD32C,0.0100*%
%ADD31C,0.0250*%
%ADD30C,0.0001*%
G54D30*G36*
X56317Y91496D02*X65521D01*
X65547Y91474D01*
X65923Y91244D01*
X65933Y91239D01*
Y71542D01*
X60427Y77048D01*
X60388Y77093D01*
X60209Y77246D01*
X60209Y77246D01*
X60209Y77247D01*
X60114Y77305D01*
X60007Y77370D01*
X60007Y77370D01*
X60007Y77370D01*
X59917Y77407D01*
X59789Y77460D01*
X59789Y77460D01*
X59789Y77460D01*
X59667Y77489D01*
X59560Y77515D01*
X59560Y77515D01*
X59560Y77515D01*
X59324Y77534D01*
X59265Y77529D01*
X56317D01*
Y91496D01*
G37*
G36*
Y101104D02*X83310D01*
X86171Y98243D01*
Y54210D01*
X84294Y52333D01*
X78935D01*
X78876Y52338D01*
X78641Y52319D01*
X78411Y52264D01*
X78193Y52174D01*
X77992Y52050D01*
X77992Y52050D01*
X77812Y51897D01*
X77774Y51852D01*
X76103Y50182D01*
X75554Y50409D01*
X74865Y50574D01*
X74159Y50630D01*
X73453Y50574D01*
X72764Y50409D01*
X72110Y50138D01*
X71506Y49768D01*
X70968Y49308D01*
X70508Y48769D01*
X70433Y48648D01*
Y92673D01*
X70440Y92761D01*
X70412Y93114D01*
X70330Y93459D01*
X70290Y93554D01*
X70194Y93786D01*
X70080Y93973D01*
X70009Y94088D01*
X70009Y94088D01*
X69976Y94127D01*
X69972Y94186D01*
X69869Y94614D01*
X69701Y95021D01*
X69471Y95397D01*
X69184Y95732D01*
X68849Y96018D01*
X68473Y96249D01*
X68066Y96417D01*
X67638Y96520D01*
X67198Y96555D01*
X66759Y96520D01*
X66330Y96417D01*
X65923Y96249D01*
X65547Y96018D01*
X65521Y95996D01*
X56317D01*
Y101104D01*
G37*
G36*
X99654Y3235D02*X93754D01*
Y4134D01*
X94159Y4102D01*
X94865Y4158D01*
X95554Y4323D01*
X96209Y4594D01*
X96813Y4964D01*
X97351Y5424D01*
X97811Y5963D01*
X98181Y6567D01*
X98452Y7221D01*
X98618Y7910D01*
X98659Y8616D01*
X98618Y9322D01*
X98452Y10011D01*
X98181Y10665D01*
X97811Y11269D01*
X97351Y11808D01*
X96813Y12268D01*
X96209Y12638D01*
X95554Y12909D01*
X94865Y13074D01*
X94159Y13130D01*
X93754Y13098D01*
Y16031D01*
X94164Y16201D01*
X94902Y16653D01*
X95560Y17215D01*
X96123Y17873D01*
X96575Y18612D01*
X96906Y19411D01*
X97108Y20253D01*
X97159Y21116D01*
X97108Y21979D01*
X96906Y22821D01*
X96575Y23621D01*
X96123Y24359D01*
X95560Y25017D01*
X94902Y25580D01*
X94164Y26032D01*
X93754Y26202D01*
Y31634D01*
X94159Y31602D01*
X94865Y31658D01*
X95554Y31823D01*
X96209Y32094D01*
X96813Y32464D01*
X97351Y32924D01*
X97811Y33463D01*
X98181Y34067D01*
X98452Y34721D01*
X98618Y35410D01*
X98659Y36116D01*
X98618Y36822D01*
X98452Y37511D01*
X98181Y38165D01*
X97811Y38769D01*
X97351Y39308D01*
X96813Y39768D01*
X96209Y40138D01*
X95554Y40409D01*
X94865Y40574D01*
X94159Y40630D01*
X93754Y40598D01*
Y41622D01*
X97395Y41630D01*
X97624Y41685D01*
X97842Y41776D01*
X98044Y41899D01*
X98223Y42052D01*
X98377Y42232D01*
X98500Y42433D01*
X98590Y42651D01*
X98645Y42881D01*
X98659Y43116D01*
X98645Y49352D01*
X98590Y49581D01*
X98500Y49799D01*
X98377Y50001D01*
X98223Y50180D01*
X98044Y50333D01*
X97842Y50457D01*
X97624Y50547D01*
X97395Y50602D01*
X97159Y50616D01*
X93754Y50609D01*
Y58506D01*
X93759Y58505D01*
X94309Y58549D01*
X94844Y58677D01*
X95353Y58888D01*
X95823Y59176D01*
X96242Y59534D01*
X96600Y59953D01*
X96887Y60422D01*
X97098Y60931D01*
X97227Y61467D01*
X97259Y62016D01*
X97227Y62565D01*
X97098Y63101D01*
X96887Y63610D01*
X96600Y64080D01*
X96242Y64499D01*
X95823Y64856D01*
X95353Y65144D01*
X94844Y65355D01*
X94309Y65484D01*
X93759Y65527D01*
X93754Y65527D01*
Y66406D01*
X93759Y66405D01*
X94309Y66449D01*
X94844Y66577D01*
X95353Y66788D01*
X95823Y67076D01*
X96242Y67434D01*
X96600Y67853D01*
X96887Y68322D01*
X97098Y68831D01*
X97227Y69367D01*
X97259Y69916D01*
X97227Y70465D01*
X97098Y71001D01*
X96887Y71510D01*
X96600Y71980D01*
X96242Y72399D01*
X95823Y72756D01*
X95353Y73044D01*
X94844Y73255D01*
X94309Y73384D01*
X93759Y73427D01*
X93754Y73427D01*
Y74306D01*
X93759Y74305D01*
X94309Y74349D01*
X94844Y74477D01*
X95353Y74688D01*
X95823Y74976D01*
X96242Y75334D01*
X96600Y75753D01*
X96887Y76222D01*
X97098Y76731D01*
X97227Y77267D01*
X97259Y77816D01*
X97227Y78365D01*
X97098Y78901D01*
X96887Y79410D01*
X96600Y79880D01*
X96242Y80299D01*
X95823Y80656D01*
X95353Y80944D01*
X94844Y81155D01*
X94309Y81284D01*
X93759Y81327D01*
X93754Y81327D01*
Y82206D01*
X93759Y82205D01*
X94309Y82249D01*
X94844Y82377D01*
X95353Y82588D01*
X95823Y82876D01*
X96242Y83234D01*
X96600Y83653D01*
X96887Y84122D01*
X97098Y84631D01*
X97227Y85167D01*
X97259Y85716D01*
X97227Y86265D01*
X97098Y86801D01*
X96887Y87310D01*
X96600Y87780D01*
X96242Y88199D01*
X95823Y88556D01*
X95353Y88844D01*
X94844Y89055D01*
X94309Y89184D01*
X93759Y89227D01*
X93754Y89227D01*
Y90106D01*
X93759Y90105D01*
X94309Y90149D01*
X94844Y90277D01*
X95353Y90488D01*
X95823Y90776D01*
X96242Y91134D01*
X96600Y91553D01*
X96887Y92022D01*
X97098Y92531D01*
X97227Y93067D01*
X97259Y93616D01*
X97227Y94165D01*
X97098Y94701D01*
X96887Y95210D01*
X96600Y95680D01*
X96242Y96099D01*
X95823Y96456D01*
X95353Y96744D01*
X94844Y96955D01*
X94309Y97084D01*
X93759Y97127D01*
X93754Y97127D01*
Y98006D01*
X93759Y98005D01*
X94309Y98049D01*
X94844Y98177D01*
X95353Y98388D01*
X95823Y98676D01*
X96242Y99034D01*
X96600Y99453D01*
X96887Y99922D01*
X97098Y100431D01*
X97227Y100967D01*
X97259Y101516D01*
X97227Y102065D01*
X97098Y102601D01*
X96887Y103110D01*
X96600Y103580D01*
X96242Y103999D01*
X95823Y104356D01*
X95353Y104644D01*
X94844Y104855D01*
X94309Y104984D01*
X93759Y105027D01*
X93754Y105027D01*
Y105906D01*
X93759Y105905D01*
X94309Y105949D01*
X94844Y106077D01*
X95353Y106288D01*
X95823Y106576D01*
X96242Y106934D01*
X96600Y107353D01*
X96887Y107822D01*
X97098Y108331D01*
X97227Y108867D01*
X97259Y109416D01*
X97227Y109965D01*
X97098Y110501D01*
X96887Y111010D01*
X96600Y111480D01*
X96242Y111899D01*
X95823Y112256D01*
X95353Y112544D01*
X94844Y112755D01*
X94309Y112884D01*
X93759Y112927D01*
X93754Y112927D01*
Y113806D01*
X93759Y113805D01*
X94309Y113849D01*
X94844Y113977D01*
X95353Y114188D01*
X95823Y114476D01*
X96242Y114834D01*
X96600Y115253D01*
X96887Y115722D01*
X97098Y116231D01*
X97227Y116767D01*
X97259Y117316D01*
X97227Y117865D01*
X97098Y118401D01*
X96887Y118910D01*
X96600Y119380D01*
X96242Y119799D01*
X95823Y120156D01*
X95353Y120444D01*
X94844Y120655D01*
X94309Y120784D01*
X93759Y120827D01*
X93754Y120827D01*
Y121706D01*
X93759Y121705D01*
X94309Y121749D01*
X94844Y121877D01*
X95353Y122088D01*
X95823Y122376D01*
X96242Y122734D01*
X96600Y123153D01*
X96887Y123622D01*
X97098Y124131D01*
X97227Y124667D01*
X97259Y125216D01*
X97227Y125765D01*
X97098Y126301D01*
X96887Y126810D01*
X96600Y127280D01*
X96242Y127699D01*
X95823Y128056D01*
X95353Y128344D01*
X94844Y128555D01*
X94309Y128684D01*
X93759Y128727D01*
X93754Y128727D01*
Y129606D01*
X93759Y129605D01*
X94309Y129649D01*
X94844Y129777D01*
X95353Y129988D01*
X95823Y130276D01*
X96242Y130634D01*
X96600Y131053D01*
X96887Y131522D01*
X97098Y132031D01*
X97227Y132567D01*
X97259Y133116D01*
X97227Y133665D01*
X97098Y134201D01*
X96887Y134710D01*
X96600Y135180D01*
X96242Y135599D01*
X95823Y135956D01*
X95353Y136244D01*
X94844Y136455D01*
X94309Y136584D01*
X93759Y136627D01*
X93754Y136627D01*
Y139786D01*
X99654D01*
Y3235D01*
G37*
G36*
X93754Y105027D02*X93210Y104984D01*
X92674Y104855D01*
X92165Y104644D01*
X91696Y104356D01*
X91277Y103999D01*
X90919Y103580D01*
X90631Y103110D01*
X90420Y102601D01*
X90292Y102065D01*
X90249Y101516D01*
X90262Y101348D01*
X86018Y105592D01*
X85979Y105637D01*
X85800Y105790D01*
X85598Y105914D01*
X85380Y106004D01*
X85151Y106059D01*
X84915Y106078D01*
X84857Y106073D01*
X56317D01*
Y128501D01*
X56662Y128645D01*
X57038Y128875D01*
X57373Y129161D01*
X57660Y129496D01*
X57890Y129872D01*
X58058Y130279D01*
X58161Y130708D01*
X58187Y131147D01*
X58161Y131587D01*
X58058Y132015D01*
X57890Y132422D01*
X57660Y132798D01*
X57373Y133133D01*
X57038Y133419D01*
X56662Y133650D01*
X56317Y133793D01*
Y139786D01*
X93754D01*
Y136627D01*
X93210Y136584D01*
X92674Y136455D01*
X92165Y136244D01*
X91696Y135956D01*
X91277Y135599D01*
X90919Y135180D01*
X90631Y134710D01*
X90420Y134201D01*
X90292Y133665D01*
X90249Y133116D01*
X90292Y132567D01*
X90420Y132031D01*
X90631Y131522D01*
X90919Y131053D01*
X91277Y130634D01*
X91696Y130276D01*
X92165Y129988D01*
X92674Y129777D01*
X93210Y129649D01*
X93754Y129606D01*
Y128727D01*
X93210Y128684D01*
X92674Y128555D01*
X92165Y128344D01*
X91696Y128056D01*
X91277Y127699D01*
X90919Y127280D01*
X90631Y126810D01*
X90420Y126301D01*
X90292Y125765D01*
X90249Y125216D01*
X90292Y124667D01*
X90420Y124131D01*
X90631Y123622D01*
X90919Y123153D01*
X91277Y122734D01*
X91696Y122376D01*
X92165Y122088D01*
X92674Y121877D01*
X93210Y121749D01*
X93754Y121706D01*
Y120827D01*
X93210Y120784D01*
X92674Y120655D01*
X92165Y120444D01*
X91696Y120156D01*
X91277Y119799D01*
X90919Y119380D01*
X90631Y118910D01*
X90420Y118401D01*
X90292Y117865D01*
X90249Y117316D01*
X90292Y116767D01*
X90420Y116231D01*
X90631Y115722D01*
X90919Y115253D01*
X91277Y114834D01*
X91696Y114476D01*
X92165Y114188D01*
X92674Y113977D01*
X93210Y113849D01*
X93754Y113806D01*
Y112927D01*
X93210Y112884D01*
X92674Y112755D01*
X92165Y112544D01*
X91696Y112256D01*
X91277Y111899D01*
X90919Y111480D01*
X90631Y111010D01*
X90420Y110501D01*
X90292Y109965D01*
X90249Y109416D01*
X90292Y108867D01*
X90420Y108331D01*
X90631Y107822D01*
X90919Y107353D01*
X91277Y106934D01*
X91696Y106576D01*
X92165Y106288D01*
X92674Y106077D01*
X93210Y105949D01*
X93754Y105906D01*
Y105027D01*
G37*
G36*
Y97127D02*X93210Y97084D01*
X92674Y96955D01*
X92165Y96744D01*
X91696Y96456D01*
X91314Y96131D01*
Y99002D01*
X91696Y98676D01*
X92165Y98388D01*
X92674Y98177D01*
X93210Y98049D01*
X93754Y98006D01*
Y97127D01*
G37*
G36*
Y89227D02*X93210Y89184D01*
X92674Y89055D01*
X92165Y88844D01*
X91696Y88556D01*
X91314Y88231D01*
Y91102D01*
X91696Y90776D01*
X92165Y90488D01*
X92674Y90277D01*
X93210Y90149D01*
X93754Y90106D01*
Y89227D01*
G37*
G36*
Y81327D02*X93210Y81284D01*
X92674Y81155D01*
X92165Y80944D01*
X91696Y80656D01*
X91314Y80331D01*
Y83202D01*
X91696Y82876D01*
X92165Y82588D01*
X92674Y82377D01*
X93210Y82249D01*
X93754Y82206D01*
Y81327D01*
G37*
G36*
Y73427D02*X93210Y73384D01*
X92674Y73255D01*
X92165Y73044D01*
X91696Y72756D01*
X91314Y72431D01*
Y75302D01*
X91696Y74976D01*
X92165Y74688D01*
X92674Y74477D01*
X93210Y74349D01*
X93754Y74306D01*
Y73427D01*
G37*
G36*
Y65527D02*X93210Y65484D01*
X92674Y65355D01*
X92165Y65144D01*
X91696Y64856D01*
X91314Y64531D01*
Y67402D01*
X91696Y67076D01*
X92165Y66788D01*
X92674Y66577D01*
X93210Y66449D01*
X93754Y66406D01*
Y65527D01*
G37*
G36*
Y50609D02*X91793Y50604D01*
X91314Y51083D01*
Y59502D01*
X91696Y59176D01*
X92165Y58888D01*
X92674Y58677D01*
X93210Y58549D01*
X93754Y58506D01*
Y50609D01*
G37*
G36*
Y40598D02*X93453Y40574D01*
X92764Y40409D01*
X92110Y40138D01*
X91506Y39768D01*
X90968Y39308D01*
X90508Y38769D01*
X90137Y38165D01*
X89866Y37511D01*
X89701Y36822D01*
X89645Y36116D01*
X89701Y35410D01*
X89811Y34950D01*
X87865Y33004D01*
X87419D01*
X87811Y33463D01*
X88181Y34067D01*
X88452Y34721D01*
X88618Y35410D01*
X88659Y36116D01*
X88618Y36822D01*
X88452Y37511D01*
X88181Y38165D01*
X87811Y38769D01*
X87351Y39308D01*
X86813Y39768D01*
X86209Y40138D01*
X85554Y40409D01*
X84865Y40574D01*
X84159Y40630D01*
X83453Y40574D01*
X82764Y40409D01*
X82110Y40138D01*
X81506Y39768D01*
X80968Y39308D01*
X80508Y38769D01*
X80137Y38165D01*
X79866Y37511D01*
X79701Y36822D01*
X79645Y36116D01*
X79701Y35410D01*
X79866Y34721D01*
X80137Y34067D01*
X80508Y33463D01*
X80899Y33004D01*
X79098D01*
X79009Y33011D01*
X78656Y32983D01*
X78312Y32901D01*
X77985Y32765D01*
X77772Y32635D01*
Y33969D01*
X77815Y33976D01*
X77927Y34014D01*
X78032Y34068D01*
X78127Y34138D01*
X78210Y34222D01*
X78279Y34318D01*
X78329Y34425D01*
X78478Y34832D01*
X78581Y35253D01*
X78644Y35683D01*
X78665Y36116D01*
X78644Y36550D01*
X78581Y36979D01*
X78478Y37400D01*
X78334Y37810D01*
X78282Y37916D01*
X78213Y38013D01*
X78129Y38097D01*
X78034Y38167D01*
X77929Y38222D01*
X77816Y38260D01*
X77772Y38267D01*
Y43418D01*
X77811Y43463D01*
X78181Y44067D01*
X78452Y44721D01*
X78618Y45410D01*
X78659Y46116D01*
X78618Y46822D01*
X78452Y47511D01*
X78225Y48060D01*
X79498Y49333D01*
X80997D01*
X80968Y49308D01*
X80508Y48769D01*
X80137Y48165D01*
X79866Y47511D01*
X79701Y46822D01*
X79645Y46116D01*
X79701Y45410D01*
X79866Y44721D01*
X80137Y44067D01*
X80508Y43463D01*
X80968Y42924D01*
X81506Y42464D01*
X82110Y42094D01*
X82764Y41823D01*
X83453Y41658D01*
X84159Y41602D01*
X84865Y41658D01*
X85554Y41823D01*
X86209Y42094D01*
X86813Y42464D01*
X87351Y42924D01*
X87811Y43463D01*
X88181Y44067D01*
X88452Y44721D01*
X88618Y45410D01*
X88659Y46116D01*
X88618Y46822D01*
X88452Y47511D01*
X88181Y48165D01*
X87811Y48769D01*
X87351Y49308D01*
X86813Y49768D01*
X86291Y50088D01*
X88314Y52110D01*
Y50520D01*
X88310Y50461D01*
X88328Y50226D01*
X88383Y49996D01*
X88474Y49778D01*
X88597Y49577D01*
X88597Y49577D01*
X88750Y49397D01*
X88795Y49359D01*
X89661Y48493D01*
X89673Y42881D01*
X89728Y42651D01*
X89819Y42433D01*
X89942Y42232D01*
X90095Y42052D01*
X90275Y41899D01*
X90476Y41776D01*
X90694Y41685D01*
X90924Y41630D01*
X91159Y41616D01*
X93754Y41622D01*
Y40598D01*
G37*
G36*
X77772Y32635D02*X77683Y32580D01*
X77682Y32580D01*
X77413Y32350D01*
X77356Y32283D01*
X74161Y29088D01*
Y31611D01*
X74593Y31632D01*
X75022Y31694D01*
X75443Y31798D01*
X75853Y31941D01*
X75959Y31994D01*
X76056Y32063D01*
X76140Y32146D01*
X76211Y32242D01*
X76265Y32347D01*
X76303Y32459D01*
X76322Y32576D01*
X76323Y32695D01*
X76305Y32812D01*
X76269Y32925D01*
X76216Y33031D01*
X76147Y33128D01*
X76064Y33212D01*
X75969Y33283D01*
X75863Y33337D01*
X75751Y33375D01*
X75634Y33394D01*
X75515Y33395D01*
X75398Y33377D01*
X75286Y33339D01*
X75014Y33241D01*
X74734Y33172D01*
X74448Y33130D01*
X74161Y33116D01*
Y39116D01*
X74448Y39102D01*
X74734Y39061D01*
X75014Y38992D01*
X75287Y38896D01*
X75399Y38858D01*
X75515Y38841D01*
X75634Y38842D01*
X75750Y38861D01*
X75862Y38898D01*
X75967Y38953D01*
X76062Y39023D01*
X76145Y39107D01*
X76213Y39203D01*
X76266Y39308D01*
X76302Y39421D01*
X76319Y39538D01*
X76319Y39656D01*
X76299Y39772D01*
X76262Y39884D01*
X76208Y39989D01*
X76138Y40084D01*
X76053Y40167D01*
X75957Y40235D01*
X75851Y40286D01*
X75443Y40435D01*
X75022Y40538D01*
X74593Y40601D01*
X74161Y40621D01*
Y41602D01*
X74865Y41658D01*
X75554Y41823D01*
X76209Y42094D01*
X76813Y42464D01*
X77351Y42924D01*
X77772Y43418D01*
Y38267D01*
X77699Y38279D01*
X77580Y38280D01*
X77463Y38262D01*
X77350Y38226D01*
X77244Y38173D01*
X77148Y38104D01*
X77063Y38021D01*
X76993Y37926D01*
X76938Y37820D01*
X76901Y37708D01*
X76881Y37591D01*
X76880Y37472D01*
X76898Y37355D01*
X76936Y37243D01*
X77035Y36971D01*
X77104Y36691D01*
X77145Y36405D01*
X77159Y36116D01*
X77145Y35828D01*
X77104Y35542D01*
X77035Y35261D01*
X76939Y34988D01*
X76901Y34877D01*
X76884Y34760D01*
X76885Y34642D01*
X76904Y34526D01*
X76941Y34414D01*
X76996Y34309D01*
X77066Y34214D01*
X77150Y34131D01*
X77246Y34062D01*
X77351Y34009D01*
X77464Y33974D01*
X77581Y33956D01*
X77699Y33957D01*
X77772Y33969D01*
Y32635D01*
G37*
G36*
X74161Y29088D02*X74088Y29015D01*
X70433Y32670D01*
Y33996D01*
X70503Y33973D01*
X70620Y33953D01*
X70738Y33953D01*
X70855Y33970D01*
X70969Y34006D01*
X71075Y34059D01*
X71171Y34128D01*
X71256Y34211D01*
X71326Y34307D01*
X71381Y34412D01*
X71418Y34525D01*
X71437Y34642D01*
X71438Y34760D01*
X71421Y34878D01*
X71383Y34990D01*
X71284Y35261D01*
X71215Y35542D01*
X71173Y35828D01*
X71159Y36116D01*
X71173Y36405D01*
X71215Y36691D01*
X71284Y36971D01*
X71379Y37244D01*
X71417Y37356D01*
X71435Y37472D01*
X71434Y37590D01*
X71415Y37707D01*
X71377Y37819D01*
X71323Y37924D01*
X71253Y38019D01*
X71169Y38102D01*
X71073Y38170D01*
X70967Y38223D01*
X70855Y38259D01*
X70738Y38276D01*
X70620Y38275D01*
X70503Y38256D01*
X70433Y38233D01*
Y43584D01*
X70508Y43463D01*
X70968Y42924D01*
X71506Y42464D01*
X72110Y42094D01*
X72764Y41823D01*
X73453Y41658D01*
X74159Y41602D01*
X74161Y41602D01*
Y40621D01*
X74159Y40621D01*
X73726Y40601D01*
X73297Y40538D01*
X72875Y40435D01*
X72466Y40291D01*
X72359Y40238D01*
X72263Y40169D01*
X72178Y40086D01*
X72108Y39991D01*
X72053Y39885D01*
X72016Y39773D01*
X71997Y39656D01*
X71996Y39537D01*
X72013Y39420D01*
X72049Y39307D01*
X72102Y39201D01*
X72171Y39104D01*
X72255Y39020D01*
X72350Y38950D01*
X72455Y38895D01*
X72568Y38858D01*
X72685Y38838D01*
X72803Y38837D01*
X72921Y38855D01*
X73033Y38893D01*
X73304Y38992D01*
X73585Y39061D01*
X73871Y39102D01*
X74159Y39116D01*
X74161Y39116D01*
Y33116D01*
X74159Y33116D01*
X73871Y33130D01*
X73585Y33172D01*
X73304Y33241D01*
X73032Y33336D01*
X72920Y33374D01*
X72803Y33392D01*
X72685Y33391D01*
X72569Y33371D01*
X72457Y33334D01*
X72352Y33280D01*
X72257Y33210D01*
X72174Y33126D01*
X72105Y33030D01*
X72052Y32924D01*
X72017Y32812D01*
X71999Y32695D01*
X72000Y32577D01*
X72019Y32460D01*
X72057Y32348D01*
X72111Y32244D01*
X72181Y32149D01*
X72265Y32066D01*
X72361Y31997D01*
X72468Y31946D01*
X72875Y31798D01*
X73297Y31694D01*
X73726Y31632D01*
X74159Y31611D01*
X74161Y31611D01*
Y29088D01*
G37*
G36*
X93754Y3235D02*X84152D01*
Y4103D01*
X84159Y4102D01*
X84865Y4158D01*
X85554Y4323D01*
X86209Y4594D01*
X86813Y4964D01*
X87351Y5424D01*
X87811Y5963D01*
X88181Y6567D01*
X88452Y7221D01*
X88618Y7910D01*
X88659Y8616D01*
X88618Y9322D01*
X88452Y10011D01*
X88181Y10665D01*
X87811Y11269D01*
X87351Y11808D01*
X86813Y12268D01*
X86209Y12638D01*
X85554Y12909D01*
X84865Y13074D01*
X84159Y13130D01*
X84152Y13130D01*
Y28504D01*
X88709D01*
X88797Y28497D01*
X89150Y28525D01*
X89150Y28525D01*
X89495Y28608D01*
X89822Y28743D01*
X90124Y28928D01*
X90393Y29158D01*
X90451Y29226D01*
X92993Y31768D01*
X93453Y31658D01*
X93754Y31634D01*
Y26202D01*
X93364Y26363D01*
X92522Y26565D01*
X91659Y26633D01*
X90796Y26565D01*
X89954Y26363D01*
X89155Y26032D01*
X88417Y25580D01*
X87758Y25017D01*
X87196Y24359D01*
X86744Y23621D01*
X86412Y22821D01*
X86210Y21979D01*
X86142Y21116D01*
X86210Y20253D01*
X86412Y19411D01*
X86744Y18612D01*
X87196Y17873D01*
X87758Y17215D01*
X88417Y16653D01*
X89155Y16201D01*
X89954Y15869D01*
X90796Y15667D01*
X91659Y15599D01*
X92522Y15667D01*
X93364Y15869D01*
X93754Y16031D01*
Y13098D01*
X93453Y13074D01*
X92764Y12909D01*
X92110Y12638D01*
X91506Y12268D01*
X90968Y11808D01*
X90508Y11269D01*
X90137Y10665D01*
X89866Y10011D01*
X89701Y9322D01*
X89645Y8616D01*
X89701Y7910D01*
X89866Y7221D01*
X90137Y6567D01*
X90508Y5963D01*
X90968Y5424D01*
X91506Y4964D01*
X92110Y4594D01*
X92764Y4323D01*
X93453Y4158D01*
X93754Y4134D01*
Y3235D01*
G37*
G36*
X84152D02*X56317D01*
Y74529D01*
X58703D01*
X63730Y69503D01*
Y43549D01*
X63730Y43549D01*
Y30813D01*
X63726Y30754D01*
X63744Y30519D01*
X63744Y30519D01*
X63744Y30519D01*
X63763Y30441D01*
X63799Y30289D01*
X63799Y30289D01*
X63799Y30289D01*
X63832Y30211D01*
X63890Y30071D01*
X63890Y30071D01*
X63890Y30071D01*
X63932Y30002D01*
X64013Y29870D01*
X64013Y29870D01*
X64013Y29870D01*
X64166Y29690D01*
X64211Y29652D01*
X69635Y24227D01*
Y17596D01*
X66826Y14786D01*
X66654Y14827D01*
X66214Y14862D01*
X65775Y14827D01*
X65346Y14724D01*
X64939Y14556D01*
X64563Y14325D01*
X64228Y14039D01*
X63942Y13704D01*
X63712Y13328D01*
X63543Y12921D01*
X63440Y12493D01*
X63406Y12053D01*
X63440Y11614D01*
X63543Y11185D01*
X63712Y10778D01*
X63942Y10402D01*
X64228Y10067D01*
X64563Y9781D01*
X64939Y9551D01*
X65346Y9382D01*
X65775Y9279D01*
X66214Y9245D01*
X66654Y9279D01*
X67082Y9382D01*
X67489Y9551D01*
X67865Y9781D01*
X68200Y10067D01*
X68487Y10402D01*
X68717Y10778D01*
X68885Y11185D01*
X68988Y11614D01*
X69014Y12053D01*
X68988Y12493D01*
X68947Y12665D01*
X71838Y15556D01*
Y13104D01*
X70924Y13102D01*
X70694Y13047D01*
X70476Y12957D01*
X70275Y12833D01*
X70095Y12680D01*
X69942Y12501D01*
X69819Y12299D01*
X69728Y12081D01*
X69673Y11852D01*
X69659Y11616D01*
X69673Y5381D01*
X69728Y5151D01*
X69819Y4933D01*
X69942Y4732D01*
X70095Y4552D01*
X70275Y4399D01*
X70476Y4276D01*
X70694Y4185D01*
X70924Y4130D01*
X71159Y4116D01*
X77395Y4130D01*
X77624Y4185D01*
X77842Y4276D01*
X78044Y4399D01*
X78223Y4552D01*
X78377Y4732D01*
X78500Y4933D01*
X78590Y5151D01*
X78645Y5381D01*
X78659Y5616D01*
X78645Y11852D01*
X78590Y12081D01*
X78500Y12299D01*
X78377Y12501D01*
X78223Y12680D01*
X78044Y12833D01*
X77842Y12957D01*
X77624Y13047D01*
X77395Y13102D01*
X77159Y13116D01*
X76338Y13114D01*
Y24901D01*
X79941Y28504D01*
X84152D01*
Y13130D01*
X83453Y13074D01*
X82764Y12909D01*
X82110Y12638D01*
X81506Y12268D01*
X80968Y11808D01*
X80508Y11269D01*
X80137Y10665D01*
X79866Y10011D01*
X79701Y9322D01*
X79645Y8616D01*
X79701Y7910D01*
X79866Y7221D01*
X80137Y6567D01*
X80508Y5963D01*
X80968Y5424D01*
X81506Y4964D01*
X82110Y4594D01*
X82764Y4323D01*
X83453Y4158D01*
X84152Y4103D01*
Y3235D01*
G37*
G36*
X7154Y121706D02*X7159Y121705D01*
X7709Y121749D01*
X8244Y121877D01*
X8753Y122088D01*
X9223Y122376D01*
X9596Y122695D01*
Y121927D01*
X8301Y120632D01*
X8244Y120655D01*
X7709Y120784D01*
X7159Y120827D01*
X7154Y120827D01*
Y121706D01*
G37*
G36*
Y139786D02*X56317D01*
Y133793D01*
X56255Y133818D01*
X55827Y133921D01*
X55387Y133956D01*
X54948Y133921D01*
X54519Y133818D01*
X54112Y133650D01*
X53736Y133419D01*
X53401Y133133D01*
X53115Y132798D01*
X52927Y132491D01*
X52739Y132798D01*
X52452Y133133D01*
X52117Y133419D01*
X51741Y133650D01*
X51334Y133818D01*
X50906Y133921D01*
X50466Y133956D01*
X50027Y133921D01*
X49598Y133818D01*
X49191Y133650D01*
X48815Y133419D01*
X48480Y133133D01*
X48402Y133041D01*
X13517D01*
X13458Y133046D01*
X13223Y133027D01*
X12993Y132972D01*
X12775Y132882D01*
X12574Y132758D01*
X12574Y132758D01*
X12394Y132605D01*
X12356Y132560D01*
X11808Y132012D01*
X11800Y132003D01*
X8320Y128524D01*
X8244Y128555D01*
X7709Y128684D01*
X7159Y128727D01*
X7154Y128727D01*
Y129606D01*
X7159Y129605D01*
X7709Y129649D01*
X8244Y129777D01*
X8753Y129988D01*
X9223Y130276D01*
X9642Y130634D01*
X10000Y131053D01*
X10287Y131522D01*
X10498Y132031D01*
X10627Y132567D01*
X10659Y133116D01*
X10627Y133665D01*
X10498Y134201D01*
X10287Y134710D01*
X10000Y135180D01*
X9642Y135599D01*
X9223Y135956D01*
X8753Y136244D01*
X8244Y136455D01*
X7709Y136584D01*
X7159Y136627D01*
X7154Y136627D01*
Y139786D01*
G37*
G36*
X29159Y128073D02*X46695D01*
X47789Y126979D01*
X47827Y126934D01*
X48007Y126781D01*
X48208Y126658D01*
X48426Y126567D01*
X48656Y126512D01*
X48891Y126494D01*
X48950Y126498D01*
X52180D01*
X52238Y126494D01*
X52473Y126512D01*
X52474Y126512D01*
X52703Y126567D01*
X52921Y126658D01*
X53123Y126781D01*
X53302Y126934D01*
X53341Y126979D01*
X54776Y128414D01*
X54948Y128373D01*
X55387Y128339D01*
X55827Y128373D01*
X56255Y128476D01*
X56317Y128501D01*
Y106073D01*
X38714D01*
X38655Y106078D01*
X38420Y106059D01*
X38190Y106004D01*
X37972Y105914D01*
X37771Y105790D01*
X37771Y105790D01*
X37591Y105637D01*
X37553Y105592D01*
X35330Y103369D01*
X35158Y103410D01*
X34718Y103445D01*
X34279Y103410D01*
X33850Y103307D01*
X33443Y103139D01*
X33067Y102908D01*
X32732Y102622D01*
X32446Y102287D01*
X32216Y101911D01*
X32047Y101504D01*
X31944Y101076D01*
X31910Y100636D01*
X31944Y100197D01*
X32047Y99768D01*
X32216Y99361D01*
X32446Y98985D01*
X32732Y98650D01*
X33067Y98364D01*
X33375Y98175D01*
X33067Y97986D01*
X32732Y97700D01*
X32446Y97365D01*
X32216Y96989D01*
X32047Y96582D01*
X31944Y96154D01*
X31910Y95714D01*
X31944Y95275D01*
X32047Y94846D01*
X32216Y94439D01*
X32446Y94063D01*
X32732Y93728D01*
X33067Y93442D01*
X33443Y93212D01*
X33850Y93043D01*
X34279Y92940D01*
X34718Y92906D01*
X35158Y92940D01*
X35586Y93043D01*
X35993Y93212D01*
X36369Y93442D01*
X36704Y93728D01*
X36991Y94063D01*
X37221Y94439D01*
X37389Y94846D01*
X37492Y95275D01*
X37518Y95714D01*
X37492Y96154D01*
X37451Y96326D01*
X42230Y101104D01*
X56317D01*
Y95996D01*
X50554D01*
X50466Y96003D01*
X50113Y95975D01*
X49769Y95893D01*
X49442Y95757D01*
X49140Y95572D01*
X49140Y95572D01*
X48870Y95342D01*
X48813Y95275D01*
X33966Y80428D01*
X33618Y80835D01*
X33140Y81244D01*
X32603Y81573D01*
X32021Y81814D01*
X31409Y81961D01*
X30781Y82011D01*
X30154Y81961D01*
X29541Y81814D01*
X29159Y81656D01*
Y128073D01*
G37*
G36*
X49152Y89250D02*X51398Y91496D01*
X56317D01*
Y77529D01*
X52831D01*
X52739Y77680D01*
X52452Y78015D01*
X52117Y78301D01*
X51741Y78532D01*
X51334Y78700D01*
X50906Y78803D01*
X50466Y78838D01*
X50027Y78803D01*
X49598Y78700D01*
X49191Y78532D01*
X49152Y78508D01*
Y89250D01*
G37*
G36*
X56317Y3235D02*X49152D01*
Y4103D01*
X49159Y4102D01*
X49865Y4158D01*
X50554Y4323D01*
X51209Y4594D01*
X51813Y4964D01*
X52351Y5424D01*
X52811Y5963D01*
X53181Y6567D01*
X53452Y7221D01*
X53618Y7910D01*
X53659Y8616D01*
X53618Y9322D01*
X53452Y10011D01*
X53181Y10665D01*
X52811Y11269D01*
X52351Y11808D01*
X51813Y12268D01*
X51209Y12638D01*
X50554Y12909D01*
X49865Y13074D01*
X49159Y13130D01*
X49152Y13130D01*
Y73550D01*
X49191Y73527D01*
X49598Y73358D01*
X50027Y73255D01*
X50466Y73221D01*
X50906Y73255D01*
X51334Y73358D01*
X51741Y73527D01*
X52117Y73757D01*
X52452Y74043D01*
X52739Y74378D01*
X52831Y74529D01*
X56317D01*
Y3235D01*
G37*
G36*
X49152D02*X39152D01*
Y4103D01*
X39159Y4102D01*
X39865Y4158D01*
X40554Y4323D01*
X41209Y4594D01*
X41813Y4964D01*
X42351Y5424D01*
X42811Y5963D01*
X43181Y6567D01*
X43452Y7221D01*
X43618Y7910D01*
X43659Y8616D01*
X43618Y9322D01*
X43452Y10011D01*
X43181Y10665D01*
X42811Y11269D01*
X42351Y11808D01*
X41813Y12268D01*
X41209Y12638D01*
X40554Y12909D01*
X39865Y13074D01*
X39159Y13130D01*
X39152Y13130D01*
Y79250D01*
X49152Y89250D01*
Y78508D01*
X48815Y78301D01*
X48480Y78015D01*
X48194Y77680D01*
X47964Y77304D01*
X47795Y76897D01*
X47692Y76469D01*
X47658Y76029D01*
X47692Y75590D01*
X47795Y75161D01*
X47964Y74754D01*
X48194Y74378D01*
X48480Y74043D01*
X48815Y73757D01*
X49152Y73550D01*
Y13130D01*
X48453Y13074D01*
X47764Y12909D01*
X47110Y12638D01*
X46506Y12268D01*
X45968Y11808D01*
X45508Y11269D01*
X45137Y10665D01*
X44866Y10011D01*
X44701Y9322D01*
X44645Y8616D01*
X44701Y7910D01*
X44866Y7221D01*
X45137Y6567D01*
X45508Y5963D01*
X45968Y5424D01*
X46506Y4964D01*
X47110Y4594D01*
X47764Y4323D01*
X48453Y4158D01*
X49152Y4103D01*
Y3235D01*
G37*
G36*
X39152D02*X29159D01*
Y4102D01*
X29865Y4158D01*
X30554Y4323D01*
X31209Y4594D01*
X31813Y4964D01*
X32351Y5424D01*
X32811Y5963D01*
X33181Y6567D01*
X33452Y7221D01*
X33618Y7910D01*
X33659Y8616D01*
X33618Y9322D01*
X33452Y10011D01*
X33181Y10665D01*
X32811Y11269D01*
X32351Y11808D01*
X31813Y12268D01*
X31209Y12638D01*
X30554Y12909D01*
X29865Y13074D01*
X29159Y13130D01*
Y15623D01*
X33395Y15630D01*
X33624Y15685D01*
X33842Y15776D01*
X34044Y15899D01*
X34223Y16052D01*
X34377Y16232D01*
X34500Y16433D01*
X34590Y16651D01*
X34645Y16881D01*
X34659Y17116D01*
X34645Y25352D01*
X34590Y25581D01*
X34500Y25799D01*
X34377Y26001D01*
X34223Y26180D01*
X34044Y26333D01*
X33842Y26457D01*
X33624Y26547D01*
X33395Y26602D01*
X33159Y26616D01*
X29159Y26609D01*
Y74341D01*
X29541Y74182D01*
X30154Y74035D01*
X30781Y73986D01*
X31409Y74035D01*
X32021Y74182D01*
X32603Y74423D01*
X33140Y74752D01*
X33618Y75161D01*
X34027Y75640D01*
X34094Y75748D01*
X34630D01*
X34718Y75741D01*
X35071Y75769D01*
X35071Y75769D01*
X35416Y75852D01*
X35743Y75987D01*
X36045Y76172D01*
X36314Y76402D01*
X36372Y76470D01*
X39152Y79250D01*
Y13130D01*
X38453Y13074D01*
X37764Y12909D01*
X37110Y12638D01*
X36506Y12268D01*
X35968Y11808D01*
X35508Y11269D01*
X35137Y10665D01*
X34866Y10011D01*
X34701Y9322D01*
X34645Y8616D01*
X34701Y7910D01*
X34866Y7221D01*
X35137Y6567D01*
X35508Y5963D01*
X35968Y5424D01*
X36506Y4964D01*
X37110Y4594D01*
X37764Y4323D01*
X38453Y4158D01*
X39152Y4103D01*
Y3235D01*
G37*
G36*
X19159Y128073D02*X29159D01*
Y81656D01*
X28960Y81573D01*
X28423Y81244D01*
X27944Y80835D01*
X27535Y80357D01*
X27469Y80248D01*
X21299D01*
X21232Y80357D01*
X20823Y80835D01*
X20345Y81244D01*
X19808Y81573D01*
X19226Y81814D01*
X19159Y81830D01*
Y128073D01*
G37*
G36*
X29159Y3235D02*X19159D01*
Y4123D01*
X22395Y4130D01*
X22624Y4185D01*
X22842Y4276D01*
X23044Y4399D01*
X23223Y4552D01*
X23377Y4732D01*
X23500Y4933D01*
X23590Y5151D01*
X23645Y5381D01*
X23659Y5616D01*
X23645Y11852D01*
X23590Y12081D01*
X23500Y12299D01*
X23377Y12501D01*
X23223Y12680D01*
X23044Y12833D01*
X22842Y12957D01*
X22624Y13047D01*
X22395Y13102D01*
X22159Y13116D01*
X19159Y13110D01*
Y74166D01*
X19226Y74182D01*
X19808Y74423D01*
X20345Y74752D01*
X20823Y75161D01*
X21232Y75640D01*
X21299Y75748D01*
X27469D01*
X27535Y75640D01*
X27944Y75161D01*
X28423Y74752D01*
X28960Y74423D01*
X29159Y74341D01*
Y26609D01*
X24924Y26602D01*
X24694Y26547D01*
X24476Y26457D01*
X24275Y26333D01*
X24095Y26180D01*
X23942Y26001D01*
X23819Y25799D01*
X23728Y25581D01*
X23673Y25352D01*
X23659Y25116D01*
X23673Y16881D01*
X23728Y16651D01*
X23819Y16433D01*
X23942Y16232D01*
X24095Y16052D01*
X24275Y15899D01*
X24476Y15776D01*
X24694Y15685D01*
X24924Y15630D01*
X25159Y15616D01*
X29159Y15623D01*
Y13130D01*
X28453Y13074D01*
X27764Y12909D01*
X27110Y12638D01*
X26506Y12268D01*
X25968Y11808D01*
X25508Y11269D01*
X25137Y10665D01*
X24866Y10011D01*
X24701Y9322D01*
X24645Y8616D01*
X24701Y7910D01*
X24866Y7221D01*
X25137Y6567D01*
X25508Y5963D01*
X25968Y5424D01*
X26506Y4964D01*
X27110Y4594D01*
X27764Y4323D01*
X28453Y4158D01*
X29159Y4102D01*
Y3235D01*
G37*
G36*
X19159D02*X12772D01*
Y4247D01*
X12842Y4276D01*
X13044Y4399D01*
X13223Y4552D01*
X13377Y4732D01*
X13500Y4933D01*
X13590Y5151D01*
X13645Y5381D01*
X13659Y5616D01*
X13645Y11852D01*
X13590Y12081D01*
X13500Y12299D01*
X13377Y12501D01*
X13223Y12680D01*
X13044Y12833D01*
X12842Y12957D01*
X12772Y12986D01*
Y16469D01*
X12815Y16476D01*
X12927Y16514D01*
X13032Y16568D01*
X13127Y16638D01*
X13210Y16722D01*
X13279Y16818D01*
X13329Y16925D01*
X13478Y17332D01*
X13581Y17753D01*
X13644Y18183D01*
X13665Y18616D01*
X13644Y19050D01*
X13581Y19479D01*
X13478Y19900D01*
X13334Y20310D01*
X13282Y20416D01*
X13213Y20513D01*
X13129Y20597D01*
X13034Y20667D01*
X12929Y20722D01*
X12816Y20760D01*
X12772Y20767D01*
Y125978D01*
X14868Y128073D01*
X19159D01*
Y81830D01*
X18614Y81961D01*
X17986Y82011D01*
X17359Y81961D01*
X16746Y81814D01*
X16165Y81573D01*
X15628Y81244D01*
X15149Y80835D01*
X14740Y80357D01*
X14411Y79820D01*
X14170Y79238D01*
X14023Y78626D01*
X13974Y77998D01*
X14023Y77371D01*
X14170Y76758D01*
X14411Y76177D01*
X14740Y75640D01*
X15149Y75161D01*
X15628Y74752D01*
X16165Y74423D01*
X16746Y74182D01*
X17359Y74035D01*
X17986Y73986D01*
X18614Y74035D01*
X19159Y74166D01*
Y13110D01*
X15924Y13102D01*
X15694Y13047D01*
X15476Y12957D01*
X15275Y12833D01*
X15095Y12680D01*
X14942Y12501D01*
X14819Y12299D01*
X14728Y12081D01*
X14673Y11852D01*
X14659Y11616D01*
X14673Y5381D01*
X14728Y5151D01*
X14819Y4933D01*
X14942Y4732D01*
X15095Y4552D01*
X15275Y4399D01*
X15476Y4276D01*
X15694Y4185D01*
X15924Y4130D01*
X16159Y4116D01*
X19159Y4123D01*
Y3235D01*
G37*
G36*
X12772Y12986D02*X12624Y13047D01*
X12395Y13102D01*
X12159Y13116D01*
X7154Y13105D01*
Y14685D01*
X7181Y14649D01*
X7265Y14566D01*
X7361Y14497D01*
X7468Y14446D01*
X7875Y14298D01*
X8297Y14194D01*
X8726Y14132D01*
X9159Y14111D01*
X9593Y14132D01*
X10022Y14194D01*
X10443Y14298D01*
X10853Y14441D01*
X10959Y14494D01*
X11056Y14563D01*
X11140Y14646D01*
X11211Y14742D01*
X11265Y14847D01*
X11303Y14959D01*
X11322Y15076D01*
X11323Y15195D01*
X11305Y15312D01*
X11269Y15425D01*
X11216Y15531D01*
X11147Y15628D01*
X11064Y15712D01*
X10969Y15783D01*
X10863Y15837D01*
X10751Y15875D01*
X10634Y15894D01*
X10515Y15895D01*
X10398Y15877D01*
X10286Y15839D01*
X10014Y15741D01*
X9734Y15672D01*
X9448Y15630D01*
X9159Y15616D01*
X8871Y15630D01*
X8585Y15672D01*
X8304Y15741D01*
X8032Y15836D01*
X7920Y15874D01*
X7803Y15892D01*
X7685Y15891D01*
X7569Y15871D01*
X7457Y15834D01*
X7352Y15780D01*
X7257Y15710D01*
X7174Y15626D01*
X7154Y15598D01*
Y21629D01*
X7171Y21604D01*
X7255Y21520D01*
X7350Y21450D01*
X7455Y21395D01*
X7568Y21358D01*
X7685Y21338D01*
X7803Y21337D01*
X7921Y21355D01*
X8033Y21393D01*
X8304Y21492D01*
X8585Y21561D01*
X8871Y21602D01*
X9159Y21616D01*
X9448Y21602D01*
X9734Y21561D01*
X10014Y21492D01*
X10287Y21396D01*
X10399Y21358D01*
X10515Y21341D01*
X10634Y21342D01*
X10750Y21361D01*
X10862Y21398D01*
X10967Y21453D01*
X11062Y21523D01*
X11145Y21607D01*
X11213Y21703D01*
X11266Y21808D01*
X11302Y21921D01*
X11319Y22038D01*
X11319Y22156D01*
X11299Y22272D01*
X11262Y22384D01*
X11208Y22489D01*
X11138Y22584D01*
X11053Y22667D01*
X10957Y22735D01*
X10851Y22786D01*
X10443Y22935D01*
X10022Y23038D01*
X9593Y23101D01*
X9159Y23121D01*
X8726Y23101D01*
X8297Y23038D01*
X7875Y22935D01*
X7466Y22791D01*
X7359Y22738D01*
X7263Y22669D01*
X7178Y22586D01*
X7154Y22553D01*
Y58506D01*
X7159Y58505D01*
X7709Y58549D01*
X8244Y58677D01*
X8753Y58888D01*
X9223Y59176D01*
X9642Y59534D01*
X10000Y59953D01*
X10287Y60422D01*
X10498Y60931D01*
X10627Y61467D01*
X10659Y62016D01*
X10627Y62565D01*
X10498Y63101D01*
X10287Y63610D01*
X10000Y64080D01*
X9642Y64499D01*
X9223Y64856D01*
X8753Y65144D01*
X8244Y65355D01*
X7709Y65484D01*
X7159Y65527D01*
X7154Y65527D01*
Y66406D01*
X7159Y66405D01*
X7709Y66449D01*
X8244Y66577D01*
X8753Y66788D01*
X9223Y67076D01*
X9642Y67434D01*
X10000Y67853D01*
X10287Y68322D01*
X10498Y68831D01*
X10627Y69367D01*
X10659Y69916D01*
X10627Y70465D01*
X10498Y71001D01*
X10287Y71510D01*
X10000Y71980D01*
X9642Y72399D01*
X9223Y72756D01*
X8753Y73044D01*
X8244Y73255D01*
X7709Y73384D01*
X7159Y73427D01*
X7154Y73427D01*
Y74306D01*
X7159Y74305D01*
X7709Y74349D01*
X8244Y74477D01*
X8753Y74688D01*
X9223Y74976D01*
X9642Y75334D01*
X10000Y75753D01*
X10287Y76222D01*
X10498Y76731D01*
X10627Y77267D01*
X10659Y77816D01*
X10627Y78365D01*
X10498Y78901D01*
X10287Y79410D01*
X10000Y79880D01*
X9642Y80299D01*
X9223Y80656D01*
X8753Y80944D01*
X8244Y81155D01*
X7709Y81284D01*
X7159Y81327D01*
X7154Y81327D01*
Y82206D01*
X7159Y82205D01*
X7709Y82249D01*
X8244Y82377D01*
X8753Y82588D01*
X9223Y82876D01*
X9642Y83234D01*
X10000Y83653D01*
X10287Y84122D01*
X10498Y84631D01*
X10627Y85167D01*
X10659Y85716D01*
X10627Y86265D01*
X10498Y86801D01*
X10287Y87310D01*
X10000Y87780D01*
X9642Y88199D01*
X9223Y88556D01*
X8753Y88844D01*
X8244Y89055D01*
X7709Y89184D01*
X7159Y89227D01*
X7154Y89227D01*
Y90106D01*
X7159Y90105D01*
X7709Y90149D01*
X8244Y90277D01*
X8753Y90488D01*
X9223Y90776D01*
X9642Y91134D01*
X10000Y91553D01*
X10287Y92022D01*
X10498Y92531D01*
X10627Y93067D01*
X10659Y93616D01*
X10627Y94165D01*
X10498Y94701D01*
X10287Y95210D01*
X10000Y95680D01*
X9642Y96099D01*
X9223Y96456D01*
X8753Y96744D01*
X8244Y96955D01*
X7709Y97084D01*
X7159Y97127D01*
X7154Y97127D01*
Y98006D01*
X7159Y98005D01*
X7709Y98049D01*
X8244Y98177D01*
X8753Y98388D01*
X9223Y98676D01*
X9642Y99034D01*
X10000Y99453D01*
X10287Y99922D01*
X10498Y100431D01*
X10627Y100967D01*
X10659Y101516D01*
X10627Y102065D01*
X10498Y102601D01*
X10287Y103110D01*
X10000Y103580D01*
X9642Y103999D01*
X9223Y104356D01*
X8753Y104644D01*
X8244Y104855D01*
X7709Y104984D01*
X7159Y105027D01*
X7154Y105027D01*
Y105906D01*
X7159Y105905D01*
X7709Y105949D01*
X8244Y106077D01*
X8753Y106288D01*
X9223Y106576D01*
X9642Y106934D01*
X10000Y107353D01*
X10287Y107822D01*
X10498Y108331D01*
X10627Y108867D01*
X10659Y109416D01*
X10627Y109965D01*
X10498Y110501D01*
X10287Y111010D01*
X10000Y111480D01*
X9642Y111899D01*
X9223Y112256D01*
X8753Y112544D01*
X8244Y112755D01*
X7709Y112884D01*
X7159Y112927D01*
X7154Y112927D01*
Y113806D01*
X7159Y113805D01*
X7709Y113849D01*
X8244Y113977D01*
X8753Y114188D01*
X9223Y114476D01*
X9642Y114834D01*
X10000Y115253D01*
X10287Y115722D01*
X10498Y116231D01*
X10627Y116767D01*
X10659Y117316D01*
X10627Y117865D01*
X10498Y118401D01*
X10444Y118532D01*
X12115Y120203D01*
X12160Y120241D01*
X12313Y120421D01*
X12314Y120421D01*
X12437Y120622D01*
X12527Y120840D01*
X12582Y121070D01*
X12601Y121305D01*
X12596Y121364D01*
Y125802D01*
X12772Y125978D01*
Y20767D01*
X12699Y20779D01*
X12580Y20780D01*
X12463Y20762D01*
X12350Y20726D01*
X12244Y20673D01*
X12148Y20604D01*
X12063Y20521D01*
X11993Y20426D01*
X11938Y20320D01*
X11901Y20208D01*
X11881Y20091D01*
X11880Y19972D01*
X11898Y19855D01*
X11936Y19743D01*
X12035Y19471D01*
X12104Y19191D01*
X12145Y18905D01*
X12159Y18616D01*
X12145Y18328D01*
X12104Y18042D01*
X12035Y17761D01*
X11939Y17488D01*
X11901Y17377D01*
X11884Y17260D01*
X11885Y17142D01*
X11904Y17026D01*
X11941Y16914D01*
X11996Y16809D01*
X12066Y16714D01*
X12150Y16631D01*
X12246Y16562D01*
X12351Y16509D01*
X12464Y16474D01*
X12581Y16456D01*
X12699Y16457D01*
X12772Y16469D01*
Y12986D01*
G37*
G36*
Y3235D02*X7154D01*
Y4118D01*
X12395Y4130D01*
X12624Y4185D01*
X12772Y4247D01*
Y3235D01*
G37*
G36*
X5546Y58900D02*X5565Y58888D01*
X6074Y58677D01*
X6610Y58549D01*
X7154Y58506D01*
Y22553D01*
X7108Y22491D01*
X7053Y22385D01*
X7016Y22273D01*
X6997Y22156D01*
X6996Y22037D01*
X7013Y21920D01*
X7049Y21807D01*
X7102Y21701D01*
X7154Y21629D01*
Y15598D01*
X7105Y15530D01*
X7052Y15424D01*
X7017Y15312D01*
X6999Y15195D01*
X7000Y15077D01*
X7019Y14960D01*
X7057Y14848D01*
X7111Y14744D01*
X7154Y14685D01*
Y13105D01*
X5924Y13102D01*
X5694Y13047D01*
X5546Y12986D01*
Y16466D01*
X5620Y16453D01*
X5738Y16453D01*
X5855Y16470D01*
X5969Y16506D01*
X6075Y16559D01*
X6171Y16628D01*
X6256Y16711D01*
X6326Y16807D01*
X6381Y16912D01*
X6418Y17025D01*
X6437Y17142D01*
X6438Y17260D01*
X6421Y17378D01*
X6383Y17490D01*
X6284Y17761D01*
X6215Y18042D01*
X6173Y18328D01*
X6159Y18616D01*
X6173Y18905D01*
X6215Y19191D01*
X6284Y19471D01*
X6379Y19744D01*
X6417Y19856D01*
X6435Y19972D01*
X6434Y20090D01*
X6415Y20207D01*
X6377Y20319D01*
X6323Y20424D01*
X6253Y20519D01*
X6169Y20602D01*
X6073Y20670D01*
X5967Y20723D01*
X5855Y20759D01*
X5738Y20776D01*
X5620Y20775D01*
X5546Y20763D01*
Y58900D01*
G37*
G36*
Y66800D02*X5565Y66788D01*
X6074Y66577D01*
X6610Y66449D01*
X7154Y66406D01*
Y65527D01*
X6610Y65484D01*
X6074Y65355D01*
X5565Y65144D01*
X5546Y65133D01*
Y66800D01*
G37*
G36*
Y74700D02*X5565Y74688D01*
X6074Y74477D01*
X6610Y74349D01*
X7154Y74306D01*
Y73427D01*
X6610Y73384D01*
X6074Y73255D01*
X5565Y73044D01*
X5546Y73033D01*
Y74700D01*
G37*
G36*
Y82600D02*X5565Y82588D01*
X6074Y82377D01*
X6610Y82249D01*
X7154Y82206D01*
Y81327D01*
X6610Y81284D01*
X6074Y81155D01*
X5565Y80944D01*
X5546Y80933D01*
Y82600D01*
G37*
G36*
Y90500D02*X5565Y90488D01*
X6074Y90277D01*
X6610Y90149D01*
X7154Y90106D01*
Y89227D01*
X6610Y89184D01*
X6074Y89055D01*
X5565Y88844D01*
X5546Y88833D01*
Y90500D01*
G37*
G36*
Y98400D02*X5565Y98388D01*
X6074Y98177D01*
X6610Y98049D01*
X7154Y98006D01*
Y97127D01*
X6610Y97084D01*
X6074Y96955D01*
X5565Y96744D01*
X5546Y96733D01*
Y98400D01*
G37*
G36*
Y106300D02*X5565Y106288D01*
X6074Y106077D01*
X6610Y105949D01*
X7154Y105906D01*
Y105027D01*
X6610Y104984D01*
X6074Y104855D01*
X5565Y104644D01*
X5546Y104633D01*
Y106300D01*
G37*
G36*
Y114200D02*X5565Y114188D01*
X6074Y113977D01*
X6610Y113849D01*
X7154Y113806D01*
Y112927D01*
X6610Y112884D01*
X6074Y112755D01*
X5565Y112544D01*
X5546Y112533D01*
Y114200D01*
G37*
G36*
Y122100D02*X5565Y122088D01*
X6074Y121877D01*
X6610Y121749D01*
X7154Y121706D01*
Y120827D01*
X6610Y120784D01*
X6074Y120655D01*
X5565Y120444D01*
X5546Y120433D01*
Y122100D01*
G37*
G36*
Y130000D02*X5565Y129988D01*
X6074Y129777D01*
X6610Y129649D01*
X7154Y129606D01*
Y128727D01*
X6610Y128684D01*
X6074Y128555D01*
X5565Y128344D01*
X5546Y128333D01*
Y130000D01*
G37*
G36*
Y139786D02*X7154D01*
Y136627D01*
X6610Y136584D01*
X6074Y136455D01*
X5565Y136244D01*
X5546Y136233D01*
Y139786D01*
G37*
G36*
X7154Y3235D02*X5546D01*
Y4247D01*
X5694Y4185D01*
X5924Y4130D01*
X6159Y4116D01*
X7154Y4118D01*
Y3235D01*
G37*
G36*
X5546D02*X1659D01*
Y139786D01*
X5546D01*
Y136233D01*
X5096Y135956D01*
X4677Y135599D01*
X4319Y135180D01*
X4031Y134710D01*
X3820Y134201D01*
X3692Y133665D01*
X3649Y133116D01*
X3692Y132567D01*
X3820Y132031D01*
X4031Y131522D01*
X4319Y131053D01*
X4677Y130634D01*
X5096Y130276D01*
X5546Y130000D01*
Y128333D01*
X5096Y128056D01*
X4677Y127699D01*
X4319Y127280D01*
X4031Y126810D01*
X3820Y126301D01*
X3692Y125765D01*
X3649Y125216D01*
X3692Y124667D01*
X3820Y124131D01*
X4031Y123622D01*
X4319Y123153D01*
X4677Y122734D01*
X5096Y122376D01*
X5546Y122100D01*
Y120433D01*
X5096Y120156D01*
X4677Y119799D01*
X4319Y119380D01*
X4031Y118910D01*
X3820Y118401D01*
X3692Y117865D01*
X3649Y117316D01*
X3692Y116767D01*
X3820Y116231D01*
X4031Y115722D01*
X4319Y115253D01*
X4677Y114834D01*
X5096Y114476D01*
X5546Y114200D01*
Y112533D01*
X5096Y112256D01*
X4677Y111899D01*
X4319Y111480D01*
X4031Y111010D01*
X3820Y110501D01*
X3692Y109965D01*
X3649Y109416D01*
X3692Y108867D01*
X3820Y108331D01*
X4031Y107822D01*
X4319Y107353D01*
X4677Y106934D01*
X5096Y106576D01*
X5546Y106300D01*
Y104633D01*
X5096Y104356D01*
X4677Y103999D01*
X4319Y103580D01*
X4031Y103110D01*
X3820Y102601D01*
X3692Y102065D01*
X3649Y101516D01*
X3692Y100967D01*
X3820Y100431D01*
X4031Y99922D01*
X4319Y99453D01*
X4677Y99034D01*
X5096Y98676D01*
X5546Y98400D01*
Y96733D01*
X5096Y96456D01*
X4677Y96099D01*
X4319Y95680D01*
X4031Y95210D01*
X3820Y94701D01*
X3692Y94165D01*
X3649Y93616D01*
X3692Y93067D01*
X3820Y92531D01*
X4031Y92022D01*
X4319Y91553D01*
X4677Y91134D01*
X5096Y90776D01*
X5546Y90500D01*
Y88833D01*
X5096Y88556D01*
X4677Y88199D01*
X4319Y87780D01*
X4031Y87310D01*
X3820Y86801D01*
X3692Y86265D01*
X3649Y85716D01*
X3692Y85167D01*
X3820Y84631D01*
X4031Y84122D01*
X4319Y83653D01*
X4677Y83234D01*
X5096Y82876D01*
X5546Y82600D01*
Y80933D01*
X5096Y80656D01*
X4677Y80299D01*
X4319Y79880D01*
X4031Y79410D01*
X3820Y78901D01*
X3692Y78365D01*
X3649Y77816D01*
X3692Y77267D01*
X3820Y76731D01*
X4031Y76222D01*
X4319Y75753D01*
X4677Y75334D01*
X5096Y74976D01*
X5546Y74700D01*
Y73033D01*
X5096Y72756D01*
X4677Y72399D01*
X4319Y71980D01*
X4031Y71510D01*
X3820Y71001D01*
X3692Y70465D01*
X3649Y69916D01*
X3692Y69367D01*
X3820Y68831D01*
X4031Y68322D01*
X4319Y67853D01*
X4677Y67434D01*
X5096Y67076D01*
X5546Y66800D01*
Y65133D01*
X5096Y64856D01*
X4677Y64499D01*
X4319Y64080D01*
X4031Y63610D01*
X3820Y63101D01*
X3692Y62565D01*
X3649Y62016D01*
X3692Y61467D01*
X3820Y60931D01*
X4031Y60422D01*
X4319Y59953D01*
X4677Y59534D01*
X5096Y59176D01*
X5546Y58900D01*
Y20763D01*
X5503Y20756D01*
X5391Y20719D01*
X5287Y20664D01*
X5192Y20594D01*
X5109Y20510D01*
X5040Y20414D01*
X4989Y20308D01*
X4841Y19900D01*
X4737Y19479D01*
X4675Y19050D01*
X4654Y18616D01*
X4675Y18183D01*
X4737Y17753D01*
X4841Y17332D01*
X4985Y16923D01*
X5037Y16816D01*
X5106Y16720D01*
X5189Y16635D01*
X5285Y16565D01*
X5390Y16510D01*
X5503Y16473D01*
X5546Y16466D01*
Y12986D01*
X5476Y12957D01*
X5275Y12833D01*
X5095Y12680D01*
X4942Y12501D01*
X4819Y12299D01*
X4728Y12081D01*
X4673Y11852D01*
X4659Y11616D01*
X4673Y5381D01*
X4728Y5151D01*
X4819Y4933D01*
X4942Y4732D01*
X5095Y4552D01*
X5275Y4399D01*
X5476Y4276D01*
X5546Y4247D01*
Y3235D01*
G37*
G54D31*X68183Y31738D02*X74088Y25833D01*
Y8116D01*
X68183Y31738D02*Y92761D01*
X17986Y77998D02*X34718D01*
X50466Y93746D01*
X67198D01*
X68183Y92761D02*X67198Y93746D01*
X74088Y25833D02*X79009Y30754D01*
X88797D01*
X94159Y36116D01*
G54D32*X65230Y44533D02*Y30754D01*
X71135Y24848D01*
Y16974D01*
X66214Y12053D01*
X65230Y43549D02*Y70124D01*
X59324Y76029D01*
X50466D01*
X89814Y99674D02*Y50461D01*
X94159Y46116D01*
X87671Y53588D02*X84915Y50833D01*
X78876D01*
X74159Y46116D01*
X87671Y98864D02*Y53588D01*
X55387Y131147D02*X52238Y127998D01*
X48891D01*
X13458Y131541D02*X50072D01*
X50466Y131147D01*
X48891Y127998D02*X47316Y129573D01*
X14246D01*
X13065Y131147D02*X7159Y125242D01*
X12868Y130951D02*X13458Y131541D01*
X14246Y129573D02*X11096Y126423D01*
Y121305D01*
X7159Y117368D01*
X34718Y95714D02*X41608Y102604D01*
X46529D01*
X34718Y100636D02*X38655Y104573D01*
X84915D01*
X89814Y99674D01*
X46135Y102604D02*X83931D01*
X87671Y98864D01*
G54D30*G36*
X71159Y11616D02*Y5616D01*
X77159D01*
Y11616D01*
X71159D01*
G37*
G54D33*X84159Y8616D03*
X94159D03*
G54D34*X91659Y21116D03*
G54D33*X94159Y36116D03*
G54D30*G36*
X91159Y49116D02*Y43116D01*
X97159D01*
Y49116D01*
X91159D01*
G37*
G54D33*X84159Y46116D03*
Y36116D03*
X74159Y46116D03*
Y36116D03*
G54D30*G36*
X6159Y11616D02*Y5616D01*
X12159D01*
Y11616D01*
X6159D01*
G37*
G54D33*X9159Y18616D03*
G54D30*G36*
X16159Y11616D02*Y5616D01*
X22159D01*
Y11616D01*
X16159D01*
G37*
G54D33*X29159Y8616D03*
X39159D03*
X49159D03*
G54D30*G36*
X25159Y25116D02*Y17116D01*
X33159D01*
Y25116D01*
X25159D01*
G37*
G54D35*X7159Y62016D03*
Y69916D03*
Y77816D03*
Y85716D03*
Y93616D03*
Y101516D03*
Y109416D03*
Y117316D03*
Y125216D03*
Y133116D03*
X93759Y62016D03*
Y69916D03*
Y77816D03*
Y85716D03*
Y93616D03*
Y101516D03*
Y109416D03*
Y117316D03*
Y125216D03*
Y133116D03*
G54D36*X50466Y131147D03*
X55387D03*
X66214Y123273D03*
X85899Y133116D03*
X66214D03*
X17986Y119336D03*
X50466Y76029D03*
X66214Y12053D03*
G54D33*X58340Y60281D03*
G54D36*X28813Y28785D03*
G54D33*X66214Y20911D03*
G54D36*X94159Y28616D03*
G54D33*X17986Y77998D03*
X30781D03*
G54D36*X17986Y90793D03*
X34718Y95714D03*
Y100636D03*
X50466Y112447D03*
X34718D03*
X42592Y98667D03*
X67198Y93746D03*
X82159Y94927D03*
X83931Y107525D03*
X42592Y77014D03*
G54D37*G54D38*G54D37*G54D38*G54D37*G54D38*G54D37*G54D39*G54D35*G54D39*G54D35*G54D40*M02*
