G04 start of page 8 for group -4079 idx -4079 *
G04 Title: (unknown), topsilk *
G04 Creator: pcb 20110918 *
G04 CreationDate: Sun Sep 22 23:55:29 2013 UTC *
G04 For: mokus *
G04 Format: Gerber/RS-274X *
G04 PCB-Dimensions: 100000 140000 *
G04 PCB-Coordinate-Origin: lower left *
%MOIN*%
%FSLAX25Y25*%
%LNTOPSILK*%
%ADD65C,0.0050*%
%ADD64C,0.0200*%
%ADD63C,0.0080*%
%ADD62C,0.0100*%
G54D62*X90046Y52884D02*X97886D01*
X12759Y55616D02*X33459D01*
Y73916D02*Y55616D01*
X12759Y73916D02*X33459D01*
X12759D02*Y55616D01*
G54D63*X32035Y118148D02*X55893D01*
Y91390D01*
X29135D02*X55893D01*
X29135Y115248D02*Y91390D01*
Y115248D02*X32035Y118148D01*
X31035Y115248D02*G75*G03X31035Y115248I1000J0D01*G01*
G54D62*X72614Y69413D02*Y55513D01*
X59814Y69413D02*X72614D01*
X59814D02*Y55513D01*
X72614D01*
X56866Y69413D02*Y55513D01*
X44066Y69413D02*X56866D01*
X44066D02*Y55513D01*
X56866D01*
G54D63*X2459Y137416D02*X98459D01*
Y54416D01*
X2459D02*X98459D01*
X2459Y137416D02*Y54416D01*
G54D64*X29059Y50016D02*Y32216D01*
G54D62*Y50016D02*X25359Y52516D01*
X5259D02*X25359D01*
X5259D02*Y29716D01*
X25359D01*
X29059Y32216D01*
G54D64*X54259Y50016D02*Y32216D01*
G54D62*Y50016D02*X50559Y52516D01*
X30459D02*X50559D01*
X30459D02*Y29716D01*
X50559D01*
X54259Y32216D01*
X14159Y23616D02*Y3616D01*
X4159Y23616D02*X14159D01*
X4159D02*Y3616D01*
X14159D01*
X4159Y13616D02*X14159D01*
X4159D02*Y3616D01*
X14159D02*X54159D01*
Y13616D02*Y3616D01*
X14159Y13616D02*X54159D01*
X14159D02*Y3616D01*
X24159Y13616D02*Y3616D01*
X14159Y13616D02*X24159D01*
X88362Y69413D02*Y55513D01*
X75562Y69413D02*X88362D01*
X75562D02*Y55513D01*
X88362D01*
X69159Y3616D02*X99159D01*
Y13616D02*Y3616D01*
X69159Y13616D02*X99159D01*
X69159D02*Y3616D01*
X79159Y13616D02*Y3616D01*
X69159Y13616D02*X79159D01*
X29159Y21116D02*X44759D01*
X76059D02*X91659D01*
X44759Y26316D02*X76059D01*
Y15916D01*
X44759D02*X76059D01*
X44759Y26316D02*Y15916D01*
X69159Y51116D02*X99159D01*
X69159D02*Y31116D01*
X99159D01*
Y51116D02*Y31116D01*
X89159Y51116D02*Y41116D01*
X99159D01*
G54D65*X21568Y59976D02*X21068Y60476D01*
Y61476D02*Y60476D01*
Y61476D02*X21568Y61976D01*
X25068Y61476D02*X24568Y61976D01*
X25068Y61476D02*Y60476D01*
X24568Y59976D02*X25068Y60476D01*
X22868Y61476D02*Y60476D01*
X21568Y61976D02*X22368D01*
X23368D02*X24568D01*
X23368D02*X22868Y61476D01*
X22368Y61976D02*X22868Y61476D01*
X25068Y63676D02*Y63176D01*
X21568Y64876D02*X21068Y65376D01*
Y66376D02*Y65376D01*
Y66376D02*X21568Y66876D01*
X25068Y66376D02*X24568Y66876D01*
X25068Y66376D02*Y65376D01*
X24568Y64876D02*X25068Y65376D01*
X22868Y66376D02*Y65376D01*
X21568Y66876D02*X22368D01*
X23368D02*X24568D01*
X23368D02*X22868Y66376D01*
X22368Y66876D02*X22868Y66376D01*
X23068Y68076D02*X25068Y69076D01*
X23068Y70076D02*X25068Y69076D01*
X11616Y27933D02*X12416Y28733D01*
Y24733D01*
X11616D02*X13116D01*
X14316Y25233D02*X14816Y24733D01*
X14316Y28233D02*Y25233D01*
Y28233D02*X14816Y28733D01*
X15816D01*
X16316Y28233D01*
Y25233D01*
X15816Y24733D02*X16316Y25233D01*
X14816Y24733D02*X15816D01*
X14316Y25733D02*X16316Y27733D01*
X17516Y25233D02*X18016Y24733D01*
X17516Y28233D02*Y25233D01*
Y28233D02*X18016Y28733D01*
X19016D01*
X19516Y28233D01*
Y25233D01*
X19016Y24733D02*X19516Y25233D01*
X18016Y24733D02*X19016D01*
X17516Y25733D02*X19516Y27733D01*
X20716Y26733D02*Y25233D01*
X21216Y24733D01*
X22216D01*
X22716Y25233D01*
Y26733D02*Y25233D01*
X33269Y25639D02*X35269Y28139D01*
X33269Y25639D02*X35769D01*
X35269Y28139D02*Y24139D01*
X37469D02*X39469Y28139D01*
X36969D02*X39469D01*
X40669Y26139D02*Y24639D01*
X41169Y24139D01*
X42169D01*
X42669Y24639D01*
Y26139D02*Y24639D01*
X16883Y127829D02*X17383Y127329D01*
X16883Y130829D02*Y127829D01*
Y130829D02*X17383Y131329D01*
X18383D01*
X18883Y130829D01*
Y127829D01*
X18383Y127329D02*X18883Y127829D01*
X17383Y127329D02*X18383D01*
X16883Y128329D02*X18883Y130329D01*
X20083Y127329D02*X20583D01*
X21783Y130529D02*X22583Y131329D01*
Y127329D01*
X21783D02*X23283D01*
X24483Y129329D02*Y127829D01*
X24983Y127329D01*
X25983D01*
X26483Y127829D01*
Y129329D02*Y127829D01*
X58059Y22116D02*X58859Y22916D01*
Y18916D01*
X58059D02*X59559D01*
X60759Y22916D02*X62759D01*
X60759D02*Y20916D01*
X61259Y21416D01*
X62259D01*
X62759Y20916D01*
Y19416D01*
X62259Y18916D02*X62759Y19416D01*
X61259Y18916D02*X62259D01*
X60759Y19416D02*X61259Y18916D01*
X69026Y99207D02*X69526Y98707D01*
X69026Y102207D02*Y99207D01*
Y102207D02*X69526Y102707D01*
X70526D01*
X71026Y102207D01*
Y99207D01*
X70526Y98707D02*X71026Y99207D01*
X69526Y98707D02*X70526D01*
X69026Y99707D02*X71026Y101707D01*
X72226Y98707D02*X72726D01*
X73926Y101907D02*X74726Y102707D01*
Y98707D01*
X73926D02*X75426D01*
X76626Y100707D02*Y99207D01*
X77126Y98707D01*
X78126D01*
X78626Y99207D01*
Y100707D02*Y99207D01*
X11568Y88009D02*X12368Y88809D01*
Y84809D01*
X11568D02*X13068D01*
X14268Y85309D02*X14768Y84809D01*
X14268Y88309D02*Y85309D01*
Y88309D02*X14768Y88809D01*
X15768D01*
X16268Y88309D01*
Y85309D01*
X15768Y84809D02*X16268Y85309D01*
X14768Y84809D02*X15768D01*
X14268Y85809D02*X16268Y87809D01*
X17468Y88809D02*Y84809D01*
Y86309D02*X18968Y84809D01*
X17468Y86309D02*X18468Y87309D01*
X59850Y80397D02*X59050Y81197D01*
X63050D01*
Y81897D02*Y80397D01*
X62550Y83097D02*X63050Y83597D01*
X59550Y83097D02*X62550D01*
X59550D02*X59050Y83597D01*
Y84597D02*Y83597D01*
Y84597D02*X59550Y85097D01*
X62550D01*
X63050Y84597D02*X62550Y85097D01*
X63050Y84597D02*Y83597D01*
X62050Y83097D02*X60050Y85097D01*
X62550Y86297D02*X63050Y86797D01*
X59550Y86297D02*X62550D01*
X59550D02*X59050Y86797D01*
Y87797D02*Y86797D01*
Y87797D02*X59550Y88297D01*
X62550D01*
X63050Y87797D02*X62550Y88297D01*
X63050Y87797D02*Y86797D01*
X62050Y86297D02*X60050Y88297D01*
X59050Y89497D02*X63050D01*
X61550D02*X63050Y90997D01*
X61550Y89497D02*X60550Y90497D01*
X65004Y80550D02*X64204Y81350D01*
X68204D01*
Y82050D02*Y80550D01*
X64204Y85250D02*Y83250D01*
X66204D01*
X65704Y83750D01*
Y84750D02*Y83750D01*
Y84750D02*X66204Y85250D01*
X67704D01*
X68204Y84750D02*X67704Y85250D01*
X68204Y84750D02*Y83750D01*
X67704Y83250D02*X68204Y83750D01*
X67704Y86450D02*X68204Y86950D01*
X64704Y86450D02*X67704D01*
X64704D02*X64204Y86950D01*
Y87950D02*Y86950D01*
Y87950D02*X64704Y88450D01*
X67704D01*
X68204Y87950D02*X67704Y88450D01*
X68204Y87950D02*Y86950D01*
X67204Y86450D02*X65204Y88450D01*
X84924Y81132D02*X84124Y81932D01*
X88124D01*
Y82632D02*Y81132D01*
X84124Y85832D02*Y83832D01*
X86124D01*
X85624Y84332D01*
Y85332D02*Y84332D01*
Y85332D02*X86124Y85832D01*
X87624D01*
X88124Y85332D02*X87624Y85832D01*
X88124Y85332D02*Y84332D01*
X87624Y83832D02*X88124Y84332D01*
X87624Y87032D02*X88124Y87532D01*
X84624Y87032D02*X87624D01*
X84624D02*X84124Y87532D01*
Y88532D02*Y87532D01*
Y88532D02*X84624Y89032D01*
X87624D01*
X88124Y88532D02*X87624Y89032D01*
X88124Y88532D02*Y87532D01*
X87124Y87032D02*X85124Y89032D01*
X79982Y80782D02*X79182Y81582D01*
X83182D01*
Y82282D02*Y80782D01*
X82682Y83482D02*X83182Y83982D01*
X79682Y83482D02*X82682D01*
X79682D02*X79182Y83982D01*
Y84982D02*Y83982D01*
Y84982D02*X79682Y85482D01*
X82682D01*
X83182Y84982D02*X82682Y85482D01*
X83182Y84982D02*Y83982D01*
X82182Y83482D02*X80182Y85482D01*
X82682Y86682D02*X83182Y87182D01*
X79682Y86682D02*X82682D01*
X79682D02*X79182Y87182D01*
Y88182D02*Y87182D01*
Y88182D02*X79682Y88682D01*
X82682D01*
X83182Y88182D02*X82682Y88682D01*
X83182Y88182D02*Y87182D01*
X82182Y86682D02*X80182Y88682D01*
X79182Y89882D02*X83182D01*
X81682D02*X83182Y91382D01*
X81682Y89882D02*X80682Y90882D01*
X70083Y80579D02*X69283Y81379D01*
X73283D01*
Y82079D02*Y80579D01*
X72783Y83279D02*X73283Y83779D01*
X69783Y83279D02*X72783D01*
X69783D02*X69283Y83779D01*
Y84779D02*Y83779D01*
Y84779D02*X69783Y85279D01*
X72783D01*
X73283Y84779D02*X72783Y85279D01*
X73283Y84779D02*Y83779D01*
X72283Y83279D02*X70283Y85279D01*
X72783Y86479D02*X73283Y86979D01*
X69783Y86479D02*X72783D01*
X69783D02*X69283Y86979D01*
Y87979D02*Y86979D01*
Y87979D02*X69783Y88479D01*
X72783D01*
X73283Y87979D02*X72783Y88479D01*
X73283Y87979D02*Y86979D01*
X72283Y86479D02*X70283Y88479D01*
X69283Y89679D02*X73283D01*
X71783D02*X73283Y91179D01*
X71783Y89679D02*X70783Y90679D01*
X75084Y80621D02*X74284Y81421D01*
X78284D01*
Y82121D02*Y80621D01*
X74284Y85321D02*Y83321D01*
X76284D01*
X75784Y83821D01*
Y84821D02*Y83821D01*
Y84821D02*X76284Y85321D01*
X77784D01*
X78284Y84821D02*X77784Y85321D01*
X78284Y84821D02*Y83821D01*
X77784Y83321D02*X78284Y83821D01*
X77784Y86521D02*X78284Y87021D01*
X74784Y86521D02*X77784D01*
X74784D02*X74284Y87021D01*
Y88021D02*Y87021D01*
Y88021D02*X74784Y88521D01*
X77784D01*
X78284Y88021D02*X77784Y88521D01*
X78284Y88021D02*Y87021D01*
X77284Y86521D02*X75284Y88521D01*
X80226Y29683D02*Y25683D01*
X79726Y29683D02*X81726D01*
X82226Y29183D01*
Y28183D01*
X81726Y27683D02*X82226Y28183D01*
X80226Y27683D02*X81726D01*
X83926Y29683D02*Y25683D01*
X85226Y29683D02*X85926Y28983D01*
Y26383D01*
X85226Y25683D02*X85926Y26383D01*
X83426Y25683D02*X85226D01*
X83426Y29683D02*X85226D01*
X87126D02*X88126D01*
X87626D02*Y25683D01*
X87126D02*X88126D01*
M02*
