G04 start of page 7 for group -4062 idx -4062 *
G04 Title: (unknown), soldermask *
G04 Creator: pcb 20110918 *
G04 CreationDate: Fri Sep 13 22:17:45 2013 UTC *
G04 For: mokus *
G04 Format: Gerber/RS-274X *
G04 PCB-Dimensions: 100000 140000 *
G04 PCB-Coordinate-Origin: lower left *
%MOIN*%
%FSLAX25Y25*%
%LNBOTTOMMASK*%
%ADD61C,0.0500*%
%ADD60C,0.0860*%
%ADD59C,0.0660*%
%ADD58C,0.0001*%
G54D58*G36*
X70859Y11916D02*Y5316D01*
X77459D01*
Y11916D01*
X70859D01*
G37*
G54D59*X84159Y8616D03*
X94159D03*
G54D60*X91659Y21116D03*
G54D59*X94159Y36116D03*
G54D58*G36*
X90859Y49416D02*Y42816D01*
X97459D01*
Y49416D01*
X90859D01*
G37*
G54D59*X84159Y46116D03*
Y36116D03*
X74159Y46116D03*
Y36116D03*
G54D58*G36*
X5859Y11916D02*Y5316D01*
X12459D01*
Y11916D01*
X5859D01*
G37*
G54D59*X9159Y18616D03*
G54D58*G36*
X15859Y11916D02*Y5316D01*
X22459D01*
Y11916D01*
X15859D01*
G37*
G54D59*X29159Y8616D03*
X39159D03*
X49159D03*
G54D58*G36*
X24859Y25416D02*Y16816D01*
X33459D01*
Y25416D01*
X24859D01*
G37*
G54D61*X7159Y62016D03*
Y69916D03*
Y77816D03*
Y85716D03*
Y93616D03*
Y101516D03*
Y109416D03*
Y117316D03*
Y125216D03*
Y133116D03*
X93759Y62016D03*
Y69916D03*
Y77816D03*
Y85716D03*
Y93616D03*
Y101516D03*
Y109416D03*
Y117316D03*
Y125216D03*
Y133116D03*
M02*
