G04 start of page 2 for group 0 idx 0 *
G04 Title: (unknown), Signal (front) *
G04 Creator: pcb 20110918 *
G04 CreationDate: Fri Sep 13 22:17:45 2013 UTC *
G04 For: mokus *
G04 Format: Gerber/RS-274X *
G04 PCB-Dimensions: 100000 140000 *
G04 PCB-Coordinate-Origin: lower left *
%MOIN*%
%FSLAX25Y25*%
%LNTOP*%
%ADD29C,0.0300*%
%ADD28C,0.0380*%
%ADD27C,0.0350*%
%ADD26C,0.0200*%
%ADD25C,0.0360*%
%ADD24R,0.0610X0.0610*%
%ADD23R,0.0370X0.0370*%
%ADD22R,0.0340X0.0340*%
%ADD21R,0.0216X0.0216*%
%ADD20R,0.0750X0.0750*%
%ADD19R,0.0157X0.0157*%
%ADD18R,0.0335X0.0335*%
%ADD17C,0.0500*%
%ADD16C,0.0800*%
%ADD15C,0.0600*%
%ADD14C,0.0400*%
%ADD13C,0.0100*%
%ADD12C,0.0250*%
%ADD11C,0.0001*%
G54D11*G36*
X50959Y31175D02*X50966Y31175D01*
X51119Y31212D01*
X51265Y31272D01*
X51399Y31355D01*
X51519Y31457D01*
X51621Y31577D01*
X51703Y31711D01*
X51763Y31856D01*
X51800Y32009D01*
X51809Y32166D01*
X51800Y50223D01*
X51763Y50376D01*
X51703Y50522D01*
X51621Y50656D01*
X51519Y50775D01*
X51399Y50878D01*
X51265Y50960D01*
X51119Y51020D01*
X50966Y51057D01*
X50959Y51057D01*
Y53578D01*
X53358Y51179D01*
Y31983D01*
X50959Y29584D01*
Y31175D01*
G37*
G36*
X76032Y99151D02*X86241D01*
X88314Y97078D01*
Y78795D01*
X88308Y78822D01*
X88248Y78967D01*
X88165Y79101D01*
X88063Y79221D01*
X87943Y79323D01*
X87809Y79405D01*
X87664Y79466D01*
X87511Y79502D01*
X87354Y79512D01*
X85921Y79507D01*
X80487Y84942D01*
X80448Y84987D01*
X80269Y85140D01*
X80067Y85264D01*
X79849Y85354D01*
X79620Y85409D01*
X79619Y85409D01*
X79384Y85428D01*
X79326Y85423D01*
X76032D01*
Y91568D01*
X78475Y91574D01*
X78628Y91611D01*
X78774Y91671D01*
X78908Y91754D01*
X79028Y91856D01*
X79130Y91976D01*
X79212Y92110D01*
X79272Y92255D01*
X79309Y92408D01*
X79318Y92565D01*
X79309Y97052D01*
X79272Y97205D01*
X79212Y97351D01*
X79130Y97485D01*
X79028Y97604D01*
X78908Y97707D01*
X78774Y97789D01*
X78628Y97849D01*
X78475Y97886D01*
X78318Y97895D01*
X76032Y97889D01*
Y99151D01*
G37*
G36*
X97772Y139356D02*X98670D01*
Y3235D01*
X97772D01*
Y6469D01*
X97815Y6476D01*
X97927Y6514D01*
X98032Y6568D01*
X98127Y6638D01*
X98210Y6722D01*
X98279Y6818D01*
X98329Y6925D01*
X98478Y7332D01*
X98581Y7753D01*
X98644Y8183D01*
X98665Y8616D01*
X98644Y9050D01*
X98581Y9479D01*
X98478Y9900D01*
X98334Y10310D01*
X98282Y10416D01*
X98213Y10513D01*
X98129Y10597D01*
X98034Y10667D01*
X97929Y10722D01*
X97816Y10760D01*
X97772Y10767D01*
Y33418D01*
X97811Y33463D01*
X98181Y34067D01*
X98452Y34721D01*
X98618Y35410D01*
X98659Y36116D01*
X98618Y36822D01*
X98452Y37511D01*
X98181Y38165D01*
X97811Y38769D01*
X97772Y38815D01*
Y41747D01*
X97842Y41776D01*
X98044Y41899D01*
X98223Y42052D01*
X98377Y42232D01*
X98500Y42433D01*
X98590Y42651D01*
X98645Y42881D01*
X98659Y43116D01*
X98645Y49352D01*
X98590Y49581D01*
X98500Y49799D01*
X98377Y50001D01*
X98223Y50180D01*
X98044Y50333D01*
X97842Y50457D01*
X97772Y50486D01*
Y139356D01*
G37*
G36*
Y38815D02*X97351Y39308D01*
X96813Y39768D01*
X96209Y40138D01*
X95554Y40409D01*
X94865Y40574D01*
X94159Y40630D01*
X93754Y40598D01*
Y41622D01*
X97395Y41630D01*
X97624Y41685D01*
X97772Y41747D01*
Y38815D01*
G37*
G36*
Y3235D02*X93754D01*
Y4131D01*
X94159Y4111D01*
X94593Y4132D01*
X95022Y4194D01*
X95443Y4298D01*
X95853Y4441D01*
X95959Y4494D01*
X96056Y4563D01*
X96140Y4646D01*
X96211Y4742D01*
X96265Y4847D01*
X96303Y4959D01*
X96322Y5076D01*
X96323Y5195D01*
X96305Y5312D01*
X96269Y5425D01*
X96216Y5531D01*
X96147Y5628D01*
X96064Y5712D01*
X95969Y5783D01*
X95863Y5837D01*
X95751Y5875D01*
X95634Y5894D01*
X95515Y5895D01*
X95398Y5877D01*
X95286Y5839D01*
X95014Y5741D01*
X94734Y5672D01*
X94448Y5630D01*
X94159Y5616D01*
X93871Y5630D01*
X93754Y5647D01*
Y11585D01*
X93871Y11602D01*
X94159Y11616D01*
X94448Y11602D01*
X94734Y11561D01*
X95014Y11492D01*
X95287Y11396D01*
X95399Y11358D01*
X95515Y11341D01*
X95634Y11342D01*
X95750Y11361D01*
X95862Y11398D01*
X95967Y11453D01*
X96062Y11523D01*
X96145Y11607D01*
X96213Y11703D01*
X96266Y11808D01*
X96302Y11921D01*
X96319Y12038D01*
X96319Y12156D01*
X96299Y12272D01*
X96262Y12384D01*
X96208Y12489D01*
X96138Y12584D01*
X96053Y12667D01*
X95957Y12735D01*
X95851Y12786D01*
X95443Y12935D01*
X95022Y13038D01*
X94593Y13101D01*
X94159Y13121D01*
X93754Y13102D01*
Y16031D01*
X94164Y16201D01*
X94902Y16653D01*
X95560Y17215D01*
X96123Y17873D01*
X96575Y18612D01*
X96906Y19411D01*
X97108Y20253D01*
X97159Y21116D01*
X97108Y21979D01*
X96906Y22821D01*
X96575Y23621D01*
X96123Y24359D01*
X95560Y25017D01*
X94902Y25580D01*
X94164Y26032D01*
X93754Y26202D01*
Y31634D01*
X94159Y31602D01*
X94865Y31658D01*
X95554Y31823D01*
X96209Y32094D01*
X96813Y32464D01*
X97351Y32924D01*
X97772Y33418D01*
Y10767D01*
X97699Y10779D01*
X97580Y10780D01*
X97463Y10762D01*
X97350Y10726D01*
X97244Y10673D01*
X97148Y10604D01*
X97063Y10521D01*
X96993Y10426D01*
X96938Y10320D01*
X96901Y10208D01*
X96881Y10091D01*
X96880Y9972D01*
X96898Y9855D01*
X96936Y9743D01*
X97035Y9471D01*
X97104Y9191D01*
X97145Y8905D01*
X97159Y8616D01*
X97145Y8328D01*
X97104Y8042D01*
X97035Y7761D01*
X96939Y7488D01*
X96901Y7377D01*
X96884Y7260D01*
X96885Y7142D01*
X96904Y7026D01*
X96941Y6914D01*
X96996Y6809D01*
X97066Y6714D01*
X97150Y6631D01*
X97246Y6562D01*
X97351Y6509D01*
X97464Y6474D01*
X97581Y6456D01*
X97699Y6457D01*
X97772Y6469D01*
Y3235D01*
G37*
G36*
X93754Y139356D02*X97772D01*
Y50486D01*
X97624Y50547D01*
X97395Y50602D01*
X97159Y50616D01*
X93754Y50609D01*
Y58506D01*
X93759Y58505D01*
X94309Y58549D01*
X94844Y58677D01*
X95353Y58888D01*
X95823Y59176D01*
X96242Y59534D01*
X96600Y59953D01*
X96887Y60422D01*
X97098Y60931D01*
X97227Y61467D01*
X97259Y62016D01*
X97227Y62565D01*
X97098Y63101D01*
X96887Y63610D01*
X96600Y64080D01*
X96242Y64499D01*
X95823Y64856D01*
X95353Y65144D01*
X94844Y65355D01*
X94309Y65484D01*
X93759Y65527D01*
X93754Y65527D01*
Y66406D01*
X93759Y66405D01*
X94309Y66449D01*
X94844Y66577D01*
X95353Y66788D01*
X95823Y67076D01*
X96242Y67434D01*
X96600Y67853D01*
X96887Y68322D01*
X97098Y68831D01*
X97227Y69367D01*
X97259Y69916D01*
X97227Y70465D01*
X97098Y71001D01*
X96887Y71510D01*
X96600Y71980D01*
X96242Y72399D01*
X95823Y72756D01*
X95353Y73044D01*
X94844Y73255D01*
X94309Y73384D01*
X93759Y73427D01*
X93754Y73427D01*
Y74306D01*
X93759Y74305D01*
X94309Y74349D01*
X94844Y74477D01*
X95353Y74688D01*
X95823Y74976D01*
X96242Y75334D01*
X96600Y75753D01*
X96887Y76222D01*
X97098Y76731D01*
X97227Y77267D01*
X97259Y77816D01*
X97227Y78365D01*
X97098Y78901D01*
X96887Y79410D01*
X96600Y79880D01*
X96242Y80299D01*
X95823Y80656D01*
X95353Y80944D01*
X94844Y81155D01*
X94309Y81284D01*
X93759Y81327D01*
X93754Y81327D01*
Y82206D01*
X93759Y82205D01*
X94309Y82249D01*
X94844Y82377D01*
X95353Y82588D01*
X95823Y82876D01*
X96242Y83234D01*
X96600Y83653D01*
X96887Y84122D01*
X97098Y84631D01*
X97227Y85167D01*
X97259Y85716D01*
X97227Y86265D01*
X97098Y86801D01*
X96887Y87310D01*
X96600Y87780D01*
X96242Y88199D01*
X95823Y88556D01*
X95353Y88844D01*
X94844Y89055D01*
X94309Y89184D01*
X93759Y89227D01*
X93754Y89227D01*
Y90106D01*
X93759Y90105D01*
X94309Y90149D01*
X94844Y90277D01*
X95353Y90488D01*
X95823Y90776D01*
X96242Y91134D01*
X96600Y91553D01*
X96887Y92022D01*
X97098Y92531D01*
X97227Y93067D01*
X97259Y93616D01*
X97227Y94165D01*
X97098Y94701D01*
X96887Y95210D01*
X96600Y95680D01*
X96242Y96099D01*
X95823Y96456D01*
X95353Y96744D01*
X94844Y96955D01*
X94309Y97084D01*
X93759Y97127D01*
X93754Y97127D01*
Y98006D01*
X93759Y98005D01*
X94309Y98049D01*
X94844Y98177D01*
X95353Y98388D01*
X95823Y98676D01*
X96242Y99034D01*
X96600Y99453D01*
X96887Y99922D01*
X97098Y100431D01*
X97227Y100967D01*
X97259Y101516D01*
X97227Y102065D01*
X97098Y102601D01*
X96887Y103110D01*
X96600Y103580D01*
X96242Y103999D01*
X95823Y104356D01*
X95353Y104644D01*
X94844Y104855D01*
X94309Y104984D01*
X93759Y105027D01*
X93754Y105027D01*
Y105906D01*
X93759Y105905D01*
X94309Y105949D01*
X94844Y106077D01*
X95353Y106288D01*
X95823Y106576D01*
X96242Y106934D01*
X96600Y107353D01*
X96887Y107822D01*
X97098Y108331D01*
X97227Y108867D01*
X97259Y109416D01*
X97227Y109965D01*
X97098Y110501D01*
X96887Y111010D01*
X96600Y111480D01*
X96242Y111899D01*
X95823Y112256D01*
X95353Y112544D01*
X94844Y112755D01*
X94309Y112884D01*
X93759Y112927D01*
X93754Y112927D01*
Y113806D01*
X93759Y113805D01*
X94309Y113849D01*
X94844Y113977D01*
X95353Y114188D01*
X95823Y114476D01*
X96242Y114834D01*
X96600Y115253D01*
X96887Y115722D01*
X97098Y116231D01*
X97227Y116767D01*
X97259Y117316D01*
X97227Y117865D01*
X97098Y118401D01*
X96887Y118910D01*
X96600Y119380D01*
X96242Y119799D01*
X95823Y120156D01*
X95353Y120444D01*
X94844Y120655D01*
X94309Y120784D01*
X93759Y120827D01*
X93754Y120827D01*
Y121706D01*
X93759Y121705D01*
X94309Y121749D01*
X94844Y121877D01*
X95353Y122088D01*
X95823Y122376D01*
X96242Y122734D01*
X96600Y123153D01*
X96887Y123622D01*
X97098Y124131D01*
X97227Y124667D01*
X97259Y125216D01*
X97227Y125765D01*
X97098Y126301D01*
X96887Y126810D01*
X96600Y127280D01*
X96242Y127699D01*
X95823Y128056D01*
X95353Y128344D01*
X94844Y128555D01*
X94309Y128684D01*
X93759Y128727D01*
X93754Y128727D01*
Y129606D01*
X93759Y129605D01*
X94309Y129649D01*
X94844Y129777D01*
X95353Y129988D01*
X95823Y130276D01*
X96242Y130634D01*
X96600Y131053D01*
X96887Y131522D01*
X97098Y132031D01*
X97227Y132567D01*
X97259Y133116D01*
X97227Y133665D01*
X97098Y134201D01*
X96887Y134710D01*
X96600Y135180D01*
X96242Y135599D01*
X95823Y135956D01*
X95353Y136244D01*
X94844Y136455D01*
X94309Y136584D01*
X93759Y136627D01*
X93754Y136627D01*
Y139356D01*
G37*
G36*
Y97127D02*X93210Y97084D01*
X92674Y96955D01*
X92165Y96744D01*
X91696Y96456D01*
X91314Y96131D01*
Y97640D01*
X91319Y97699D01*
X91300Y97935D01*
X91245Y98164D01*
X91155Y98382D01*
X91032Y98584D01*
X90878Y98763D01*
X90833Y98801D01*
X88516Y101119D01*
X90280D01*
X90292Y100967D01*
X90420Y100431D01*
X90631Y99922D01*
X90919Y99453D01*
X91277Y99034D01*
X91696Y98676D01*
X92165Y98388D01*
X92674Y98177D01*
X93210Y98049D01*
X93754Y98006D01*
Y97127D01*
G37*
G36*
Y89227D02*X93210Y89184D01*
X92674Y89055D01*
X92165Y88844D01*
X91696Y88556D01*
X91314Y88231D01*
Y91102D01*
X91696Y90776D01*
X92165Y90488D01*
X92674Y90277D01*
X93210Y90149D01*
X93754Y90106D01*
Y89227D01*
G37*
G36*
Y81327D02*X93210Y81284D01*
X92674Y81155D01*
X92165Y80944D01*
X91696Y80656D01*
X91314Y80331D01*
Y83202D01*
X91696Y82876D01*
X92165Y82588D01*
X92674Y82377D01*
X93210Y82249D01*
X93754Y82206D01*
Y81327D01*
G37*
G36*
Y73427D02*X93210Y73384D01*
X92746Y73272D01*
X91314Y74705D01*
Y75302D01*
X91696Y74976D01*
X92165Y74688D01*
X92674Y74477D01*
X93210Y74349D01*
X93754Y74306D01*
Y73427D01*
G37*
G36*
X84152Y71048D02*X84246Y71026D01*
X84362Y71019D01*
Y70001D01*
X84152Y70000D01*
Y71048D01*
G37*
G36*
X93754Y26202D02*X93364Y26363D01*
X92522Y26565D01*
X91659Y26633D01*
X90796Y26565D01*
X89954Y26363D01*
X89155Y26032D01*
X88417Y25580D01*
X87758Y25017D01*
X87196Y24359D01*
X87047Y24116D01*
X84152D01*
Y31603D01*
X84159Y31602D01*
X84865Y31658D01*
X85554Y31823D01*
X86209Y32094D01*
X86813Y32464D01*
X87351Y32924D01*
X87811Y33463D01*
X88181Y34067D01*
X88452Y34721D01*
X88618Y35410D01*
X88659Y36116D01*
X88618Y36822D01*
X88452Y37511D01*
X88181Y38165D01*
X87811Y38769D01*
X87351Y39308D01*
X86813Y39768D01*
X86209Y40138D01*
X85554Y40409D01*
X84865Y40574D01*
X84159Y40630D01*
X84152Y40630D01*
Y41603D01*
X84159Y41602D01*
X84865Y41658D01*
X85554Y41823D01*
X86209Y42094D01*
X86813Y42464D01*
X87351Y42924D01*
X87811Y43463D01*
X88181Y44067D01*
X88452Y44721D01*
X88618Y45410D01*
X88659Y46116D01*
X88618Y46822D01*
X88452Y47511D01*
X88181Y48165D01*
X87811Y48769D01*
X87351Y49308D01*
X86813Y49768D01*
X86209Y50138D01*
X85554Y50409D01*
X84865Y50574D01*
X84159Y50630D01*
X84152Y50630D01*
Y54893D01*
X84345Y54973D01*
X84547Y55096D01*
X84726Y55249D01*
X84880Y55429D01*
X85003Y55630D01*
X85093Y55848D01*
X85148Y56078D01*
X85162Y56313D01*
X85148Y60549D01*
X85093Y60778D01*
X85003Y60996D01*
X84880Y61198D01*
X84726Y61377D01*
X84547Y61530D01*
X84345Y61654D01*
X84152Y61734D01*
Y63014D01*
X84162Y63013D01*
X87798Y63027D01*
X88027Y63082D01*
X88245Y63173D01*
X88447Y63296D01*
X88626Y63449D01*
X88780Y63629D01*
X88903Y63830D01*
X88993Y64048D01*
X89048Y64278D01*
X89062Y64513D01*
X89048Y68749D01*
X88993Y68978D01*
X88903Y69196D01*
X88780Y69398D01*
X88626Y69577D01*
X88447Y69730D01*
X88245Y69854D01*
X88027Y69944D01*
X87798Y69999D01*
X87562Y70013D01*
X87362Y70012D01*
Y71026D01*
X87511Y71026D01*
X87664Y71063D01*
X87809Y71123D01*
X87943Y71205D01*
X88063Y71307D01*
X88165Y71427D01*
X88248Y71561D01*
X88308Y71707D01*
X88345Y71860D01*
X88354Y72017D01*
X88347Y73770D01*
X88383Y73618D01*
X88474Y73400D01*
X88597Y73199D01*
X88597Y73199D01*
X88750Y73019D01*
X88795Y72981D01*
X90524Y71252D01*
X90420Y71001D01*
X90292Y70465D01*
X90249Y69916D01*
X90292Y69367D01*
X90420Y68831D01*
X90631Y68322D01*
X90919Y67853D01*
X91277Y67434D01*
X91696Y67076D01*
X92165Y66788D01*
X92674Y66577D01*
X93210Y66449D01*
X93754Y66406D01*
Y65527D01*
X93210Y65484D01*
X92674Y65355D01*
X92165Y65144D01*
X91696Y64856D01*
X91277Y64499D01*
X90919Y64080D01*
X90631Y63610D01*
X90420Y63101D01*
X90292Y62565D01*
X90249Y62016D01*
X90292Y61467D01*
X90420Y60931D01*
X90631Y60422D01*
X90919Y59953D01*
X91277Y59534D01*
X91696Y59176D01*
X92165Y58888D01*
X92674Y58677D01*
X93210Y58549D01*
X93754Y58506D01*
Y50609D01*
X90924Y50602D01*
X90694Y50547D01*
X90476Y50457D01*
X90275Y50333D01*
X90095Y50180D01*
X89942Y50001D01*
X89819Y49799D01*
X89728Y49581D01*
X89673Y49352D01*
X89659Y49116D01*
X89673Y42881D01*
X89728Y42651D01*
X89819Y42433D01*
X89942Y42232D01*
X90095Y42052D01*
X90275Y41899D01*
X90476Y41776D01*
X90694Y41685D01*
X90924Y41630D01*
X91159Y41616D01*
X93754Y41622D01*
Y40598D01*
X93453Y40574D01*
X92764Y40409D01*
X92110Y40138D01*
X91506Y39768D01*
X90968Y39308D01*
X90508Y38769D01*
X90137Y38165D01*
X89866Y37511D01*
X89701Y36822D01*
X89645Y36116D01*
X89701Y35410D01*
X89866Y34721D01*
X90137Y34067D01*
X90508Y33463D01*
X90968Y32924D01*
X91506Y32464D01*
X92110Y32094D01*
X92764Y31823D01*
X93453Y31658D01*
X93754Y31634D01*
Y26202D01*
G37*
G36*
X84152Y61734D02*X84127Y61744D01*
X83898Y61799D01*
X83662Y61813D01*
X80027Y61799D01*
X79797Y61744D01*
X79579Y61654D01*
X79378Y61530D01*
X79198Y61377D01*
X79144Y61313D01*
X77772D01*
Y63019D01*
X79998Y63027D01*
X80227Y63082D01*
X80445Y63173D01*
X80647Y63296D01*
X80826Y63449D01*
X80980Y63629D01*
X81103Y63830D01*
X81193Y64048D01*
X81248Y64278D01*
X81262Y64513D01*
X81248Y68749D01*
X81193Y68978D01*
X81103Y69196D01*
X80980Y69398D01*
X80826Y69577D01*
X80647Y69730D01*
X80445Y69854D01*
X80227Y69944D01*
X79998Y69999D01*
X79762Y70013D01*
X77772Y70006D01*
Y71050D01*
X77824Y71063D01*
X77969Y71123D01*
X78103Y71205D01*
X78223Y71307D01*
X78325Y71427D01*
X78408Y71561D01*
X78468Y71707D01*
X78498Y71834D01*
X78529Y71707D01*
X78589Y71561D01*
X78671Y71427D01*
X78774Y71307D01*
X78893Y71205D01*
X79027Y71123D01*
X79173Y71063D01*
X79326Y71026D01*
X79483Y71017D01*
X82591Y71026D01*
X82744Y71063D01*
X82889Y71123D01*
X83023Y71205D01*
X83143Y71307D01*
X83245Y71427D01*
X83328Y71561D01*
X83388Y71707D01*
X83418Y71834D01*
X83449Y71707D01*
X83509Y71561D01*
X83591Y71427D01*
X83694Y71307D01*
X83813Y71205D01*
X83947Y71123D01*
X84093Y71063D01*
X84152Y71048D01*
Y70000D01*
X83927Y69999D01*
X83697Y69944D01*
X83479Y69854D01*
X83278Y69730D01*
X83098Y69577D01*
X82945Y69398D01*
X82822Y69196D01*
X82731Y68978D01*
X82676Y68749D01*
X82662Y68513D01*
X82676Y64278D01*
X82731Y64048D01*
X82822Y63830D01*
X82945Y63629D01*
X83098Y63449D01*
X83278Y63296D01*
X83479Y63173D01*
X83697Y63082D01*
X83927Y63027D01*
X84152Y63014D01*
Y61734D01*
G37*
G36*
Y24116D02*X77772D01*
Y33969D01*
X77815Y33976D01*
X77927Y34014D01*
X78032Y34068D01*
X78127Y34138D01*
X78210Y34222D01*
X78279Y34318D01*
X78329Y34425D01*
X78478Y34832D01*
X78581Y35253D01*
X78644Y35683D01*
X78665Y36116D01*
X78644Y36550D01*
X78581Y36979D01*
X78478Y37400D01*
X78334Y37810D01*
X78282Y37916D01*
X78213Y38013D01*
X78129Y38097D01*
X78034Y38167D01*
X77929Y38222D01*
X77816Y38260D01*
X77772Y38267D01*
Y43418D01*
X77811Y43463D01*
X78181Y44067D01*
X78452Y44721D01*
X78618Y45410D01*
X78659Y46116D01*
X78618Y46822D01*
X78452Y47511D01*
X78181Y48165D01*
X77811Y48769D01*
X77772Y48815D01*
Y55313D01*
X79144D01*
X79198Y55249D01*
X79378Y55096D01*
X79579Y54973D01*
X79797Y54882D01*
X80027Y54827D01*
X80262Y54813D01*
X83898Y54827D01*
X84127Y54882D01*
X84152Y54893D01*
Y50630D01*
X83453Y50574D01*
X82764Y50409D01*
X82110Y50138D01*
X81506Y49768D01*
X80968Y49308D01*
X80508Y48769D01*
X80137Y48165D01*
X79866Y47511D01*
X79701Y46822D01*
X79645Y46116D01*
X79701Y45410D01*
X79866Y44721D01*
X80137Y44067D01*
X80508Y43463D01*
X80968Y42924D01*
X81506Y42464D01*
X82110Y42094D01*
X82764Y41823D01*
X83453Y41658D01*
X84152Y41603D01*
Y40630D01*
X83453Y40574D01*
X82764Y40409D01*
X82110Y40138D01*
X81506Y39768D01*
X80968Y39308D01*
X80508Y38769D01*
X80137Y38165D01*
X79866Y37511D01*
X79701Y36822D01*
X79645Y36116D01*
X79701Y35410D01*
X79866Y34721D01*
X80137Y34067D01*
X80508Y33463D01*
X80968Y32924D01*
X81506Y32464D01*
X82110Y32094D01*
X82764Y31823D01*
X83453Y31658D01*
X84152Y31603D01*
Y24116D01*
G37*
G36*
X77772Y70006D02*X76127Y69999D01*
X76032Y69977D01*
Y70972D01*
X76082Y71021D01*
X77671Y71026D01*
X77772Y71050D01*
Y70006D01*
G37*
G36*
Y61313D02*X76032D01*
Y63050D01*
X76127Y63027D01*
X76362Y63013D01*
X77772Y63019D01*
Y61313D01*
G37*
G36*
Y48815D02*X77351Y49308D01*
X76813Y49768D01*
X76209Y50138D01*
X76032Y50211D01*
Y55313D01*
X77772D01*
Y48815D01*
G37*
G36*
Y24116D02*X77095D01*
X76032Y25179D01*
Y32046D01*
X76056Y32063D01*
X76140Y32146D01*
X76211Y32242D01*
X76265Y32347D01*
X76303Y32459D01*
X76322Y32576D01*
X76323Y32695D01*
X76305Y32812D01*
X76269Y32925D01*
X76216Y33031D01*
X76147Y33128D01*
X76064Y33212D01*
X76032Y33236D01*
Y39001D01*
X76062Y39023D01*
X76145Y39107D01*
X76213Y39203D01*
X76266Y39308D01*
X76302Y39421D01*
X76319Y39538D01*
X76319Y39656D01*
X76299Y39772D01*
X76262Y39884D01*
X76208Y39989D01*
X76138Y40084D01*
X76053Y40167D01*
X76032Y40182D01*
Y42021D01*
X76209Y42094D01*
X76813Y42464D01*
X77351Y42924D01*
X77772Y43418D01*
Y38267D01*
X77699Y38279D01*
X77580Y38280D01*
X77463Y38262D01*
X77350Y38226D01*
X77244Y38173D01*
X77148Y38104D01*
X77063Y38021D01*
X76993Y37926D01*
X76938Y37820D01*
X76901Y37708D01*
X76881Y37591D01*
X76880Y37472D01*
X76898Y37355D01*
X76936Y37243D01*
X77035Y36971D01*
X77104Y36691D01*
X77145Y36405D01*
X77159Y36116D01*
X77145Y35828D01*
X77104Y35542D01*
X77035Y35261D01*
X76939Y34988D01*
X76901Y34877D01*
X76884Y34760D01*
X76885Y34642D01*
X76904Y34526D01*
X76941Y34414D01*
X76996Y34309D01*
X77066Y34214D01*
X77150Y34131D01*
X77246Y34062D01*
X77351Y34009D01*
X77464Y33974D01*
X77581Y33956D01*
X77699Y33957D01*
X77772Y33969D01*
Y24116D01*
G37*
G36*
X93754Y3235D02*X90546D01*
Y6466D01*
X90620Y6453D01*
X90738Y6453D01*
X90855Y6470D01*
X90969Y6506D01*
X91075Y6559D01*
X91171Y6628D01*
X91256Y6711D01*
X91326Y6807D01*
X91381Y6912D01*
X91418Y7025D01*
X91437Y7142D01*
X91438Y7260D01*
X91421Y7378D01*
X91383Y7490D01*
X91284Y7761D01*
X91215Y8042D01*
X91173Y8328D01*
X91159Y8616D01*
X91173Y8905D01*
X91215Y9191D01*
X91284Y9471D01*
X91379Y9744D01*
X91417Y9856D01*
X91435Y9972D01*
X91434Y10090D01*
X91415Y10207D01*
X91377Y10319D01*
X91323Y10424D01*
X91253Y10519D01*
X91169Y10602D01*
X91073Y10670D01*
X90967Y10723D01*
X90855Y10759D01*
X90738Y10776D01*
X90620Y10775D01*
X90546Y10763D01*
Y15727D01*
X90796Y15667D01*
X91659Y15599D01*
X92522Y15667D01*
X93364Y15869D01*
X93754Y16031D01*
Y13102D01*
X93726Y13101D01*
X93297Y13038D01*
X92875Y12935D01*
X92466Y12791D01*
X92359Y12738D01*
X92263Y12669D01*
X92178Y12586D01*
X92108Y12491D01*
X92053Y12385D01*
X92016Y12273D01*
X91997Y12156D01*
X91996Y12037D01*
X92013Y11920D01*
X92049Y11807D01*
X92102Y11701D01*
X92171Y11604D01*
X92255Y11520D01*
X92350Y11450D01*
X92455Y11395D01*
X92568Y11358D01*
X92685Y11338D01*
X92803Y11337D01*
X92921Y11355D01*
X93033Y11393D01*
X93304Y11492D01*
X93585Y11561D01*
X93754Y11585D01*
Y5647D01*
X93585Y5672D01*
X93304Y5741D01*
X93032Y5836D01*
X92920Y5874D01*
X92803Y5892D01*
X92685Y5891D01*
X92569Y5871D01*
X92457Y5834D01*
X92352Y5780D01*
X92257Y5710D01*
X92174Y5626D01*
X92105Y5530D01*
X92052Y5424D01*
X92017Y5312D01*
X91999Y5195D01*
X92000Y5077D01*
X92019Y4960D01*
X92057Y4848D01*
X92111Y4744D01*
X92181Y4649D01*
X92265Y4566D01*
X92361Y4497D01*
X92468Y4446D01*
X92875Y4298D01*
X93297Y4194D01*
X93726Y4132D01*
X93754Y4131D01*
Y3235D01*
G37*
G36*
X90546D02*X76032D01*
Y4127D01*
X77395Y4130D01*
X77624Y4185D01*
X77842Y4276D01*
X78044Y4399D01*
X78223Y4552D01*
X78377Y4732D01*
X78500Y4933D01*
X78590Y5151D01*
X78645Y5381D01*
X78659Y5616D01*
X78645Y11852D01*
X78596Y12058D01*
X80094Y10560D01*
X79866Y10011D01*
X79701Y9322D01*
X79645Y8616D01*
X79701Y7910D01*
X79866Y7221D01*
X80137Y6567D01*
X80508Y5963D01*
X80968Y5424D01*
X81506Y4964D01*
X82110Y4594D01*
X82764Y4323D01*
X83453Y4158D01*
X84159Y4102D01*
X84865Y4158D01*
X85554Y4323D01*
X86209Y4594D01*
X86813Y4964D01*
X87351Y5424D01*
X87811Y5963D01*
X88181Y6567D01*
X88452Y7221D01*
X88618Y7910D01*
X88659Y8616D01*
X88618Y9322D01*
X88452Y10011D01*
X88181Y10665D01*
X87811Y11269D01*
X87351Y11808D01*
X86813Y12268D01*
X86209Y12638D01*
X85554Y12909D01*
X84865Y13074D01*
X84159Y13130D01*
X83453Y13074D01*
X82764Y12909D01*
X82215Y12682D01*
X79856Y15041D01*
X79817Y15086D01*
X79638Y15239D01*
X79436Y15363D01*
X79218Y15453D01*
X78989Y15508D01*
X78942Y15511D01*
X78754Y15526D01*
X78708Y15522D01*
X76032D01*
Y18116D01*
X87047D01*
X87196Y17873D01*
X87758Y17215D01*
X88417Y16653D01*
X89155Y16201D01*
X89954Y15869D01*
X90546Y15727D01*
Y10763D01*
X90503Y10756D01*
X90391Y10719D01*
X90287Y10664D01*
X90192Y10594D01*
X90109Y10510D01*
X90040Y10414D01*
X89989Y10308D01*
X89841Y9900D01*
X89737Y9479D01*
X89675Y9050D01*
X89654Y8616D01*
X89675Y8183D01*
X89737Y7753D01*
X89841Y7332D01*
X89985Y6923D01*
X90037Y6816D01*
X90106Y6720D01*
X90189Y6635D01*
X90285Y6565D01*
X90390Y6510D01*
X90503Y6473D01*
X90546Y6466D01*
Y3235D01*
G37*
G36*
X76032Y139356D02*X93754D01*
Y136627D01*
X93210Y136584D01*
X92674Y136455D01*
X92165Y136244D01*
X91696Y135956D01*
X91277Y135599D01*
X90919Y135180D01*
X90631Y134710D01*
X90420Y134201D01*
X90292Y133665D01*
X90249Y133116D01*
X90292Y132567D01*
X90420Y132031D01*
X90631Y131522D01*
X90919Y131053D01*
X91277Y130634D01*
X91696Y130276D01*
X92165Y129988D01*
X92674Y129777D01*
X93210Y129649D01*
X93754Y129606D01*
Y128727D01*
X93210Y128684D01*
X92674Y128555D01*
X92165Y128344D01*
X91696Y128056D01*
X91277Y127699D01*
X90919Y127280D01*
X90631Y126810D01*
X90420Y126301D01*
X90292Y125765D01*
X90249Y125216D01*
X90292Y124667D01*
X90420Y124131D01*
X90631Y123622D01*
X90919Y123153D01*
X91277Y122734D01*
X91696Y122376D01*
X92165Y122088D01*
X92674Y121877D01*
X93210Y121749D01*
X93754Y121706D01*
Y120827D01*
X93210Y120784D01*
X92674Y120655D01*
X92165Y120444D01*
X91696Y120156D01*
X91277Y119799D01*
X90919Y119380D01*
X90631Y118910D01*
X90420Y118401D01*
X90292Y117865D01*
X90249Y117316D01*
X90292Y116767D01*
X90420Y116231D01*
X90631Y115722D01*
X90919Y115253D01*
X91277Y114834D01*
X91696Y114476D01*
X92165Y114188D01*
X92674Y113977D01*
X93210Y113849D01*
X93754Y113806D01*
Y112927D01*
X93210Y112884D01*
X92674Y112755D01*
X92165Y112544D01*
X91696Y112256D01*
X91277Y111899D01*
X90919Y111480D01*
X90631Y111010D01*
X90420Y110501D01*
X90292Y109965D01*
X90249Y109416D01*
X90292Y108867D01*
X90420Y108331D01*
X90631Y107822D01*
X90919Y107353D01*
X91277Y106934D01*
X91696Y106576D01*
X92165Y106288D01*
X92674Y106077D01*
X93210Y105949D01*
X93754Y105906D01*
Y105027D01*
X93210Y104984D01*
X92674Y104855D01*
X92165Y104644D01*
X91696Y104356D01*
X91418Y104119D01*
X76032D01*
Y139356D01*
G37*
G36*
Y61313D02*X74178D01*
X74060Y61322D01*
X73590Y61285D01*
X73130Y61175D01*
X72694Y60994D01*
X72292Y60748D01*
X72291Y60748D01*
X71932Y60441D01*
X71856Y60351D01*
X69409Y57905D01*
X69400Y60549D01*
X69345Y60778D01*
X69255Y60996D01*
X69132Y61198D01*
X68978Y61377D01*
X68799Y61530D01*
X68597Y61654D01*
X68379Y61744D01*
X68150Y61799D01*
X67914Y61813D01*
X64279Y61799D01*
X64049Y61744D01*
X63831Y61654D01*
X63630Y61530D01*
X63450Y61377D01*
X63297Y61198D01*
X63174Y60996D01*
X63083Y60778D01*
X63028Y60549D01*
X63014Y60313D01*
X63017Y59359D01*
X59240Y55582D01*
X59150Y55505D01*
X58844Y55146D01*
X58597Y54743D01*
X58507Y54525D01*
X58486Y54549D01*
X58396Y54626D01*
X53656Y59366D01*
X53652Y60549D01*
X53597Y60778D01*
X53507Y60996D01*
X53384Y61198D01*
X53230Y61377D01*
X53051Y61530D01*
X52849Y61654D01*
X52631Y61744D01*
X52402Y61799D01*
X52166Y61813D01*
X50959Y61809D01*
Y73268D01*
X51334Y73358D01*
X51741Y73527D01*
X52117Y73757D01*
X52452Y74043D01*
X52739Y74378D01*
X52969Y74754D01*
X53137Y75161D01*
X53240Y75590D01*
X53266Y76029D01*
X53240Y76469D01*
X53137Y76897D01*
X52969Y77304D01*
X52847Y77503D01*
X58268D01*
X58326Y77499D01*
X58561Y77517D01*
X58562Y77517D01*
X58791Y77572D01*
X58807Y77579D01*
X58812Y76190D01*
X58849Y76037D01*
X58909Y75891D01*
X58991Y75757D01*
X59094Y75637D01*
X59213Y75535D01*
X59347Y75453D01*
X59493Y75393D01*
X59646Y75356D01*
X59803Y75347D01*
X61235Y75351D01*
X61409Y75178D01*
X59646Y75172D01*
X59493Y75136D01*
X59347Y75075D01*
X59213Y74993D01*
X59094Y74891D01*
X58991Y74771D01*
X58909Y74637D01*
X58849Y74492D01*
X58812Y74339D01*
X58803Y74182D01*
X58811Y72018D01*
X58430D01*
X58371Y72023D01*
X58136Y72004D01*
X57906Y71949D01*
X57688Y71859D01*
X57487Y71735D01*
X57487Y71735D01*
X57307Y71582D01*
X57269Y71537D01*
X55744Y70012D01*
X52431Y69999D01*
X52201Y69944D01*
X51983Y69854D01*
X51782Y69730D01*
X51602Y69577D01*
X51449Y69398D01*
X51326Y69196D01*
X51235Y68978D01*
X51180Y68749D01*
X51166Y68513D01*
X51180Y64278D01*
X51235Y64048D01*
X51326Y63830D01*
X51449Y63629D01*
X51602Y63449D01*
X51782Y63296D01*
X51983Y63173D01*
X52201Y63082D01*
X52431Y63027D01*
X52666Y63013D01*
X56302Y63027D01*
X56531Y63082D01*
X56749Y63173D01*
X56951Y63296D01*
X57130Y63449D01*
X57284Y63629D01*
X57407Y63830D01*
X57497Y64048D01*
X57552Y64278D01*
X57566Y64513D01*
X57556Y67582D01*
X58993Y69018D01*
X59200D01*
X59183Y68978D01*
X59128Y68749D01*
X59114Y68513D01*
X59128Y64278D01*
X59183Y64048D01*
X59274Y63830D01*
X59397Y63629D01*
X59550Y63449D01*
X59730Y63296D01*
X59931Y63173D01*
X60149Y63082D01*
X60379Y63027D01*
X60614Y63013D01*
X64250Y63027D01*
X64479Y63082D01*
X64697Y63173D01*
X64899Y63296D01*
X65078Y63449D01*
X65232Y63629D01*
X65355Y63830D01*
X65445Y64048D01*
X65500Y64278D01*
X65514Y64513D01*
X65500Y68749D01*
X65445Y68978D01*
X65355Y69196D01*
X65232Y69398D01*
X65078Y69577D01*
X64927Y69706D01*
X66242Y71021D01*
X67831Y71026D01*
X67984Y71063D01*
X68129Y71123D01*
X68263Y71205D01*
X68383Y71307D01*
X68485Y71427D01*
X68568Y71561D01*
X68628Y71707D01*
X68658Y71834D01*
X68689Y71707D01*
X68749Y71561D01*
X68831Y71427D01*
X68934Y71307D01*
X69053Y71205D01*
X69187Y71123D01*
X69333Y71063D01*
X69486Y71026D01*
X69643Y71017D01*
X71841Y71023D01*
X70827Y70009D01*
X68179Y69999D01*
X67949Y69944D01*
X67731Y69854D01*
X67530Y69730D01*
X67350Y69577D01*
X67197Y69398D01*
X67074Y69196D01*
X66983Y68978D01*
X66928Y68749D01*
X66914Y68513D01*
X66928Y64278D01*
X66983Y64048D01*
X67074Y63830D01*
X67197Y63629D01*
X67350Y63449D01*
X67530Y63296D01*
X67731Y63173D01*
X67949Y63082D01*
X68179Y63027D01*
X68414Y63013D01*
X72050Y63027D01*
X72279Y63082D01*
X72497Y63173D01*
X72699Y63296D01*
X72878Y63449D01*
X73032Y63629D01*
X73155Y63830D01*
X73245Y64048D01*
X73300Y64278D01*
X73314Y64513D01*
X73302Y68242D01*
X76032Y70972D01*
Y69977D01*
X75897Y69944D01*
X75679Y69854D01*
X75478Y69730D01*
X75298Y69577D01*
X75145Y69398D01*
X75022Y69196D01*
X74931Y68978D01*
X74876Y68749D01*
X74862Y68513D01*
X74876Y64278D01*
X74931Y64048D01*
X75022Y63830D01*
X75145Y63629D01*
X75298Y63449D01*
X75478Y63296D01*
X75679Y63173D01*
X75897Y63082D01*
X76032Y63050D01*
Y61313D01*
G37*
G36*
X70546Y50556D02*X75303Y55313D01*
X76032D01*
Y50211D01*
X75554Y50409D01*
X74865Y50574D01*
X74159Y50630D01*
X73453Y50574D01*
X72764Y50409D01*
X72110Y50138D01*
X71506Y49768D01*
X70968Y49308D01*
X70546Y48815D01*
Y50556D01*
G37*
G36*
X76032Y25179D02*X70546Y30665D01*
Y33966D01*
X70620Y33953D01*
X70738Y33953D01*
X70855Y33970D01*
X70969Y34006D01*
X71075Y34059D01*
X71171Y34128D01*
X71256Y34211D01*
X71326Y34307D01*
X71381Y34412D01*
X71418Y34525D01*
X71437Y34642D01*
X71438Y34760D01*
X71421Y34878D01*
X71383Y34990D01*
X71284Y35261D01*
X71215Y35542D01*
X71173Y35828D01*
X71159Y36116D01*
X71173Y36405D01*
X71215Y36691D01*
X71284Y36971D01*
X71379Y37244D01*
X71417Y37356D01*
X71435Y37472D01*
X71434Y37590D01*
X71415Y37707D01*
X71377Y37819D01*
X71323Y37924D01*
X71253Y38019D01*
X71169Y38102D01*
X71073Y38170D01*
X70967Y38223D01*
X70855Y38259D01*
X70738Y38276D01*
X70620Y38275D01*
X70546Y38263D01*
Y43418D01*
X70968Y42924D01*
X71506Y42464D01*
X72110Y42094D01*
X72764Y41823D01*
X73453Y41658D01*
X74159Y41602D01*
X74865Y41658D01*
X75554Y41823D01*
X76032Y42021D01*
Y40182D01*
X75957Y40235D01*
X75851Y40286D01*
X75443Y40435D01*
X75022Y40538D01*
X74593Y40601D01*
X74159Y40621D01*
X73726Y40601D01*
X73297Y40538D01*
X72875Y40435D01*
X72466Y40291D01*
X72359Y40238D01*
X72263Y40169D01*
X72178Y40086D01*
X72108Y39991D01*
X72053Y39885D01*
X72016Y39773D01*
X71997Y39656D01*
X71996Y39537D01*
X72013Y39420D01*
X72049Y39307D01*
X72102Y39201D01*
X72171Y39104D01*
X72255Y39020D01*
X72350Y38950D01*
X72455Y38895D01*
X72568Y38858D01*
X72685Y38838D01*
X72803Y38837D01*
X72921Y38855D01*
X73033Y38893D01*
X73304Y38992D01*
X73585Y39061D01*
X73871Y39102D01*
X74159Y39116D01*
X74448Y39102D01*
X74734Y39061D01*
X75014Y38992D01*
X75287Y38896D01*
X75399Y38858D01*
X75515Y38841D01*
X75634Y38842D01*
X75750Y38861D01*
X75862Y38898D01*
X75967Y38953D01*
X76032Y39001D01*
Y33236D01*
X75969Y33283D01*
X75863Y33337D01*
X75751Y33375D01*
X75634Y33394D01*
X75515Y33395D01*
X75398Y33377D01*
X75286Y33339D01*
X75014Y33241D01*
X74734Y33172D01*
X74448Y33130D01*
X74159Y33116D01*
X73871Y33130D01*
X73585Y33172D01*
X73304Y33241D01*
X73032Y33336D01*
X72920Y33374D01*
X72803Y33392D01*
X72685Y33391D01*
X72569Y33371D01*
X72457Y33334D01*
X72352Y33280D01*
X72257Y33210D01*
X72174Y33126D01*
X72105Y33030D01*
X72052Y32924D01*
X72017Y32812D01*
X71999Y32695D01*
X72000Y32577D01*
X72019Y32460D01*
X72057Y32348D01*
X72111Y32244D01*
X72181Y32149D01*
X72265Y32066D01*
X72361Y31997D01*
X72468Y31946D01*
X72875Y31798D01*
X73297Y31694D01*
X73726Y31632D01*
X74159Y31611D01*
X74593Y31632D01*
X75022Y31694D01*
X75443Y31798D01*
X75853Y31941D01*
X75959Y31994D01*
X76032Y32046D01*
Y25179D01*
G37*
G36*
X70546Y30665D02*X69214Y31997D01*
Y49225D01*
X70546Y50556D01*
Y48815D01*
X70508Y48769D01*
X70137Y48165D01*
X69866Y47511D01*
X69701Y46822D01*
X69645Y46116D01*
X69701Y45410D01*
X69866Y44721D01*
X70137Y44067D01*
X70508Y43463D01*
X70546Y43418D01*
Y38263D01*
X70503Y38256D01*
X70391Y38219D01*
X70287Y38164D01*
X70192Y38094D01*
X70109Y38010D01*
X70040Y37914D01*
X69989Y37808D01*
X69841Y37400D01*
X69737Y36979D01*
X69675Y36550D01*
X69654Y36116D01*
X69675Y35683D01*
X69737Y35253D01*
X69841Y34832D01*
X69985Y34423D01*
X70037Y34316D01*
X70106Y34220D01*
X70189Y34135D01*
X70285Y34065D01*
X70390Y34010D01*
X70503Y33973D01*
X70546Y33966D01*
Y30665D01*
G37*
G36*
X76032Y3235D02*X50959D01*
Y4491D01*
X51209Y4594D01*
X51813Y4964D01*
X52351Y5424D01*
X52811Y5963D01*
X53181Y6567D01*
X53452Y7221D01*
X53618Y7910D01*
X53659Y8616D01*
X53618Y9322D01*
X53452Y10011D01*
X53181Y10665D01*
X52811Y11269D01*
X52351Y11808D01*
X52159Y11972D01*
Y15409D01*
X63316Y26566D01*
X63406Y26642D01*
X63671Y26953D01*
X63728Y27016D01*
X63975Y27419D01*
X64155Y27855D01*
X64266Y28314D01*
X64276Y28450D01*
X73648Y19078D01*
X73724Y18988D01*
X74084Y18682D01*
X74084Y18682D01*
X74486Y18435D01*
X74922Y18254D01*
X75293Y18165D01*
X75382Y18144D01*
X75382D01*
X75852Y18107D01*
X75970Y18116D01*
X76032D01*
Y15522D01*
X68242D01*
X68183Y15527D01*
X67948Y15508D01*
X67718Y15453D01*
X67500Y15363D01*
X67299Y15239D01*
X67299Y15239D01*
X67119Y15086D01*
X67081Y15041D01*
X66826Y14786D01*
X66654Y14827D01*
X66214Y14862D01*
X65775Y14827D01*
X65346Y14724D01*
X64939Y14556D01*
X64563Y14325D01*
X64228Y14039D01*
X63942Y13704D01*
X63712Y13328D01*
X63543Y12921D01*
X63440Y12493D01*
X63406Y12053D01*
X63440Y11614D01*
X63543Y11185D01*
X63712Y10778D01*
X63942Y10402D01*
X64228Y10067D01*
X64563Y9781D01*
X64939Y9551D01*
X65346Y9382D01*
X65775Y9279D01*
X66214Y9245D01*
X66654Y9279D01*
X67082Y9382D01*
X67489Y9551D01*
X67865Y9781D01*
X68200Y10067D01*
X68487Y10402D01*
X68717Y10778D01*
X68885Y11185D01*
X68988Y11614D01*
X69014Y12053D01*
X68988Y12493D01*
X68981Y12522D01*
X69960D01*
X69942Y12501D01*
X69819Y12299D01*
X69728Y12081D01*
X69673Y11852D01*
X69659Y11616D01*
X69673Y5381D01*
X69728Y5151D01*
X69819Y4933D01*
X69942Y4732D01*
X70095Y4552D01*
X70275Y4399D01*
X70476Y4276D01*
X70694Y4185D01*
X70924Y4130D01*
X71159Y4116D01*
X76032Y4127D01*
Y3235D01*
G37*
G36*
X50959Y139356D02*X76032D01*
Y104119D01*
X68788D01*
X68694Y104213D01*
X68655Y104258D01*
X68476Y104411D01*
X68274Y104535D01*
X68056Y104625D01*
X67827Y104680D01*
X67591Y104699D01*
X67533Y104694D01*
X65616D01*
X65570Y104769D01*
X65634Y104874D01*
X65724Y105092D01*
X65779Y105322D01*
X65793Y105557D01*
X65779Y107367D01*
X65724Y107596D01*
X65634Y107814D01*
X65570Y107919D01*
X65634Y108024D01*
X65724Y108242D01*
X65779Y108472D01*
X65793Y108707D01*
X65779Y110517D01*
X65724Y110746D01*
X65634Y110964D01*
X65570Y111069D01*
X65634Y111173D01*
X65724Y111391D01*
X65779Y111621D01*
X65793Y111856D01*
X65779Y113666D01*
X65724Y113895D01*
X65634Y114113D01*
X65570Y114218D01*
X65634Y114323D01*
X65724Y114541D01*
X65779Y114771D01*
X65793Y115006D01*
X65779Y116816D01*
X65724Y117045D01*
X65634Y117263D01*
X65511Y117465D01*
X65357Y117644D01*
X65178Y117797D01*
X64976Y117921D01*
X64758Y118011D01*
X64529Y118066D01*
X64293Y118080D01*
X58058Y118066D01*
X57828Y118011D01*
X57610Y117921D01*
X57409Y117797D01*
X57229Y117644D01*
X57076Y117465D01*
X56953Y117263D01*
X56862Y117045D01*
X56807Y116816D01*
X56793Y116580D01*
X56807Y114771D01*
X56862Y114541D01*
X56953Y114323D01*
X57017Y114218D01*
X56953Y114113D01*
X56862Y113895D01*
X56807Y113666D01*
X56793Y113430D01*
X56807Y111621D01*
X56862Y111391D01*
X56953Y111173D01*
X57017Y111069D01*
X56953Y110964D01*
X56862Y110746D01*
X56807Y110517D01*
X56793Y110281D01*
X56807Y108472D01*
X56862Y108242D01*
X56953Y108024D01*
X57017Y107919D01*
X56953Y107814D01*
X56862Y107596D01*
X56807Y107367D01*
X56793Y107131D01*
X56807Y105322D01*
X56862Y105092D01*
X56953Y104874D01*
X57017Y104769D01*
X56953Y104664D01*
X56862Y104446D01*
X56807Y104217D01*
X56793Y103981D01*
X56807Y102172D01*
X56862Y101942D01*
X56953Y101724D01*
X57017Y101620D01*
X56953Y101515D01*
X56862Y101297D01*
X56807Y101068D01*
X56793Y100832D01*
X56807Y99023D01*
X56862Y98793D01*
X56953Y98575D01*
X57017Y98470D01*
X56953Y98365D01*
X56862Y98147D01*
X56807Y97918D01*
X56793Y97682D01*
X56807Y95873D01*
X56862Y95643D01*
X56953Y95425D01*
X57017Y95321D01*
X56953Y95216D01*
X56862Y94998D01*
X56807Y94769D01*
X56793Y94533D01*
X56807Y92724D01*
X56862Y92494D01*
X56953Y92276D01*
X57076Y92075D01*
X57229Y91895D01*
X57409Y91742D01*
X57610Y91619D01*
X57828Y91528D01*
X58058Y91473D01*
X58293Y91459D01*
X64529Y91473D01*
X64758Y91528D01*
X64976Y91619D01*
X65178Y91742D01*
X65207Y91767D01*
X65212Y91760D01*
X65547Y91474D01*
X65923Y91244D01*
X66330Y91075D01*
X66759Y90972D01*
X67198Y90938D01*
X67638Y90972D01*
X68066Y91075D01*
X68473Y91244D01*
X68849Y91474D01*
X69056Y91651D01*
X69152Y91611D01*
X69305Y91574D01*
X69462Y91565D01*
X72965Y91574D01*
X73118Y91611D01*
X73264Y91671D01*
X73398Y91754D01*
X73518Y91856D01*
X73620Y91976D01*
X73702Y92110D01*
X73762Y92255D01*
X73799Y92408D01*
X73808Y92565D01*
X73799Y97052D01*
X73762Y97205D01*
X73702Y97351D01*
X73620Y97485D01*
X73518Y97604D01*
X73398Y97707D01*
X73264Y97789D01*
X73118Y97849D01*
X72965Y97886D01*
X72808Y97895D01*
X69305Y97886D01*
X69152Y97849D01*
X69007Y97789D01*
X68873Y97707D01*
X68753Y97604D01*
X68651Y97485D01*
X68569Y97351D01*
X68508Y97205D01*
X68472Y97052D01*
X68462Y96895D01*
X68464Y96253D01*
X68066Y96417D01*
X67638Y96520D01*
X67198Y96555D01*
X66759Y96520D01*
X66330Y96417D01*
X65923Y96249D01*
X65793Y96169D01*
X65779Y97918D01*
X65724Y98147D01*
X65634Y98365D01*
X65570Y98470D01*
X65616Y98545D01*
X67502D01*
X67560Y98541D01*
X67795Y98559D01*
X67796Y98559D01*
X68025Y98614D01*
X68243Y98705D01*
X68445Y98828D01*
X68624Y98981D01*
X68663Y99026D01*
X68788Y99151D01*
X76032D01*
Y97889D01*
X74815Y97886D01*
X74662Y97849D01*
X74517Y97789D01*
X74383Y97707D01*
X74263Y97604D01*
X74161Y97485D01*
X74079Y97351D01*
X74018Y97205D01*
X73982Y97052D01*
X73972Y96895D01*
X73982Y92408D01*
X74018Y92255D01*
X74079Y92110D01*
X74161Y91976D01*
X74263Y91856D01*
X74383Y91754D01*
X74517Y91671D01*
X74662Y91611D01*
X74815Y91574D01*
X74972Y91565D01*
X76032Y91568D01*
Y85423D01*
X56227D01*
X55819Y85831D01*
X55811Y89226D01*
X55756Y89455D01*
X55666Y89673D01*
X55543Y89875D01*
X55389Y90054D01*
X55210Y90207D01*
X55008Y90331D01*
X54790Y90421D01*
X54561Y90476D01*
X54325Y90490D01*
X52516Y90476D01*
X52286Y90421D01*
X52068Y90331D01*
X51963Y90267D01*
X51858Y90331D01*
X51640Y90421D01*
X51411Y90476D01*
X51175Y90490D01*
X50959Y90489D01*
Y119059D01*
X51411Y119062D01*
X51640Y119117D01*
X51858Y119208D01*
X51963Y119272D01*
X52067Y119208D01*
X52285Y119117D01*
X52515Y119062D01*
X52750Y119048D01*
X54560Y119062D01*
X54789Y119117D01*
X55007Y119208D01*
X55209Y119331D01*
X55388Y119484D01*
X55542Y119664D01*
X55665Y119865D01*
X55755Y120083D01*
X55810Y120313D01*
X55824Y120548D01*
X55810Y126784D01*
X55755Y127013D01*
X55665Y127231D01*
X55542Y127433D01*
X55388Y127612D01*
X55209Y127765D01*
X55037Y127870D01*
Y128366D01*
X55387Y128339D01*
X55827Y128373D01*
X56255Y128476D01*
X56662Y128645D01*
X57038Y128875D01*
X57373Y129161D01*
X57660Y129496D01*
X57890Y129872D01*
X58058Y130279D01*
X58161Y130708D01*
X58187Y131147D01*
X58161Y131587D01*
X58058Y132015D01*
X57890Y132422D01*
X57660Y132798D01*
X57373Y133133D01*
X57038Y133419D01*
X56662Y133650D01*
X56255Y133818D01*
X55827Y133921D01*
X55387Y133956D01*
X54948Y133921D01*
X54519Y133818D01*
X54112Y133650D01*
X53736Y133419D01*
X53401Y133133D01*
X53115Y132798D01*
X52927Y132491D01*
X52739Y132798D01*
X52452Y133133D01*
X52117Y133419D01*
X51741Y133650D01*
X51334Y133818D01*
X50959Y133908D01*
Y139356D01*
G37*
G36*
X46566Y77808D02*X47734Y76641D01*
X47692Y76469D01*
X47658Y76029D01*
X47692Y75590D01*
X47795Y75161D01*
X47964Y74754D01*
X48194Y74378D01*
X48480Y74043D01*
X48815Y73757D01*
X49191Y73527D01*
X49598Y73358D01*
X50027Y73255D01*
X50466Y73221D01*
X50906Y73255D01*
X50959Y73268D01*
Y61809D01*
X48531Y61799D01*
X48301Y61744D01*
X48083Y61654D01*
X47882Y61530D01*
X47702Y61377D01*
X47549Y61198D01*
X47426Y60996D01*
X47335Y60778D01*
X47280Y60549D01*
X47266Y60313D01*
X47280Y56078D01*
X47335Y55848D01*
X47426Y55630D01*
X47549Y55429D01*
X47702Y55249D01*
X47882Y55096D01*
X48083Y54973D01*
X48301Y54882D01*
X48531Y54827D01*
X48766Y54813D01*
X49720Y54817D01*
X50959Y53578D01*
Y51057D01*
X50809Y51066D01*
X47395Y51062D01*
X46566Y51891D01*
Y63020D01*
X48502Y63027D01*
X48731Y63082D01*
X48949Y63173D01*
X49151Y63296D01*
X49330Y63449D01*
X49484Y63629D01*
X49607Y63830D01*
X49697Y64048D01*
X49752Y64278D01*
X49766Y64513D01*
X49752Y68749D01*
X49697Y68978D01*
X49607Y69196D01*
X49484Y69398D01*
X49330Y69577D01*
X49151Y69730D01*
X48949Y69854D01*
X48731Y69944D01*
X48502Y69999D01*
X48266Y70013D01*
X46566Y70007D01*
Y77808D01*
G37*
G36*
X39921Y66689D02*Y74957D01*
X39928Y75045D01*
X39900Y75398D01*
X39900Y75398D01*
X39818Y75743D01*
X39682Y76070D01*
X39497Y76372D01*
X39267Y76641D01*
X39200Y76699D01*
X36372Y79527D01*
X36314Y79594D01*
X36045Y79824D01*
X35743Y80009D01*
X35416Y80145D01*
X35071Y80227D01*
X35071Y80227D01*
X34718Y80255D01*
X34630Y80248D01*
X34094D01*
X34027Y80357D01*
X33618Y80835D01*
X33140Y81244D01*
X32659Y81539D01*
X32743Y81559D01*
X32961Y81650D01*
X33066Y81714D01*
X33170Y81650D01*
X33388Y81559D01*
X33618Y81504D01*
X33853Y81490D01*
X35663Y81504D01*
X35892Y81559D01*
X36110Y81650D01*
X36215Y81714D01*
X36320Y81650D01*
X36538Y81559D01*
X36768Y81504D01*
X37003Y81490D01*
X38813Y81504D01*
X39042Y81559D01*
X39260Y81650D01*
X39365Y81714D01*
X39469Y81650D01*
X39687Y81559D01*
X39917Y81504D01*
X40152Y81490D01*
X41962Y81504D01*
X42191Y81559D01*
X42409Y81650D01*
X42514Y81714D01*
X42619Y81650D01*
X42837Y81559D01*
X42851Y81556D01*
X42872Y81522D01*
X43025Y81342D01*
X43070Y81304D01*
X46566Y77808D01*
Y70007D01*
X44631Y69999D01*
X44401Y69944D01*
X44183Y69854D01*
X43982Y69730D01*
X43802Y69577D01*
X43649Y69398D01*
X43526Y69196D01*
X43435Y68978D01*
X43380Y68749D01*
X43366Y68513D01*
X43380Y64278D01*
X43435Y64048D01*
X43526Y63830D01*
X43649Y63629D01*
X43802Y63449D01*
X43982Y63296D01*
X44183Y63173D01*
X44401Y63082D01*
X44631Y63027D01*
X44866Y63013D01*
X46566Y63020D01*
Y51891D01*
X40834Y57623D01*
X40827Y60341D01*
X40790Y60494D01*
X40730Y60640D01*
X40648Y60774D01*
X40546Y60893D01*
X40426Y60996D01*
X40292Y61078D01*
X40146Y61138D01*
X39993Y61175D01*
X39836Y61184D01*
X35349Y61175D01*
X35196Y61138D01*
X35051Y61078D01*
X34917Y60996D01*
X34797Y60893D01*
X34774Y60866D01*
X33656D01*
X33640Y60931D01*
X33550Y61149D01*
X33427Y61351D01*
X33273Y61530D01*
X33114Y61666D01*
X33273Y61802D01*
X33427Y61982D01*
X33550Y62183D01*
X33640Y62401D01*
X33695Y62631D01*
X33709Y62866D01*
X33695Y66802D01*
X33640Y67031D01*
X33550Y67249D01*
X33427Y67451D01*
X33273Y67630D01*
X33114Y67766D01*
X33273Y67902D01*
X33427Y68082D01*
X33550Y68283D01*
X33640Y68501D01*
X33695Y68731D01*
X33709Y68966D01*
X33695Y72902D01*
X33640Y73131D01*
X33550Y73349D01*
X33427Y73551D01*
X33273Y73730D01*
X33094Y73883D01*
X32892Y74007D01*
X32674Y74097D01*
X32445Y74152D01*
X32209Y74166D01*
X31952Y74166D01*
X32021Y74182D01*
X32603Y74423D01*
X33140Y74752D01*
X33618Y75161D01*
X33966Y75568D01*
X35421Y74113D01*
Y66685D01*
X35349Y66685D01*
X35196Y66648D01*
X35051Y66588D01*
X34917Y66506D01*
X34797Y66403D01*
X34695Y66284D01*
X34613Y66150D01*
X34552Y66004D01*
X34516Y65851D01*
X34506Y65694D01*
X34516Y62191D01*
X34552Y62038D01*
X34613Y61893D01*
X34695Y61759D01*
X34797Y61639D01*
X34917Y61537D01*
X35051Y61454D01*
X35196Y61394D01*
X35349Y61357D01*
X35506Y61348D01*
X39993Y61357D01*
X40146Y61394D01*
X40292Y61454D01*
X40426Y61537D01*
X40546Y61639D01*
X40648Y61759D01*
X40730Y61893D01*
X40790Y62038D01*
X40827Y62191D01*
X40836Y62348D01*
X40827Y65851D01*
X40790Y66004D01*
X40730Y66150D01*
X40648Y66284D01*
X40546Y66403D01*
X40426Y66506D01*
X40292Y66588D01*
X40146Y66648D01*
X39993Y66685D01*
X39921Y66689D01*
G37*
G36*
X36659Y4871D02*X37110Y4594D01*
X37764Y4323D01*
X38453Y4158D01*
X39159Y4102D01*
X39865Y4158D01*
X40554Y4323D01*
X41209Y4594D01*
X41813Y4964D01*
X42351Y5424D01*
X42811Y5963D01*
X43181Y6567D01*
X43452Y7221D01*
X43618Y7910D01*
X43659Y8616D01*
X43618Y9322D01*
X43452Y10011D01*
X43181Y10665D01*
X42811Y11269D01*
X42351Y11808D01*
X42159Y11972D01*
Y12299D01*
X46159Y16299D01*
Y11972D01*
X45968Y11808D01*
X45508Y11269D01*
X45137Y10665D01*
X44866Y10011D01*
X44701Y9322D01*
X44645Y8616D01*
X44701Y7910D01*
X44866Y7221D01*
X45137Y6567D01*
X45508Y5963D01*
X45968Y5424D01*
X46506Y4964D01*
X47110Y4594D01*
X47764Y4323D01*
X48453Y4158D01*
X49159Y4102D01*
X49865Y4158D01*
X50554Y4323D01*
X50959Y4491D01*
Y3235D01*
X36659D01*
Y4871D01*
G37*
G36*
Y55434D02*X42309Y49784D01*
X42319Y32009D01*
X42355Y31856D01*
X42416Y31711D01*
X42498Y31577D01*
X42600Y31457D01*
X42720Y31355D01*
X42854Y31272D01*
X42999Y31212D01*
X43152Y31175D01*
X43309Y31166D01*
X50959Y31175D01*
Y29584D01*
X37121Y15746D01*
X37031Y15669D01*
X36725Y15310D01*
X36659Y15203D01*
Y31171D01*
X40566Y31175D01*
X40719Y31212D01*
X40865Y31272D01*
X40999Y31355D01*
X41119Y31457D01*
X41221Y31577D01*
X41303Y31711D01*
X41363Y31856D01*
X41400Y32009D01*
X41409Y32166D01*
X41400Y50223D01*
X41363Y50376D01*
X41303Y50522D01*
X41221Y50656D01*
X41119Y50775D01*
X40999Y50878D01*
X40865Y50960D01*
X40719Y51020D01*
X40566Y51057D01*
X40409Y51066D01*
X36659Y51062D01*
Y55434D01*
G37*
G36*
X28377Y55271D02*X32445Y55280D01*
X32674Y55335D01*
X32892Y55426D01*
X33094Y55549D01*
X33273Y55702D01*
X33427Y55882D01*
X33550Y56083D01*
X33640Y56301D01*
X33656Y56366D01*
X34623D01*
X34695Y56249D01*
X34797Y56129D01*
X34917Y56027D01*
X35051Y55944D01*
X35196Y55884D01*
X35349Y55847D01*
X35506Y55838D01*
X36254Y55840D01*
X36659Y55434D01*
Y51062D01*
X32752Y51057D01*
X32599Y51020D01*
X32454Y50960D01*
X32320Y50878D01*
X32200Y50775D01*
X32098Y50656D01*
X32016Y50522D01*
X31955Y50376D01*
X31919Y50223D01*
X31909Y50066D01*
X31919Y32009D01*
X31955Y31856D01*
X32016Y31711D01*
X32098Y31577D01*
X32200Y31457D01*
X32320Y31355D01*
X32454Y31272D01*
X32599Y31212D01*
X32752Y31175D01*
X32909Y31166D01*
X36659Y31171D01*
Y15203D01*
X36478Y14907D01*
X36297Y14471D01*
X36187Y14012D01*
X36187Y14012D01*
X36150Y13541D01*
X36159Y13424D01*
Y11972D01*
X35968Y11808D01*
X35508Y11269D01*
X35137Y10665D01*
X34866Y10011D01*
X34701Y9322D01*
X34645Y8616D01*
X34701Y7910D01*
X34866Y7221D01*
X35137Y6567D01*
X35508Y5963D01*
X35968Y5424D01*
X36506Y4964D01*
X36659Y4871D01*
Y3235D01*
X28377D01*
Y4176D01*
X28453Y4158D01*
X29159Y4102D01*
X29865Y4158D01*
X30554Y4323D01*
X31209Y4594D01*
X31813Y4964D01*
X32351Y5424D01*
X32811Y5963D01*
X33181Y6567D01*
X33452Y7221D01*
X33618Y7910D01*
X33659Y8616D01*
X33618Y9322D01*
X33452Y10011D01*
X33181Y10665D01*
X32811Y11269D01*
X32351Y11808D01*
X32159Y11972D01*
Y15628D01*
X33395Y15630D01*
X33624Y15685D01*
X33842Y15776D01*
X34044Y15899D01*
X34223Y16052D01*
X34377Y16232D01*
X34500Y16433D01*
X34590Y16651D01*
X34645Y16881D01*
X34659Y17116D01*
X34645Y25352D01*
X34590Y25581D01*
X34500Y25799D01*
X34377Y26001D01*
X34223Y26180D01*
X34044Y26333D01*
X33842Y26457D01*
X33624Y26547D01*
X33395Y26602D01*
X33159Y26616D01*
X28377Y26608D01*
Y55271D01*
G37*
G36*
Y74792D02*X28423Y74752D01*
X28960Y74423D01*
X29541Y74182D01*
X29632Y74161D01*
X28377Y74158D01*
Y74792D01*
G37*
G36*
Y122048D02*X29213D01*
X29217Y120313D01*
X29272Y120083D01*
X29363Y119865D01*
X29486Y119664D01*
X29639Y119484D01*
X29819Y119331D01*
X30020Y119208D01*
X30238Y119117D01*
X30468Y119062D01*
X30703Y119048D01*
X32513Y119062D01*
X32742Y119117D01*
X32960Y119208D01*
X33065Y119272D01*
X33170Y119208D01*
X33388Y119117D01*
X33618Y119062D01*
X33853Y119048D01*
X35663Y119062D01*
X35892Y119117D01*
X36110Y119208D01*
X36215Y119272D01*
X36319Y119208D01*
X36537Y119117D01*
X36767Y119062D01*
X37002Y119048D01*
X38812Y119062D01*
X39041Y119117D01*
X39259Y119208D01*
X39364Y119272D01*
X39469Y119208D01*
X39687Y119117D01*
X39917Y119062D01*
X40152Y119048D01*
X41962Y119062D01*
X42191Y119117D01*
X42409Y119208D01*
X42514Y119272D01*
X42619Y119208D01*
X42837Y119117D01*
X43067Y119062D01*
X43302Y119048D01*
X45112Y119062D01*
X45341Y119117D01*
X45559Y119208D01*
X45664Y119272D01*
X45768Y119208D01*
X45986Y119117D01*
X46216Y119062D01*
X46451Y119048D01*
X48261Y119062D01*
X48490Y119117D01*
X48708Y119208D01*
X48813Y119272D01*
X48918Y119208D01*
X49136Y119117D01*
X49366Y119062D01*
X49601Y119048D01*
X50959Y119059D01*
Y90489D01*
X49366Y90476D01*
X49136Y90421D01*
X48918Y90331D01*
X48814Y90267D01*
X48709Y90331D01*
X48491Y90421D01*
X48262Y90476D01*
X48026Y90490D01*
X46217Y90476D01*
X45987Y90421D01*
X45769Y90331D01*
X45664Y90267D01*
X45559Y90331D01*
X45341Y90421D01*
X45112Y90476D01*
X44876Y90490D01*
X43067Y90476D01*
X42837Y90421D01*
X42619Y90331D01*
X42514Y90267D01*
X42409Y90331D01*
X42191Y90421D01*
X41962Y90476D01*
X41726Y90490D01*
X39917Y90476D01*
X39687Y90421D01*
X39469Y90331D01*
X39365Y90267D01*
X39260Y90331D01*
X39042Y90421D01*
X38813Y90476D01*
X38577Y90490D01*
X36768Y90476D01*
X36538Y90421D01*
X36320Y90331D01*
X36215Y90267D01*
X36110Y90331D01*
X35892Y90421D01*
X35663Y90476D01*
X35427Y90490D01*
X33618Y90476D01*
X33388Y90421D01*
X33170Y90331D01*
X33066Y90267D01*
X32961Y90331D01*
X32743Y90421D01*
X32514Y90476D01*
X32278Y90490D01*
X30469Y90476D01*
X30239Y90421D01*
X30021Y90331D01*
X29820Y90207D01*
X29640Y90054D01*
X29487Y89875D01*
X29364Y89673D01*
X29273Y89455D01*
X29218Y89226D01*
X29204Y88990D01*
X29218Y82755D01*
X29273Y82525D01*
X29364Y82307D01*
X29487Y82106D01*
X29640Y81926D01*
X29721Y81857D01*
X29541Y81814D01*
X28960Y81573D01*
X28423Y81244D01*
X28377Y81205D01*
Y93157D01*
X29434Y94214D01*
X32354D01*
X32446Y94063D01*
X32732Y93728D01*
X33067Y93442D01*
X33443Y93212D01*
X33850Y93043D01*
X34279Y92940D01*
X34718Y92906D01*
X35158Y92940D01*
X35586Y93043D01*
X35993Y93212D01*
X36369Y93442D01*
X36704Y93728D01*
X36991Y94063D01*
X37221Y94439D01*
X37389Y94846D01*
X37492Y95275D01*
X37518Y95714D01*
X37492Y96154D01*
X37389Y96582D01*
X37221Y96989D01*
X36991Y97365D01*
X36704Y97700D01*
X36369Y97986D01*
X36061Y98175D01*
X36369Y98364D01*
X36704Y98650D01*
X36991Y98985D01*
X37221Y99361D01*
X37389Y99768D01*
X37492Y100197D01*
X37518Y100636D01*
X37492Y101076D01*
X37389Y101504D01*
X37221Y101911D01*
X36991Y102287D01*
X36704Y102622D01*
X36369Y102908D01*
X35993Y103139D01*
X35586Y103307D01*
X35158Y103410D01*
X34718Y103445D01*
X34279Y103410D01*
X33850Y103307D01*
X33443Y103139D01*
X33067Y102908D01*
X32732Y102622D01*
X32446Y102287D01*
X32216Y101911D01*
X32047Y101504D01*
X31944Y101076D01*
X31910Y100636D01*
X31944Y100197D01*
X31986Y100025D01*
X31144Y99183D01*
X28377D01*
Y122048D01*
G37*
G36*
Y139356D02*X50959D01*
Y133908D01*
X50906Y133921D01*
X50466Y133956D01*
X50027Y133921D01*
X49598Y133818D01*
X49191Y133650D01*
X48815Y133419D01*
X48480Y133133D01*
X48194Y132798D01*
X47964Y132422D01*
X47795Y132015D01*
X47692Y131587D01*
X47658Y131147D01*
X47692Y130708D01*
X47795Y130279D01*
X47964Y129872D01*
X48194Y129496D01*
X48480Y129161D01*
X48815Y128875D01*
X48888Y128830D01*
Y127870D01*
X48813Y127825D01*
X48708Y127889D01*
X48490Y127979D01*
X48261Y128034D01*
X48025Y128048D01*
X46216Y128034D01*
X45986Y127979D01*
X45768Y127889D01*
X45664Y127825D01*
X45559Y127889D01*
X45341Y127979D01*
X45112Y128034D01*
X44876Y128048D01*
X43067Y128034D01*
X42837Y127979D01*
X42619Y127889D01*
X42514Y127825D01*
X42409Y127889D01*
X42191Y127979D01*
X41962Y128034D01*
X41726Y128048D01*
X39917Y128034D01*
X39687Y127979D01*
X39469Y127889D01*
X39364Y127825D01*
X39259Y127889D01*
X39041Y127979D01*
X38812Y128034D01*
X38576Y128048D01*
X36767Y128034D01*
X36537Y127979D01*
X36319Y127889D01*
X36215Y127825D01*
X36110Y127889D01*
X35892Y127979D01*
X35663Y128034D01*
X35427Y128048D01*
X33618Y128034D01*
X33388Y127979D01*
X33170Y127889D01*
X33065Y127825D01*
X32960Y127889D01*
X32742Y127979D01*
X32513Y128034D01*
X32277Y128048D01*
X30468Y128034D01*
X30238Y127979D01*
X30020Y127889D01*
X29819Y127765D01*
X29639Y127612D01*
X29486Y127433D01*
X29363Y127231D01*
X29272Y127013D01*
X29217Y126784D01*
X29203Y126548D01*
X29207Y125048D01*
X28377D01*
Y139356D01*
G37*
G36*
X7154Y4118D02*X12395Y4130D01*
X12624Y4185D01*
X12842Y4276D01*
X13044Y4399D01*
X13223Y4552D01*
X13377Y4732D01*
X13500Y4933D01*
X13590Y5151D01*
X13645Y5381D01*
X13659Y5616D01*
X14673D01*
X14673Y5381D01*
X14728Y5151D01*
X14819Y4933D01*
X14942Y4732D01*
X15095Y4552D01*
X15275Y4399D01*
X15476Y4276D01*
X15694Y4185D01*
X15924Y4130D01*
X16159Y4116D01*
X22395Y4130D01*
X22624Y4185D01*
X22842Y4276D01*
X23044Y4399D01*
X23223Y4552D01*
X23377Y4732D01*
X23500Y4933D01*
X23590Y5151D01*
X23645Y5381D01*
X23659Y5616D01*
X23645Y11852D01*
X23590Y12081D01*
X23500Y12299D01*
X23377Y12501D01*
X23223Y12680D01*
X23044Y12833D01*
X22842Y12957D01*
X22624Y13047D01*
X22395Y13102D01*
X22159Y13116D01*
X22159D01*
Y26748D01*
X23961Y28550D01*
X24051Y28626D01*
X24358Y28985D01*
X24358Y28985D01*
X24605Y29388D01*
X24785Y29824D01*
X24896Y30283D01*
X24933Y30754D01*
X24923Y30872D01*
Y31174D01*
X25766Y31175D01*
X25919Y31212D01*
X26065Y31272D01*
X26199Y31355D01*
X26319Y31457D01*
X26421Y31577D01*
X26503Y31711D01*
X26563Y31856D01*
X26600Y32009D01*
X26609Y32166D01*
X26600Y50223D01*
X26563Y50376D01*
X26503Y50522D01*
X26421Y50656D01*
X26319Y50775D01*
X26199Y50878D01*
X26065Y50960D01*
X25919Y51020D01*
X25766Y51057D01*
X25609Y51066D01*
X24109Y51064D01*
Y55349D01*
X24436Y55676D01*
X24503Y55733D01*
X24733Y56002D01*
X24733Y56003D01*
X24776Y56072D01*
X24892Y55882D01*
X25045Y55702D01*
X25225Y55549D01*
X25426Y55426D01*
X25644Y55335D01*
X25874Y55280D01*
X26109Y55266D01*
X28377Y55271D01*
Y26608D01*
X24924Y26602D01*
X24694Y26547D01*
X24476Y26457D01*
X24275Y26333D01*
X24095Y26180D01*
X23942Y26001D01*
X23819Y25799D01*
X23728Y25581D01*
X23673Y25352D01*
X23659Y25116D01*
X23673Y16881D01*
X23728Y16651D01*
X23819Y16433D01*
X23942Y16232D01*
X24095Y16052D01*
X24275Y15899D01*
X24476Y15776D01*
X24694Y15685D01*
X24924Y15630D01*
X25159Y15616D01*
X26159Y15618D01*
Y11972D01*
X25968Y11808D01*
X25508Y11269D01*
X25137Y10665D01*
X24866Y10011D01*
X24701Y9322D01*
X24645Y8616D01*
X24701Y7910D01*
X24866Y7221D01*
X25137Y6567D01*
X25508Y5963D01*
X25968Y5424D01*
X26506Y4964D01*
X27110Y4594D01*
X27764Y4323D01*
X28377Y4176D01*
Y3235D01*
X7154D01*
Y4118D01*
G37*
G36*
X12772Y57688D02*X12845Y57602D01*
X13025Y57449D01*
X13226Y57326D01*
X13444Y57235D01*
X13674Y57180D01*
X13909Y57166D01*
X19796Y57179D01*
X19713Y56979D01*
X19630Y56634D01*
X19630Y56634D01*
X19602Y56281D01*
X19609Y56193D01*
Y51059D01*
X17952Y51057D01*
X17799Y51020D01*
X17654Y50960D01*
X17520Y50878D01*
X17400Y50775D01*
X17298Y50656D01*
X17216Y50522D01*
X17155Y50376D01*
X17119Y50223D01*
X17109Y50066D01*
X17119Y32009D01*
X17155Y31856D01*
X17216Y31711D01*
X17298Y31577D01*
X17400Y31457D01*
X17520Y31355D01*
X17654Y31272D01*
X17799Y31212D01*
X17952Y31175D01*
X18094Y31167D01*
X17121Y30195D01*
X17031Y30118D01*
X16725Y29759D01*
X16478Y29356D01*
X16297Y28920D01*
X16187Y28461D01*
X16187Y28461D01*
X16150Y27990D01*
X16159Y27873D01*
Y13103D01*
X15924Y13102D01*
X15694Y13047D01*
X15476Y12957D01*
X15275Y12833D01*
X15095Y12680D01*
X14942Y12501D01*
X14819Y12299D01*
X14728Y12081D01*
X14673Y11852D01*
X14659Y11616D01*
X13646D01*
X13645Y11852D01*
X13590Y12081D01*
X13500Y12299D01*
X13377Y12501D01*
X13223Y12680D01*
X13044Y12833D01*
X12842Y12957D01*
X12772Y12986D01*
Y16469D01*
X12815Y16476D01*
X12927Y16514D01*
X13032Y16568D01*
X13127Y16638D01*
X13210Y16722D01*
X13279Y16818D01*
X13329Y16925D01*
X13478Y17332D01*
X13581Y17753D01*
X13644Y18183D01*
X13665Y18616D01*
X13644Y19050D01*
X13581Y19479D01*
X13478Y19900D01*
X13334Y20310D01*
X13282Y20416D01*
X13213Y20513D01*
X13129Y20597D01*
X13034Y20667D01*
X12929Y20722D01*
X12816Y20760D01*
X12772Y20767D01*
Y31172D01*
X15366Y31175D01*
X15519Y31212D01*
X15665Y31272D01*
X15799Y31355D01*
X15919Y31457D01*
X16021Y31577D01*
X16103Y31711D01*
X16163Y31856D01*
X16200Y32009D01*
X16209Y32166D01*
X16200Y50223D01*
X16163Y50376D01*
X16103Y50522D01*
X16021Y50656D01*
X15919Y50775D01*
X15799Y50878D01*
X15665Y50960D01*
X15519Y51020D01*
X15366Y51057D01*
X15209Y51066D01*
X12772Y51063D01*
Y57688D01*
G37*
G36*
X18381Y74017D02*X18614Y74035D01*
X19226Y74182D01*
X19808Y74423D01*
X20345Y74752D01*
X20823Y75161D01*
X21232Y75640D01*
X21561Y76177D01*
X21802Y76758D01*
X21949Y77371D01*
X21986Y77998D01*
X21949Y78626D01*
X21802Y79238D01*
X21561Y79820D01*
X21232Y80357D01*
X20823Y80835D01*
X20345Y81244D01*
X19808Y81573D01*
X19226Y81814D01*
X18614Y81961D01*
X18381Y81979D01*
Y82101D01*
X20469Y84189D01*
X21392Y84193D01*
X21545Y84230D01*
X21690Y84290D01*
X21824Y84372D01*
X21944Y84474D01*
X22046Y84594D01*
X22129Y84728D01*
X22189Y84874D01*
X22226Y85027D01*
X22235Y85184D01*
X22226Y88292D01*
X22189Y88445D01*
X22129Y88590D01*
X22046Y88724D01*
X21944Y88844D01*
X21824Y88946D01*
X21690Y89028D01*
X21545Y89089D01*
X21392Y89125D01*
X21235Y89135D01*
X18913Y89125D01*
X18760Y89089D01*
X18614Y89028D01*
X18480Y88946D01*
X18381Y88862D01*
Y121098D01*
X20211Y121102D01*
X20364Y121139D01*
X20510Y121199D01*
X20644Y121282D01*
X20764Y121384D01*
X20866Y121504D01*
X20948Y121638D01*
X21008Y121783D01*
X21045Y121936D01*
X21054Y122093D01*
X21045Y126580D01*
X21008Y126733D01*
X20948Y126879D01*
X20866Y127013D01*
X20764Y127132D01*
X20644Y127235D01*
X20510Y127317D01*
X20364Y127377D01*
X20211Y127414D01*
X20054Y127423D01*
X18381Y127419D01*
Y130866D01*
X19022D01*
X21641Y128247D01*
Y127242D01*
X21629Y127235D01*
X21509Y127132D01*
X21407Y127013D01*
X21325Y126879D01*
X21264Y126733D01*
X21228Y126580D01*
X21218Y126423D01*
X21228Y121936D01*
X21264Y121783D01*
X21325Y121638D01*
X21407Y121504D01*
X21509Y121384D01*
X21629Y121282D01*
X21763Y121199D01*
X21908Y121139D01*
X22061Y121102D01*
X22218Y121093D01*
X25721Y121102D01*
X25874Y121139D01*
X26020Y121199D01*
X26154Y121282D01*
X26274Y121384D01*
X26376Y121504D01*
X26458Y121638D01*
X26518Y121783D01*
X26555Y121936D01*
X26562Y122048D01*
X28377D01*
Y99183D01*
X28231D01*
X28235Y99257D01*
X28221Y101067D01*
X28166Y101296D01*
X28076Y101514D01*
X28012Y101619D01*
X28076Y101724D01*
X28166Y101942D01*
X28221Y102172D01*
X28235Y102407D01*
X28221Y104217D01*
X28166Y104446D01*
X28076Y104664D01*
X28012Y104769D01*
X28076Y104874D01*
X28166Y105092D01*
X28221Y105322D01*
X28235Y105557D01*
X28221Y107367D01*
X28166Y107596D01*
X28076Y107814D01*
X28012Y107919D01*
X28076Y108023D01*
X28166Y108241D01*
X28221Y108471D01*
X28235Y108706D01*
X28221Y110516D01*
X28166Y110745D01*
X28076Y110963D01*
X28012Y111068D01*
X28076Y111173D01*
X28166Y111391D01*
X28221Y111621D01*
X28235Y111856D01*
X28221Y113666D01*
X28166Y113895D01*
X28076Y114113D01*
X28012Y114218D01*
X28076Y114322D01*
X28166Y114540D01*
X28221Y114770D01*
X28235Y115005D01*
X28221Y116815D01*
X28166Y117044D01*
X28076Y117262D01*
X27953Y117464D01*
X27799Y117643D01*
X27620Y117796D01*
X27418Y117920D01*
X27200Y118010D01*
X26971Y118065D01*
X26735Y118079D01*
X20500Y118065D01*
X20270Y118010D01*
X20052Y117920D01*
X19851Y117796D01*
X19671Y117643D01*
X19518Y117464D01*
X19395Y117262D01*
X19304Y117044D01*
X19249Y116815D01*
X19235Y116579D01*
X19249Y114770D01*
X19304Y114540D01*
X19395Y114322D01*
X19459Y114218D01*
X19395Y114113D01*
X19304Y113895D01*
X19249Y113666D01*
X19235Y113430D01*
X19249Y111621D01*
X19304Y111391D01*
X19395Y111173D01*
X19459Y111068D01*
X19395Y110963D01*
X19304Y110745D01*
X19249Y110516D01*
X19235Y110280D01*
X19249Y108471D01*
X19304Y108241D01*
X19395Y108023D01*
X19459Y107919D01*
X19395Y107814D01*
X19304Y107596D01*
X19249Y107367D01*
X19235Y107131D01*
X19249Y105322D01*
X19304Y105092D01*
X19395Y104874D01*
X19459Y104769D01*
X19395Y104664D01*
X19304Y104446D01*
X19249Y104217D01*
X19235Y103981D01*
X19249Y102172D01*
X19304Y101942D01*
X19395Y101724D01*
X19459Y101619D01*
X19395Y101514D01*
X19304Y101296D01*
X19249Y101067D01*
X19235Y100831D01*
X19249Y99022D01*
X19304Y98792D01*
X19395Y98574D01*
X19459Y98470D01*
X19395Y98365D01*
X19304Y98147D01*
X19249Y97918D01*
X19235Y97682D01*
X19249Y95873D01*
X19304Y95643D01*
X19395Y95425D01*
X19459Y95320D01*
X19395Y95215D01*
X19304Y94997D01*
X19249Y94768D01*
X19235Y94532D01*
X19249Y92723D01*
X19304Y92493D01*
X19395Y92275D01*
X19518Y92074D01*
X19671Y91894D01*
X19851Y91741D01*
X20052Y91618D01*
X20270Y91527D01*
X20500Y91472D01*
X20735Y91458D01*
X22982Y91463D01*
Y89044D01*
X22944Y89028D01*
X22810Y88946D01*
X22691Y88844D01*
X22588Y88724D01*
X22506Y88590D01*
X22446Y88445D01*
X22409Y88292D01*
X22400Y88135D01*
X22409Y85027D01*
X22446Y84874D01*
X22506Y84728D01*
X22588Y84594D01*
X22691Y84474D01*
X22810Y84372D01*
X22944Y84290D01*
X23090Y84230D01*
X23243Y84193D01*
X23400Y84184D01*
X25722Y84193D01*
X25875Y84230D01*
X26020Y84290D01*
X26154Y84372D01*
X26274Y84474D01*
X26376Y84594D01*
X26459Y84728D01*
X26519Y84874D01*
X26556Y85027D01*
X26565Y85184D01*
X26556Y88292D01*
X26519Y88445D01*
X26459Y88590D01*
X26376Y88724D01*
X26274Y88844D01*
X26154Y88946D01*
X26020Y89028D01*
X25982Y89044D01*
Y91470D01*
X26971Y91472D01*
X27200Y91527D01*
X27418Y91618D01*
X27620Y91741D01*
X27799Y91894D01*
X27953Y92074D01*
X28076Y92275D01*
X28166Y92493D01*
X28221Y92723D01*
X28235Y92958D01*
X28235Y93015D01*
X28377Y93157D01*
Y81205D01*
X27944Y80835D01*
X27535Y80357D01*
X27206Y79820D01*
X26965Y79238D01*
X26818Y78626D01*
X26769Y77998D01*
X26818Y77371D01*
X26965Y76758D01*
X27206Y76177D01*
X27535Y75640D01*
X27944Y75161D01*
X28377Y74792D01*
Y74158D01*
X25874Y74152D01*
X25644Y74097D01*
X25426Y74007D01*
X25225Y73883D01*
X25045Y73730D01*
X24892Y73551D01*
X24769Y73349D01*
X24678Y73131D01*
X24623Y72902D01*
X24609Y72666D01*
X24611Y72057D01*
X21498Y68944D01*
X21495Y71002D01*
X21440Y71231D01*
X21350Y71449D01*
X21227Y71651D01*
X21073Y71830D01*
X20894Y71983D01*
X20692Y72107D01*
X20474Y72197D01*
X20245Y72252D01*
X20009Y72266D01*
X18381Y72263D01*
Y74017D01*
G37*
G36*
Y88862D02*X18361Y88844D01*
X18258Y88724D01*
X18176Y88590D01*
X18116Y88445D01*
X18079Y88292D01*
X18071Y88155D01*
X15314Y85398D01*
Y91676D01*
X15322Y91777D01*
X15314Y91878D01*
Y130866D01*
X18381D01*
Y127419D01*
X16551Y127414D01*
X16398Y127377D01*
X16253Y127317D01*
X16119Y127235D01*
X15999Y127132D01*
X15897Y127013D01*
X15815Y126879D01*
X15754Y126733D01*
X15718Y126580D01*
X15708Y126423D01*
X15718Y121936D01*
X15754Y121783D01*
X15815Y121638D01*
X15897Y121504D01*
X15999Y121384D01*
X16119Y121282D01*
X16253Y121199D01*
X16398Y121139D01*
X16551Y121102D01*
X16708Y121093D01*
X18381Y121098D01*
Y88862D01*
G37*
G36*
Y81979D02*X18268Y81988D01*
X18381Y82101D01*
Y81979D01*
G37*
G36*
X12772Y80029D02*X12892Y79910D01*
X12945Y79847D01*
X13008Y79794D01*
X14053Y78749D01*
X14023Y78626D01*
X13974Y77998D01*
X14023Y77371D01*
X14170Y76758D01*
X14411Y76177D01*
X14740Y75640D01*
X15149Y75161D01*
X15628Y74752D01*
X16165Y74423D01*
X16746Y74182D01*
X17359Y74035D01*
X17986Y73986D01*
X18381Y74017D01*
Y72263D01*
X13674Y72252D01*
X13444Y72197D01*
X13226Y72107D01*
X13025Y71983D01*
X12845Y71830D01*
X12772Y71745D01*
Y80029D01*
G37*
G36*
Y12986D02*X12624Y13047D01*
X12395Y13102D01*
X12159Y13116D01*
X7154Y13105D01*
Y14685D01*
X7181Y14649D01*
X7265Y14566D01*
X7361Y14497D01*
X7468Y14446D01*
X7875Y14298D01*
X8297Y14194D01*
X8726Y14132D01*
X9159Y14111D01*
X9593Y14132D01*
X10022Y14194D01*
X10443Y14298D01*
X10853Y14441D01*
X10959Y14494D01*
X11056Y14563D01*
X11140Y14646D01*
X11211Y14742D01*
X11265Y14847D01*
X11303Y14959D01*
X11322Y15076D01*
X11323Y15195D01*
X11305Y15312D01*
X11269Y15425D01*
X11216Y15531D01*
X11147Y15628D01*
X11064Y15712D01*
X10969Y15783D01*
X10863Y15837D01*
X10751Y15875D01*
X10634Y15894D01*
X10515Y15895D01*
X10398Y15877D01*
X10286Y15839D01*
X10014Y15741D01*
X9734Y15672D01*
X9448Y15630D01*
X9159Y15616D01*
X8871Y15630D01*
X8585Y15672D01*
X8304Y15741D01*
X8032Y15836D01*
X7920Y15874D01*
X7803Y15892D01*
X7685Y15891D01*
X7569Y15871D01*
X7457Y15834D01*
X7352Y15780D01*
X7257Y15710D01*
X7174Y15626D01*
X7154Y15598D01*
Y21629D01*
X7171Y21604D01*
X7255Y21520D01*
X7350Y21450D01*
X7455Y21395D01*
X7568Y21358D01*
X7685Y21338D01*
X7803Y21337D01*
X7921Y21355D01*
X8033Y21393D01*
X8304Y21492D01*
X8585Y21561D01*
X8871Y21602D01*
X9159Y21616D01*
X9448Y21602D01*
X9734Y21561D01*
X10014Y21492D01*
X10287Y21396D01*
X10399Y21358D01*
X10515Y21341D01*
X10634Y21342D01*
X10750Y21361D01*
X10862Y21398D01*
X10967Y21453D01*
X11062Y21523D01*
X11145Y21607D01*
X11213Y21703D01*
X11266Y21808D01*
X11302Y21921D01*
X11319Y22038D01*
X11319Y22156D01*
X11299Y22272D01*
X11262Y22384D01*
X11208Y22489D01*
X11138Y22584D01*
X11053Y22667D01*
X10957Y22735D01*
X10851Y22786D01*
X10443Y22935D01*
X10022Y23038D01*
X9593Y23101D01*
X9159Y23121D01*
X8726Y23101D01*
X8297Y23038D01*
X7875Y22935D01*
X7466Y22791D01*
X7359Y22738D01*
X7263Y22669D01*
X7178Y22586D01*
X7154Y22553D01*
Y31334D01*
X7254Y31272D01*
X7399Y31212D01*
X7552Y31175D01*
X7709Y31166D01*
X12772Y31172D01*
Y20767D01*
X12699Y20779D01*
X12580Y20780D01*
X12463Y20762D01*
X12350Y20726D01*
X12244Y20673D01*
X12148Y20604D01*
X12063Y20521D01*
X11993Y20426D01*
X11938Y20320D01*
X11901Y20208D01*
X11881Y20091D01*
X11880Y19972D01*
X11898Y19855D01*
X11936Y19743D01*
X12035Y19471D01*
X12104Y19191D01*
X12145Y18905D01*
X12159Y18616D01*
X12145Y18328D01*
X12104Y18042D01*
X12035Y17761D01*
X11939Y17488D01*
X11901Y17377D01*
X11884Y17260D01*
X11885Y17142D01*
X11904Y17026D01*
X11941Y16914D01*
X11996Y16809D01*
X12066Y16714D01*
X12150Y16631D01*
X12246Y16562D01*
X12351Y16509D01*
X12464Y16474D01*
X12581Y16456D01*
X12699Y16457D01*
X12772Y16469D01*
Y12986D01*
G37*
G36*
X7154Y129606D02*X7159Y129605D01*
X7709Y129649D01*
X8244Y129777D01*
X8753Y129988D01*
X9223Y130276D01*
X9642Y130634D01*
X9840Y130866D01*
X10814D01*
Y91865D01*
X10807Y91777D01*
X10814Y91689D01*
Y83007D01*
X10807Y82919D01*
X10835Y82567D01*
X10835Y82566D01*
X10835Y82566D01*
X10835Y82566D01*
X10885Y82359D01*
X10918Y82222D01*
X10918Y82222D01*
X10918Y82222D01*
X11003Y82017D01*
X11053Y81895D01*
X11053Y81894D01*
X11053Y81894D01*
X11168Y81707D01*
X11238Y81593D01*
X11238Y81593D01*
X11239Y81592D01*
X11239Y81592D01*
X11468Y81323D01*
X11536Y81266D01*
X12772Y80029D01*
Y71745D01*
X12692Y71651D01*
X12569Y71449D01*
X12478Y71231D01*
X12423Y71002D01*
X12409Y70766D01*
X12423Y58431D01*
X12478Y58201D01*
X12569Y57983D01*
X12692Y57782D01*
X12772Y57688D01*
Y51063D01*
X7552Y51057D01*
X7399Y51020D01*
X7254Y50960D01*
X7154Y50899D01*
Y58506D01*
X7159Y58505D01*
X7709Y58549D01*
X8244Y58677D01*
X8753Y58888D01*
X9223Y59176D01*
X9642Y59534D01*
X10000Y59953D01*
X10287Y60422D01*
X10498Y60931D01*
X10627Y61467D01*
X10659Y62016D01*
X10627Y62565D01*
X10498Y63101D01*
X10287Y63610D01*
X10000Y64080D01*
X9642Y64499D01*
X9223Y64856D01*
X8753Y65144D01*
X8244Y65355D01*
X7709Y65484D01*
X7159Y65527D01*
X7154Y65527D01*
Y66406D01*
X7159Y66405D01*
X7709Y66449D01*
X8244Y66577D01*
X8753Y66788D01*
X9223Y67076D01*
X9642Y67434D01*
X10000Y67853D01*
X10287Y68322D01*
X10498Y68831D01*
X10627Y69367D01*
X10659Y69916D01*
X10627Y70465D01*
X10498Y71001D01*
X10287Y71510D01*
X10000Y71980D01*
X9642Y72399D01*
X9223Y72756D01*
X8753Y73044D01*
X8244Y73255D01*
X7709Y73384D01*
X7159Y73427D01*
X7154Y73427D01*
Y74306D01*
X7159Y74305D01*
X7709Y74349D01*
X8244Y74477D01*
X8753Y74688D01*
X9223Y74976D01*
X9642Y75334D01*
X10000Y75753D01*
X10287Y76222D01*
X10498Y76731D01*
X10627Y77267D01*
X10659Y77816D01*
X10627Y78365D01*
X10498Y78901D01*
X10287Y79410D01*
X10000Y79880D01*
X9642Y80299D01*
X9223Y80656D01*
X8753Y80944D01*
X8244Y81155D01*
X7709Y81284D01*
X7159Y81327D01*
X7154Y81327D01*
Y82206D01*
X7159Y82205D01*
X7709Y82249D01*
X8244Y82377D01*
X8753Y82588D01*
X9223Y82876D01*
X9642Y83234D01*
X10000Y83653D01*
X10287Y84122D01*
X10498Y84631D01*
X10627Y85167D01*
X10659Y85716D01*
X10627Y86265D01*
X10498Y86801D01*
X10287Y87310D01*
X10000Y87780D01*
X9642Y88199D01*
X9223Y88556D01*
X8753Y88844D01*
X8244Y89055D01*
X7709Y89184D01*
X7159Y89227D01*
X7154Y89227D01*
Y90106D01*
X7159Y90105D01*
X7709Y90149D01*
X8244Y90277D01*
X8753Y90488D01*
X9223Y90776D01*
X9642Y91134D01*
X10000Y91553D01*
X10287Y92022D01*
X10498Y92531D01*
X10627Y93067D01*
X10659Y93616D01*
X10627Y94165D01*
X10498Y94701D01*
X10287Y95210D01*
X10000Y95680D01*
X9642Y96099D01*
X9223Y96456D01*
X8753Y96744D01*
X8244Y96955D01*
X7709Y97084D01*
X7159Y97127D01*
X7154Y97127D01*
Y98006D01*
X7159Y98005D01*
X7709Y98049D01*
X8244Y98177D01*
X8753Y98388D01*
X9223Y98676D01*
X9642Y99034D01*
X10000Y99453D01*
X10287Y99922D01*
X10498Y100431D01*
X10627Y100967D01*
X10659Y101516D01*
X10627Y102065D01*
X10498Y102601D01*
X10287Y103110D01*
X10000Y103580D01*
X9642Y103999D01*
X9223Y104356D01*
X8753Y104644D01*
X8244Y104855D01*
X7709Y104984D01*
X7159Y105027D01*
X7154Y105027D01*
Y105906D01*
X7159Y105905D01*
X7709Y105949D01*
X8244Y106077D01*
X8753Y106288D01*
X9223Y106576D01*
X9642Y106934D01*
X10000Y107353D01*
X10287Y107822D01*
X10498Y108331D01*
X10627Y108867D01*
X10659Y109416D01*
X10627Y109965D01*
X10498Y110501D01*
X10287Y111010D01*
X10000Y111480D01*
X9642Y111899D01*
X9223Y112256D01*
X8753Y112544D01*
X8244Y112755D01*
X7709Y112884D01*
X7159Y112927D01*
X7154Y112927D01*
Y113806D01*
X7159Y113805D01*
X7709Y113849D01*
X8244Y113977D01*
X8753Y114188D01*
X9223Y114476D01*
X9642Y114834D01*
X10000Y115253D01*
X10287Y115722D01*
X10498Y116231D01*
X10627Y116767D01*
X10659Y117316D01*
X10627Y117865D01*
X10498Y118401D01*
X10287Y118910D01*
X10000Y119380D01*
X9642Y119799D01*
X9223Y120156D01*
X8753Y120444D01*
X8244Y120655D01*
X7709Y120784D01*
X7159Y120827D01*
X7154Y120827D01*
Y121706D01*
X7159Y121705D01*
X7709Y121749D01*
X8244Y121877D01*
X8753Y122088D01*
X9223Y122376D01*
X9642Y122734D01*
X10000Y123153D01*
X10287Y123622D01*
X10498Y124131D01*
X10627Y124667D01*
X10659Y125216D01*
X10627Y125765D01*
X10498Y126301D01*
X10287Y126810D01*
X10000Y127280D01*
X9642Y127699D01*
X9223Y128056D01*
X8753Y128344D01*
X8244Y128555D01*
X7709Y128684D01*
X7159Y128727D01*
X7154Y128727D01*
Y129606D01*
G37*
G36*
Y139356D02*X28377D01*
Y125048D01*
X26558D01*
X26555Y126580D01*
X26518Y126733D01*
X26458Y126879D01*
X26376Y127013D01*
X26274Y127132D01*
X26154Y127235D01*
X26141Y127242D01*
Y129091D01*
X26148Y129179D01*
X26120Y129532D01*
X26120Y129532D01*
X26038Y129877D01*
X25902Y130204D01*
X25717Y130506D01*
X25487Y130775D01*
X25420Y130833D01*
X21608Y134645D01*
X21550Y134712D01*
X21281Y134942D01*
X20979Y135127D01*
X20652Y135263D01*
X20307Y135345D01*
X20307Y135345D01*
X19954Y135373D01*
X19866Y135366D01*
X13152D01*
X13064Y135373D01*
X12976Y135366D01*
X9840D01*
X9642Y135599D01*
X9223Y135956D01*
X8753Y136244D01*
X8244Y136455D01*
X7709Y136584D01*
X7159Y136627D01*
X7154Y136627D01*
Y139356D01*
G37*
G36*
X5546Y4247D02*X5694Y4185D01*
X5924Y4130D01*
X6159Y4116D01*
X7154Y4118D01*
Y3235D01*
X5546D01*
Y4247D01*
G37*
G36*
Y58900D02*X5565Y58888D01*
X6074Y58677D01*
X6610Y58549D01*
X7154Y58506D01*
Y50899D01*
X7120Y50878D01*
X7000Y50775D01*
X6898Y50656D01*
X6816Y50522D01*
X6755Y50376D01*
X6719Y50223D01*
X6709Y50066D01*
X6719Y32009D01*
X6755Y31856D01*
X6816Y31711D01*
X6898Y31577D01*
X7000Y31457D01*
X7120Y31355D01*
X7154Y31334D01*
Y22553D01*
X7108Y22491D01*
X7053Y22385D01*
X7016Y22273D01*
X6997Y22156D01*
X6996Y22037D01*
X7013Y21920D01*
X7049Y21807D01*
X7102Y21701D01*
X7154Y21629D01*
Y15598D01*
X7105Y15530D01*
X7052Y15424D01*
X7017Y15312D01*
X6999Y15195D01*
X7000Y15077D01*
X7019Y14960D01*
X7057Y14848D01*
X7111Y14744D01*
X7154Y14685D01*
Y13105D01*
X5924Y13102D01*
X5694Y13047D01*
X5546Y12986D01*
Y16466D01*
X5620Y16453D01*
X5738Y16453D01*
X5855Y16470D01*
X5969Y16506D01*
X6075Y16559D01*
X6171Y16628D01*
X6256Y16711D01*
X6326Y16807D01*
X6381Y16912D01*
X6418Y17025D01*
X6437Y17142D01*
X6438Y17260D01*
X6421Y17378D01*
X6383Y17490D01*
X6284Y17761D01*
X6215Y18042D01*
X6173Y18328D01*
X6159Y18616D01*
X6173Y18905D01*
X6215Y19191D01*
X6284Y19471D01*
X6379Y19744D01*
X6417Y19856D01*
X6435Y19972D01*
X6434Y20090D01*
X6415Y20207D01*
X6377Y20319D01*
X6323Y20424D01*
X6253Y20519D01*
X6169Y20602D01*
X6073Y20670D01*
X5967Y20723D01*
X5855Y20759D01*
X5738Y20776D01*
X5620Y20775D01*
X5546Y20763D01*
Y58900D01*
G37*
G36*
Y66800D02*X5565Y66788D01*
X6074Y66577D01*
X6610Y66449D01*
X7154Y66406D01*
Y65527D01*
X6610Y65484D01*
X6074Y65355D01*
X5565Y65144D01*
X5546Y65133D01*
Y66800D01*
G37*
G36*
Y74700D02*X5565Y74688D01*
X6074Y74477D01*
X6610Y74349D01*
X7154Y74306D01*
Y73427D01*
X6610Y73384D01*
X6074Y73255D01*
X5565Y73044D01*
X5546Y73033D01*
Y74700D01*
G37*
G36*
Y82600D02*X5565Y82588D01*
X6074Y82377D01*
X6610Y82249D01*
X7154Y82206D01*
Y81327D01*
X6610Y81284D01*
X6074Y81155D01*
X5565Y80944D01*
X5546Y80933D01*
Y82600D01*
G37*
G36*
Y90500D02*X5565Y90488D01*
X6074Y90277D01*
X6610Y90149D01*
X7154Y90106D01*
Y89227D01*
X6610Y89184D01*
X6074Y89055D01*
X5565Y88844D01*
X5546Y88833D01*
Y90500D01*
G37*
G36*
Y98400D02*X5565Y98388D01*
X6074Y98177D01*
X6610Y98049D01*
X7154Y98006D01*
Y97127D01*
X6610Y97084D01*
X6074Y96955D01*
X5565Y96744D01*
X5546Y96733D01*
Y98400D01*
G37*
G36*
Y106300D02*X5565Y106288D01*
X6074Y106077D01*
X6610Y105949D01*
X7154Y105906D01*
Y105027D01*
X6610Y104984D01*
X6074Y104855D01*
X5565Y104644D01*
X5546Y104633D01*
Y106300D01*
G37*
G36*
Y114200D02*X5565Y114188D01*
X6074Y113977D01*
X6610Y113849D01*
X7154Y113806D01*
Y112927D01*
X6610Y112884D01*
X6074Y112755D01*
X5565Y112544D01*
X5546Y112533D01*
Y114200D01*
G37*
G36*
Y122100D02*X5565Y122088D01*
X6074Y121877D01*
X6610Y121749D01*
X7154Y121706D01*
Y120827D01*
X6610Y120784D01*
X6074Y120655D01*
X5565Y120444D01*
X5546Y120433D01*
Y122100D01*
G37*
G36*
Y130000D02*X5565Y129988D01*
X6074Y129777D01*
X6610Y129649D01*
X7154Y129606D01*
Y128727D01*
X6610Y128684D01*
X6074Y128555D01*
X5565Y128344D01*
X5546Y128333D01*
Y130000D01*
G37*
G36*
Y139356D02*X7154D01*
Y136627D01*
X6610Y136584D01*
X6074Y136455D01*
X5565Y136244D01*
X5546Y136233D01*
Y139356D01*
G37*
G36*
X1659D02*X5546D01*
Y136233D01*
X5096Y135956D01*
X4677Y135599D01*
X4319Y135180D01*
X4031Y134710D01*
X3820Y134201D01*
X3692Y133665D01*
X3649Y133116D01*
X3692Y132567D01*
X3820Y132031D01*
X4031Y131522D01*
X4319Y131053D01*
X4677Y130634D01*
X5096Y130276D01*
X5546Y130000D01*
Y128333D01*
X5096Y128056D01*
X4677Y127699D01*
X4319Y127280D01*
X4031Y126810D01*
X3820Y126301D01*
X3692Y125765D01*
X3649Y125216D01*
X3692Y124667D01*
X3820Y124131D01*
X4031Y123622D01*
X4319Y123153D01*
X4677Y122734D01*
X5096Y122376D01*
X5546Y122100D01*
Y120433D01*
X5096Y120156D01*
X4677Y119799D01*
X4319Y119380D01*
X4031Y118910D01*
X3820Y118401D01*
X3692Y117865D01*
X3649Y117316D01*
X3692Y116767D01*
X3820Y116231D01*
X4031Y115722D01*
X4319Y115253D01*
X4677Y114834D01*
X5096Y114476D01*
X5546Y114200D01*
Y112533D01*
X5096Y112256D01*
X4677Y111899D01*
X4319Y111480D01*
X4031Y111010D01*
X3820Y110501D01*
X3692Y109965D01*
X3649Y109416D01*
X3692Y108867D01*
X3820Y108331D01*
X4031Y107822D01*
X4319Y107353D01*
X4677Y106934D01*
X5096Y106576D01*
X5546Y106300D01*
Y104633D01*
X5096Y104356D01*
X4677Y103999D01*
X4319Y103580D01*
X4031Y103110D01*
X3820Y102601D01*
X3692Y102065D01*
X3649Y101516D01*
X3692Y100967D01*
X3820Y100431D01*
X4031Y99922D01*
X4319Y99453D01*
X4677Y99034D01*
X5096Y98676D01*
X5546Y98400D01*
Y96733D01*
X5096Y96456D01*
X4677Y96099D01*
X4319Y95680D01*
X4031Y95210D01*
X3820Y94701D01*
X3692Y94165D01*
X3649Y93616D01*
X3692Y93067D01*
X3820Y92531D01*
X4031Y92022D01*
X4319Y91553D01*
X4677Y91134D01*
X5096Y90776D01*
X5546Y90500D01*
Y88833D01*
X5096Y88556D01*
X4677Y88199D01*
X4319Y87780D01*
X4031Y87310D01*
X3820Y86801D01*
X3692Y86265D01*
X3649Y85716D01*
X3692Y85167D01*
X3820Y84631D01*
X4031Y84122D01*
X4319Y83653D01*
X4677Y83234D01*
X5096Y82876D01*
X5546Y82600D01*
Y80933D01*
X5096Y80656D01*
X4677Y80299D01*
X4319Y79880D01*
X4031Y79410D01*
X3820Y78901D01*
X3692Y78365D01*
X3649Y77816D01*
X3692Y77267D01*
X3820Y76731D01*
X4031Y76222D01*
X4319Y75753D01*
X4677Y75334D01*
X5096Y74976D01*
X5546Y74700D01*
Y73033D01*
X5096Y72756D01*
X4677Y72399D01*
X4319Y71980D01*
X4031Y71510D01*
X3820Y71001D01*
X3692Y70465D01*
X3649Y69916D01*
X3692Y69367D01*
X3820Y68831D01*
X4031Y68322D01*
X4319Y67853D01*
X4677Y67434D01*
X5096Y67076D01*
X5546Y66800D01*
Y65133D01*
X5096Y64856D01*
X4677Y64499D01*
X4319Y64080D01*
X4031Y63610D01*
X3820Y63101D01*
X3692Y62565D01*
X3649Y62016D01*
X3692Y61467D01*
X3820Y60931D01*
X4031Y60422D01*
X4319Y59953D01*
X4677Y59534D01*
X5096Y59176D01*
X5546Y58900D01*
Y20763D01*
X5503Y20756D01*
X5391Y20719D01*
X5287Y20664D01*
X5192Y20594D01*
X5109Y20510D01*
X5040Y20414D01*
X4989Y20308D01*
X4841Y19900D01*
X4737Y19479D01*
X4675Y19050D01*
X4654Y18616D01*
X4675Y18183D01*
X4737Y17753D01*
X4841Y17332D01*
X4985Y16923D01*
X5037Y16816D01*
X5106Y16720D01*
X5189Y16635D01*
X5285Y16565D01*
X5390Y16510D01*
X5503Y16473D01*
X5546Y16466D01*
Y12986D01*
X5476Y12957D01*
X5275Y12833D01*
X5095Y12680D01*
X4942Y12501D01*
X4819Y12299D01*
X4728Y12081D01*
X4673Y11852D01*
X4659Y11616D01*
X4673Y5381D01*
X4728Y5151D01*
X4819Y4933D01*
X4942Y4732D01*
X5095Y4552D01*
X5275Y4399D01*
X5476Y4276D01*
X5546Y4247D01*
Y3235D01*
X1659D01*
Y139356D01*
G37*
G54D12*X23735Y115792D02*X18578D01*
X18381Y128590D02*Y119925D01*
X62262Y62275D02*Y66461D01*
X46566Y62323D02*Y70195D01*
X49156Y66513D02*X43250D01*
X62262Y66461D02*X62314Y66513D01*
X61278Y73099D02*X58326D01*
G54D13*X61293Y96895D02*X66378D01*
G54D12*X62262Y66461D02*X64956D01*
X62314Y66513D02*X58666D01*
X78006Y62275D02*Y66457D01*
X80958Y69409D02*Y73099D01*
X78006Y66457D02*X80958Y69409D01*
X71118Y73099D02*Y72115D01*
X70134Y71131D01*
X74802Y66457D02*X80708D01*
X76645Y94747D02*X79974D01*
X76645Y97322D02*Y91188D01*
G54D14*X36687Y51423D02*Y30754D01*
X36659Y41116D02*X31246D01*
X17002Y56344D02*Y72092D01*
Y65203D02*X12080D01*
G54D13*X29159Y64716D02*X31279D01*
X34718Y68155D01*
G54D14*X12080Y30754D02*Y51423D01*
X11459Y41116D02*X6639D01*
G54D13*X61293Y93746D02*X70151D01*
X71135Y94730D01*
X31490Y123548D02*X24601D01*
X23891Y124258D01*
G54D12*X29159Y58616D02*X36659D01*
X47513Y47762D01*
Y40596D01*
X37671Y64126D02*Y75045D01*
X34718Y77998D01*
X30781D01*
X23891Y124258D02*Y129179D01*
X19954Y133116D01*
X7159D01*
X13064Y91777D02*X13065D01*
X14541Y81443D02*X19954Y86856D01*
X13064Y133116D02*Y82919D01*
X17986Y77998D01*
X26552Y70816D02*X29159D01*
G54D14*X39159Y8616D02*Y13541D01*
X56372Y30754D01*
X49159Y8616D02*Y16651D01*
X61293Y28785D01*
X91659Y21116D02*X75852D01*
X66214Y30754D01*
Y49455D01*
Y50467D02*X74060Y58313D01*
X56358Y52421D02*X50466Y58313D01*
X61278Y53377D02*X66214Y58313D01*
X74060D02*X81962D01*
X56358Y30740D02*Y52421D01*
X61278Y28770D02*Y53377D01*
G54D12*X21859Y41116D02*Y56281D01*
X22907Y57329D01*
Y67171D01*
G54D14*X21923Y30754D02*Y40596D01*
X19159Y27990D02*X21923Y30754D01*
X19159Y8616D02*Y27990D01*
X9159Y8616D02*X19159D01*
G54D12*X22907Y67171D02*X26552Y70816D01*
G54D14*X29159Y8616D02*Y21116D01*
G54D13*X54366Y66513D02*X58371Y70518D01*
X63617D01*
X72120Y77210D02*X70939D01*
X63617Y70518D02*X66198Y73099D01*
X66176Y73077D02*X65630D01*
X61278Y77429D01*
X66198D02*X63640Y79987D01*
X59310D01*
X61293Y100045D02*X67560D01*
X68166Y100651D01*
X61293Y103194D02*X67591D01*
X68166Y102619D01*
X50388Y123548D02*Y131069D01*
X50466Y131147D01*
X53537Y123548D02*Y129297D01*
X55387Y131147D01*
X70114Y66513D02*Y67175D01*
X76038Y73099D01*
X85862Y66513D02*Y73083D01*
X85878Y73099D01*
X81767Y77210D01*
X93750Y70147D02*X89814Y74083D01*
X81767Y77210D02*X81175D01*
X78754Y14021D02*X84159Y8616D01*
X78753Y14022D02*X68183D01*
X66214Y12053D01*
X76135Y73196D02*X72120Y77210D01*
X76038Y77429D02*X71512Y81955D01*
X85878Y77429D02*X79384Y83923D01*
X68166Y100651D02*X86862D01*
X89814Y97699D01*
Y74083D02*Y97699D01*
X93750Y101635D02*X92766Y102619D01*
X68166D01*
X59310Y79987D02*X58326Y79003D01*
X71512Y81955D02*X58326D01*
X57342Y80971D01*
X52422D01*
X58326Y79003D02*X50454D01*
X52422Y80971D02*X50454Y82939D01*
Y85891D01*
Y79003D02*X47239Y82218D01*
Y85990D01*
X44089D02*Y82406D01*
X50466Y76029D01*
X79384Y83923D02*X55605D01*
X53538Y85990D01*
X24482Y86659D02*Y92998D01*
X23735Y93745D01*
X26843D01*
X28813Y95714D01*
X34718D01*
X23735Y96895D02*X27040D01*
X27828Y97683D01*
X31765D01*
X34718Y100636D01*
G54D11*G36*
X71159Y11616D02*Y5616D01*
X77159D01*
Y11616D01*
X71159D01*
G37*
G54D15*X84159Y8616D03*
X94159D03*
G54D16*X91659Y21116D03*
G54D15*X94159Y36116D03*
G54D11*G36*
X91159Y49116D02*Y43116D01*
X97159D01*
Y49116D01*
X91159D01*
G37*
G54D15*X84159Y46116D03*
Y36116D03*
X74159Y46116D03*
Y36116D03*
G54D11*G36*
X6159Y11616D02*Y5616D01*
X12159D01*
Y11616D01*
X6159D01*
G37*
G54D15*X9159Y18616D03*
G54D11*G36*
X16159Y11616D02*Y5616D01*
X22159D01*
Y11616D01*
X16159D01*
G37*
G54D15*X29159Y8616D03*
X39159D03*
X49159D03*
G54D11*G36*
X25159Y25116D02*Y17116D01*
X33159D01*
Y25116D01*
X25159D01*
G37*
G54D17*X7159Y62016D03*
Y69916D03*
Y77816D03*
Y85716D03*
Y93616D03*
Y101516D03*
Y109416D03*
Y117316D03*
Y125216D03*
Y133116D03*
X93759Y62016D03*
Y69916D03*
Y77816D03*
Y85716D03*
Y93616D03*
Y101516D03*
Y109416D03*
Y117316D03*
Y125216D03*
Y133116D03*
G54D18*X18381Y124750D02*Y123766D01*
X23891Y124750D02*Y123766D01*
G54D19*X21522Y115792D02*X25948D01*
X21522Y112643D02*X25948D01*
X21522Y109493D02*X25948D01*
X21522Y106344D02*X25948D01*
X21522Y103194D02*X25948D01*
X21522Y100044D02*X25948D01*
X21522Y96895D02*X25948D01*
X21522Y93745D02*X25948D01*
G54D20*X21859Y46316D02*Y35916D01*
X11459Y46316D02*Y35916D01*
X47059Y46316D02*Y35916D01*
X36659Y46316D02*Y35916D01*
G54D18*X71135Y95222D02*Y94238D01*
X76645Y95222D02*Y94238D01*
G54D21*X85485Y77429D02*X86271D01*
X80565D02*X81351D01*
X70725D02*X71511D01*
X75645D02*X76431D01*
X85485Y73099D02*X86271D01*
G54D22*X85862Y66813D02*Y66213D01*
X78062Y66813D02*Y66213D01*
X81962Y58613D02*Y58013D01*
G54D21*X80565Y73099D02*X81351D01*
X70725D02*X71511D01*
X75645D02*X76431D01*
X60885D02*X61671D01*
X60885Y77429D02*X61671D01*
X65805Y73099D02*X66591D01*
X65805Y77429D02*X66591D01*
G54D22*X70114Y66813D02*Y66213D01*
X62314Y66813D02*Y66213D01*
X66214Y58613D02*Y58013D01*
X54366Y66813D02*Y66213D01*
X50466Y58613D02*Y58013D01*
G54D23*X27959Y58616D02*X30359D01*
X27959Y64716D02*X30359D01*
X27959Y70816D02*X30359D01*
G54D24*X16959Y67716D02*Y61716D01*
G54D18*X37179Y58511D02*X38163D01*
X37179Y64021D02*X38163D01*
G54D22*X46566Y66813D02*Y66213D01*
G54D21*X20152Y87052D02*Y86266D01*
X24482Y87052D02*Y86266D01*
G54D19*X31491Y88203D02*Y83777D01*
X34640Y88203D02*Y83777D01*
X37790Y88203D02*Y83777D01*
X40939Y88203D02*Y83777D01*
X44089Y88203D02*Y83777D01*
X47239Y88203D02*Y83777D01*
X50388Y88203D02*Y83777D01*
X53538Y88203D02*Y83777D01*
X59080Y93746D02*X63506D01*
X59080Y96895D02*X63506D01*
X59080Y100045D02*X63506D01*
X59080Y103194D02*X63506D01*
X59080Y106344D02*X63506D01*
X59080Y109494D02*X63506D01*
X59080Y112643D02*X63506D01*
X59080Y115793D02*X63506D01*
X53537Y125761D02*Y121335D01*
X50388Y125761D02*Y121335D01*
X47238Y125761D02*Y121335D01*
X44089Y125761D02*Y121335D01*
X40939Y125761D02*Y121335D01*
X37789Y125761D02*Y121335D01*
X34640Y125761D02*Y121335D01*
X31490Y125761D02*Y121335D01*
G54D25*X50466Y131147D03*
X55387D03*
X66214Y123273D03*
X85899Y133116D03*
X66214D03*
X17986Y119336D03*
X50466Y76029D03*
X66214Y12053D03*
G54D15*X58340Y60281D03*
G54D25*X28813Y28785D03*
G54D15*X66214Y20911D03*
G54D25*X94159Y28616D03*
G54D15*X17986Y77998D03*
X30781D03*
G54D25*X17986Y90793D03*
X34718Y95714D03*
Y100636D03*
X50466Y112447D03*
X34718D03*
X42592Y98667D03*
X67198Y93746D03*
X82159Y94927D03*
X83931Y107525D03*
X42592Y77014D03*
G54D26*G54D27*G54D26*G54D27*G54D26*G54D27*G54D26*G54D28*G54D17*G54D28*G54D17*G54D29*M02*
