G04 start of page 9 for group -4078 idx -4078 *
G04 Title: (unknown), bottomsilk *
G04 Creator: pcb 20110918 *
G04 CreationDate: Sun Sep 22 23:55:29 2013 UTC *
G04 For: mokus *
G04 Format: Gerber/RS-274X *
G04 PCB-Dimensions: 100000 140000 *
G04 PCB-Coordinate-Origin: lower left *
%MOIN*%
%FSLAX25Y25*%
%LNBOTTOMSILK*%
%ADD67C,0.0100*%
%ADD66C,0.0050*%
G54D66*X39631Y134060D02*X38631Y132060D01*
X37631Y134060D02*X38631Y132060D01*
X34431Y136060D02*X36431D01*
X35431Y132060D02*Y136060D01*
X32731Y132060D02*Y133560D01*
X32231Y134060D01*
X31231D02*X32231D01*
X33231D02*X32731Y133560D01*
X28031Y132060D02*X29531D01*
X30031Y132560D02*X29531Y132060D01*
X30031Y132560D02*Y133560D01*
X29531Y134060D01*
X28531D02*X29531D01*
X28531D02*X28031Y133560D01*
Y133060D02*X30031D01*
X28031D02*Y133560D01*
X24831Y132060D02*X26331D01*
X26831Y132560D02*X26331Y132060D01*
X26831Y132560D02*Y133560D01*
X26331Y134060D01*
X25331D02*X26331D01*
X25331D02*X24831Y133560D01*
Y133060D02*X26831D01*
X24831D02*Y133560D01*
X21831Y135560D02*X21331Y136060D01*
X19831D02*X21331D01*
X19831D02*X19331Y135560D01*
Y134560D02*Y135560D01*
X21831Y132060D02*X19331Y134560D01*
Y132060D02*X21831D01*
X17631D02*X18131D01*
X15931D02*X14431Y134060D01*
Y135560D01*
X14931Y136060D02*X14431Y135560D01*
X14931Y136060D02*X15931D01*
X16431Y135560D02*X15931Y136060D01*
X16431Y134560D02*Y135560D01*
Y134560D02*X15931Y134060D01*
X14431D02*X15931D01*
X38147Y126156D02*Y127656D01*
X37647Y128156D01*
X36647D02*X37647D01*
X38647D02*X38147Y127656D01*
X33447Y126156D02*X34947D01*
X35447Y126656D02*X34947Y126156D01*
X35447Y126656D02*Y127656D01*
X34947Y128156D01*
X33947D02*X34947D01*
X33947D02*X33447Y127656D01*
Y127156D02*X35447D01*
X33447D02*Y127656D01*
X32247Y128156D02*X31247Y126156D01*
X30247Y128156D02*X31247Y126156D01*
X27247Y126656D02*X26747Y126156D01*
X27247Y126656D02*Y129656D01*
X26747Y130156D01*
X25747D02*X26747D01*
X25747D02*X25247Y129656D01*
Y126656D02*Y129656D01*
X25747Y126156D02*X25247Y126656D01*
X25747Y126156D02*X26747D01*
X27247Y127156D02*X25247Y129156D01*
X23547Y126156D02*X24047D01*
X22347Y129356D02*X21547Y130156D01*
Y126156D02*Y130156D01*
X20847Y126156D02*X22347D01*
X50448Y125329D02*X49948Y124829D01*
Y123829D02*Y124829D01*
Y123829D02*X50448Y123329D01*
X53948Y123829D02*X53448Y123329D01*
X53948Y123829D02*Y124829D01*
X53448Y125329D02*X53948Y124829D01*
X51748Y123829D02*Y124829D01*
X50448Y123329D02*X51248D01*
X52248D02*X53448D01*
X52248D02*X51748Y123829D01*
X51248Y123329D02*X51748Y123829D01*
X53948Y121629D02*Y122129D01*
X50448Y120429D02*X49948Y119929D01*
Y118929D02*Y119929D01*
Y118929D02*X50448Y118429D01*
X53948Y118929D02*X53448Y118429D01*
X53948Y118929D02*Y119929D01*
X53448Y120429D02*X53948Y119929D01*
X51748Y118929D02*Y119929D01*
X50448Y118429D02*X51248D01*
X52248D02*X53448D01*
X52248D02*X51748Y118929D01*
X51248Y118429D02*X51748Y118929D01*
X51948Y117229D02*X53948Y116229D01*
X51948Y115229D02*X53948Y116229D01*
X59948Y122829D02*X60448Y122329D01*
X59948Y122829D02*Y124329D01*
X60448Y124829D02*X59948Y124329D01*
X60448Y124829D02*X63448D01*
X63948Y124329D01*
Y122829D02*Y124329D01*
Y122829D02*X63448Y122329D01*
X62448D02*X63448D01*
X61948Y122829D02*X62448Y122329D01*
X61948Y122829D02*Y123829D01*
X59948Y121129D02*X63948D01*
X59948D02*X63948Y118629D01*
X59948D02*X63948D01*
X59948Y116929D02*X63948D01*
X59948Y115629D02*X60648Y114929D01*
X63248D01*
X63948Y115629D02*X63248Y114929D01*
X63948Y115629D02*Y117429D01*
X59948Y115629D02*Y117429D01*
X82448Y111329D02*Y115329D01*
X81148D02*X80448Y114629D01*
Y112029D02*Y114629D01*
X81148Y111329D02*X80448Y112029D01*
X81148Y111329D02*X82948D01*
X81148Y115329D02*X82948D01*
X79248Y112829D02*X77248Y115329D01*
X76748Y112829D02*X79248D01*
X77248Y111329D02*Y115329D01*
X73548Y113329D02*X75548D01*
X71848Y111329D02*X69848Y115329D01*
X72348D01*
G54D67*X46948Y137329D02*X66948D01*
Y127329D02*Y137329D01*
X46948Y127329D02*X66948D01*
X46948D02*Y137329D01*
X56948Y127329D02*Y137329D01*
X46948Y127329D02*X56948D01*
X66710Y137329D02*X86710D01*
Y117329D01*
X66710D02*X86710D01*
X66710Y137329D02*Y117329D01*
X76710Y137329D02*Y127329D01*
X66710D02*X76710D01*
M02*
