G04 start of page 9 for group -4078 idx -4078 *
G04 Title: (unknown), bottomsilk *
G04 Creator: pcb 20110918 *
G04 CreationDate: Fri Sep 13 22:17:45 2013 UTC *
G04 For: mokus *
G04 Format: Gerber/RS-274X *
G04 PCB-Dimensions: 100000 140000 *
G04 PCB-Coordinate-Origin: lower left *
%MOIN*%
%FSLAX25Y25*%
%LNBOTTOMSILK*%
%ADD66C,0.0050*%
G54D66*X39631Y134060D02*X38631Y132060D01*
X37631Y134060D02*X38631Y132060D01*
X34431Y136060D02*X36431D01*
X35431Y132060D02*Y136060D01*
X32731Y132060D02*Y133560D01*
X32231Y134060D01*
X31231D02*X32231D01*
X33231D02*X32731Y133560D01*
X28031Y132060D02*X29531D01*
X30031Y132560D02*X29531Y132060D01*
X30031Y132560D02*Y133560D01*
X29531Y134060D01*
X28531D02*X29531D01*
X28531D02*X28031Y133560D01*
Y133060D02*X30031D01*
X28031D02*Y133560D01*
X24831Y132060D02*X26331D01*
X26831Y132560D02*X26331Y132060D01*
X26831Y132560D02*Y133560D01*
X26331Y134060D01*
X25331D02*X26331D01*
X25331D02*X24831Y133560D01*
Y133060D02*X26831D01*
X24831D02*Y133560D01*
X21831Y135560D02*X21331Y136060D01*
X19831D02*X21331D01*
X19831D02*X19331Y135560D01*
Y134560D02*Y135560D01*
X21831Y132060D02*X19331Y134560D01*
Y132060D02*X21831D01*
X17631D02*X18131D01*
X15931D02*X14431Y134060D01*
Y135560D01*
X14931Y136060D02*X14431Y135560D01*
X14931Y136060D02*X15931D01*
X16431Y135560D02*X15931Y136060D01*
X16431Y134560D02*Y135560D01*
Y134560D02*X15931Y134060D01*
X14431D02*X15931D01*
X38147Y126156D02*Y127656D01*
X37647Y128156D01*
X36647D02*X37647D01*
X38647D02*X38147Y127656D01*
X33447Y126156D02*X34947D01*
X35447Y126656D02*X34947Y126156D01*
X35447Y126656D02*Y127656D01*
X34947Y128156D01*
X33947D02*X34947D01*
X33947D02*X33447Y127656D01*
Y127156D02*X35447D01*
X33447D02*Y127656D01*
X32247Y128156D02*X31247Y126156D01*
X30247Y128156D02*X31247Y126156D01*
X27247Y126656D02*X26747Y126156D01*
X27247Y126656D02*Y129656D01*
X26747Y130156D01*
X25747D02*X26747D01*
X25747D02*X25247Y129656D01*
Y126656D02*Y129656D01*
X25747Y126156D02*X25247Y126656D01*
X25747Y126156D02*X26747D01*
X27247Y127156D02*X25247Y129156D01*
X23547Y126156D02*X24047D01*
X22347Y129356D02*X21547Y130156D01*
Y126156D02*Y130156D01*
X20847Y126156D02*X22347D01*
M02*
