M48
INCH
T46C0.035
T45C0.020
T44C0.030
T43C0.050
T42C0.038
%
T45
X006621Y012327
X004259Y009867
X003472Y011245
X005047Y011245
X003472Y010064
X003472Y009571
X001799Y009079
X009416Y002862
X002881Y002879
X006621Y001205
X008590Y013312
X005047Y007603
X001799Y011934
X006621Y013312
X004259Y007701
X008393Y010753
X008216Y009493
X005047Y013115
X005539Y013115
X006720Y009375
T44
X009376Y008572
X000716Y006202
X000716Y006992
X000716Y007782
X000716Y008572
X000716Y009362
X000716Y010152
X000716Y010942
X000716Y011732
X000716Y012522
X000716Y013312
X009376Y006202
X009376Y006992
X009376Y007782
X009376Y009362
X009376Y010152
X009376Y010942
X009376Y011732
X009376Y012522
X009376Y013312
T46
X003078Y007800
X006621Y002091
X005834Y006028
X001799Y007800
T42
X001916Y000862
X000916Y001862
X008416Y000862
X004916Y000862
X003916Y000862
X002916Y000862
X009416Y000862
X007416Y000862
X000916Y000862
X007416Y003612
X007416Y004612
X008416Y003612
X008416Y004612
X009416Y004612
X009416Y003612
T43
X002916Y002112
X009166Y002112
M30
