M48
INCH
T46C0.035
T45C0.020
T44C0.030
T43C0.050
T42C0.038
%
T45
X004259Y009867
X003472Y011245
X005795Y012083
X004195Y011233
X001799Y009079
X005047Y011245
X005545Y007233
X005745Y008983
X005047Y007603
X006720Y009375
X003175Y010457
X001799Y011934
X004245Y007683
X003569Y009375
X004061Y009375
X006621Y001205
X008195Y009483
X008785Y012721
X009416Y002862
X008393Y010752
X003569Y010162
X002881Y002878
T44
X000716Y013312
X000716Y006202
X000716Y006992
X000716Y007782
X000716Y008572
X000716Y009362
X000716Y010152
X000716Y010942
X000716Y011732
X000716Y012522
X009376Y006202
X009376Y006992
X009376Y007782
X009376Y008572
X009376Y009362
X009376Y010152
X009376Y010942
X009376Y011732
X009376Y012522
X009376Y013312
T46
X005834Y006028
X001799Y007800
X003078Y007800
X006621Y002091
T42
X005195Y013233
X008171Y013233
X007416Y000862
X004916Y000862
X003916Y000862
X002916Y000862
X008416Y000862
X007171Y012233
X007171Y013233
X006195Y013233
X009416Y000862
X008171Y012233
X001916Y000862
X000916Y001862
X000916Y000862
X007416Y003612
X007416Y004612
X008416Y003612
X008416Y004612
X009416Y004612
X009416Y003612
T43
X002916Y002112
X009166Y002112
M30
